<svg xmlns="http://www.w3.org/2000/svg" viewBox="0 0 1470.77 93.42"><defs><style>.cls-1{fill:#fff;}.cls-2{fill:#63a8dc;}.cls-3{fill:#1a374c;stroke:#628fca;stroke-miterlimit:10;stroke-width:4px;}.cls-4{fill:#628fca;}</style></defs><g id="Layer_2" data-name="Layer 2"><g id="Layer_1-2" data-name="Layer 1"><path class="cls-1" d="M562,84.48a12.21,12.21,0,0,1-8.57-3.21,15.29,15.29,0,0,1-3.89-5.88,22.18,22.18,0,0,1-1.29-6c-.13-1.62-.2-3.14-.2-4.51,0-2.62.17-5.77.52-9.37s.9-7.45,1.68-11.41a96.09,96.09,0,0,1,3.17-12,56.63,56.63,0,0,1,5.18-11.39,31.61,31.61,0,0,1,8.21-9.18,20.81,20.81,0,0,1,12.6-4.09,20.1,20.1,0,0,1,8.93,2,23.42,23.42,0,0,1,6.58,4.82,32,32,0,0,1,4.56,6.07c1.12,1.94,2.15,3.9,3.06,5.84a68.91,68.91,0,0,1,5.67,20.06,165.42,165.42,0,0,1,1.14,19.57,22.7,22.7,0,0,1-.75,5.72,19.94,19.94,0,0,1-2.44,5.67,15.39,15.39,0,0,1-4.91,4.89,14.23,14.23,0,0,1-7.6,2.06,13.29,13.29,0,0,1-9.3-3.29,16,16,0,0,1-4.22-6.35,26.46,26.46,0,0,1-1.44-6.4c-.11-1.06-.23-2.08-.36-3-.23.92-.46,1.93-.67,3a37.25,37.25,0,0,1-1.8,6.24,18.45,18.45,0,0,1-4.17,6.46A13.2,13.2,0,0,1,562,84.48Z"/><path class="cls-2" d="M579.41,14.44a13.21,13.21,0,0,1,5.84,1.27,16.31,16.31,0,0,1,4.62,3.39,25.29,25.29,0,0,1,3.56,4.75c1,1.76,2,3.51,2.77,5.27a61.59,61.59,0,0,1,5.06,17.94,157.49,157.49,0,0,1,1.09,18.73,15.6,15.6,0,0,1-.52,3.95,12.9,12.9,0,0,1-1.59,3.7,8.27,8.27,0,0,1-2.68,2.68,7.29,7.29,0,0,1-3.91,1,6.51,6.51,0,0,1-4.57-1.45,9,9,0,0,1-2.38-3.61,19.36,19.36,0,0,1-1.05-4.7c-.18-1.7-.37-3.27-.57-4.7a14.86,14.86,0,0,0-.93-3.61A2.14,2.14,0,0,0,582,57.61h-5c-1.7,0-2.86.34-3.47,1a8.84,8.84,0,0,0-1.63,3.3c-.41,1.41-.79,3-1.14,4.79a30.32,30.32,0,0,1-1.45,5.06,11.52,11.52,0,0,1-2.6,4A6.37,6.37,0,0,1,562,77.48a5.28,5.28,0,0,1-3.78-1.32A8.11,8.11,0,0,1,556.11,73a14.8,14.8,0,0,1-.88-4.08q-.18-2.2-.18-4c0-2.4.16-5.31.48-8.71s.85-7,1.59-10.72a89.25,89.25,0,0,1,2.94-11.17,49.44,49.44,0,0,1,4.53-10A24.3,24.3,0,0,1,571,17.17a13.81,13.81,0,0,1,8.44-2.73m-.53,32.05h.26a8.4,8.4,0,0,0,3-.62c.9-.38,1.36-.92,1.36-1.62a40.9,40.9,0,0,0-1.06-8.58,19.17,19.17,0,0,0-1.27-3.82c-.5-1.06-1-1.58-1.63-1.58s-1.17.48-1.76,1.45a16.27,16.27,0,0,0-1.54,3.6,39.15,39.15,0,0,0-1.09,4.62,25,25,0,0,0-.44,4.48c0,.71.45,1.23,1.36,1.58a7.5,7.5,0,0,0,2.77.49M579.41.44A28.05,28.05,0,0,0,562.65,5.9a38.63,38.63,0,0,0-10,11.19,63.19,63.19,0,0,0-5.83,12.79,104.51,104.51,0,0,0-3.4,12.91c-.82,4.19-1.42,8.26-1.78,12.1s-.55,7.14-.55,10c0,1.55.08,3.26.22,5.08A29.24,29.24,0,0,0,543,77.85a22.18,22.18,0,0,0,5.65,8.53A19.12,19.12,0,0,0,562,91.48a20.09,20.09,0,0,0,14.64-5.77c.46-.45.89-.92,1.31-1.41a22.29,22.29,0,0,0,1.67,1.7,20.19,20.19,0,0,0,14,5.13A21.06,21.06,0,0,0,605,88a22.18,22.18,0,0,0,7.13-7.1,26.79,26.79,0,0,0,3.29-7.63,29.81,29.81,0,0,0,1-7.49,172.93,172.93,0,0,0-1.19-20.4,75.9,75.9,0,0,0-6.19-22l0-.09,0-.09c-1-2.14-2.12-4.29-3.35-6.4A39.56,39.56,0,0,0,600,9.41a30.55,30.55,0,0,0-8.55-6.26,27,27,0,0,0-12-2.71Z"/><path class="cls-1" d="M613.34,86.24a12.23,12.23,0,0,1-4.61-1,12.86,12.86,0,0,1-5-3.81,18,18,0,0,1-3.15-6,26.28,26.28,0,0,1-1.15-8.37v-30c0-1,0-2.28,0-3.78,0-1.69,0-3.51.09-5.41a49.5,49.5,0,0,1,.67-6,24.43,24.43,0,0,1,2-6.4,15.84,15.84,0,0,1,4.7-5.84A13.62,13.62,0,0,1,615.28,7,18.82,18.82,0,0,1,622,8.07a12,12,0,0,1,5.72,4.31,14.24,14.24,0,0,1,2.32,5.84,29.67,29.67,0,0,1,.36,3.46,13.62,13.62,0,0,1,3.77-.52,21,21,0,0,1,11.11,3,24.33,24.33,0,0,1,7.64,7.38,31.34,31.34,0,0,1,4.25,9.69,42.38,42.38,0,0,1,1.32,10.59,48.37,48.37,0,0,1-1.33,11.25,34.39,34.39,0,0,1-4.6,10.83A27.15,27.15,0,0,1,644,82.22a24.62,24.62,0,0,1-13.07,3.41,15.6,15.6,0,0,1-7-1.41c-.47-.22-.91-.46-1.33-.71a14.22,14.22,0,0,1-2.83,1.5,17.42,17.42,0,0,1-3.46,1A18.74,18.74,0,0,1,613.34,86.24Z"/><path class="cls-2" d="M615.28,14a12.22,12.22,0,0,1,4.26.62,5.13,5.13,0,0,1,2.47,1.8,7.42,7.42,0,0,1,1.14,3,26.18,26.18,0,0,1,.31,4.26c0,.76,0,1.6-.09,2.51a13.68,13.68,0,0,0,0,2.5,4.22,4.22,0,0,0,.62,1.89,1.69,1.69,0,0,0,1.54.75,4.14,4.14,0,0,0,1.84-.48c.65-.32,1.32-.69,2-1.1a18,18,0,0,1,2.25-1.1,6.58,6.58,0,0,1,2.5-.48,14.18,14.18,0,0,1,7.48,2,17.46,17.46,0,0,1,5.45,5.28,24.92,24.92,0,0,1,3.3,7.56,35.44,35.44,0,0,1,1.09,8.84,41.54,41.54,0,0,1-1.14,9.63,27,27,0,0,1-3.65,8.61,20.06,20.06,0,0,1-6.37,6.2,17.7,17.7,0,0,1-9.41,2.38,9,9,0,0,1-3.91-.71,8.32,8.32,0,0,1-2.33-1.58,12.29,12.29,0,0,1-1.37-1.58,1.31,1.31,0,0,0-1-.71,1.21,1.21,0,0,0-1,.49,8.73,8.73,0,0,0-.71,1.18,5.36,5.36,0,0,1-1.4,1.67,7.23,7.23,0,0,1-1.89,1.1,9.66,9.66,0,0,1-2.07.57,11.14,11.14,0,0,1-1.85.18,5.51,5.51,0,0,1-2-.48A6,6,0,0,1,609.08,77a11.41,11.41,0,0,1-1.89-3.69,19.76,19.76,0,0,1-.79-6.15v-30c0-1,0-2.35,0-3.91s0-3.19.09-4.92a44.56,44.56,0,0,1,.57-5.15,17.48,17.48,0,0,1,1.41-4.57,8.76,8.76,0,0,1,2.64-3.29A6.75,6.75,0,0,1,615.28,14m13.1,47.74a4.51,4.51,0,0,0,2.77-.88,7.81,7.81,0,0,0,2-2.24,11.42,11.42,0,0,0,1.28-3,12.58,12.58,0,0,0,.44-3.17,12.23,12.23,0,0,0-1.37-6.2c-.91-1.55-2.47-2.33-4.7-2.33q-.8,0-1.8.09a6.7,6.7,0,0,0-1.89.44,4.47,4.47,0,0,0-1.5,1A2.14,2.14,0,0,0,623,47c0,1.76,0,3.24,0,4.44s0,2.68,0,4.44a7.17,7.17,0,0,0,1.14,4.35c.76,1,2.2,1.54,4.31,1.54M615.28,0a20.67,20.67,0,0,0-12.71,4.15,22.73,22.73,0,0,0-6.78,8.39,31,31,0,0,0-2.57,8.23,56.74,56.74,0,0,0-.76,6.81c-.1,2.06-.14,4.05-.1,5.9,0,1.48,0,2.71,0,3.64v30a33.09,33.09,0,0,0,1.51,10.58,24.66,24.66,0,0,0,4.42,8.23,19.76,19.76,0,0,0,7.75,5.8,18.92,18.92,0,0,0,7.26,1.52,25.79,25.79,0,0,0,4.15-.36,25.17,25.17,0,0,0,4.86-1.35l.5-.2a23.62,23.62,0,0,0,8.08,1.3,31.56,31.56,0,0,0,16.73-4.44,34.22,34.22,0,0,0,10.76-10.46,41.38,41.38,0,0,0,5.56-13,55.89,55.89,0,0,0,1.52-12.88A49.13,49.13,0,0,0,664,39.48a38.44,38.44,0,0,0-5.2-11.83,31.4,31.4,0,0,0-9.83-9.48,27.57,27.57,0,0,0-12.65-3.94,20.12,20.12,0,0,0-2.82-5.86,19.19,19.19,0,0,0-9-6.85A25.87,25.87,0,0,0,615.28,0Z"/><path class="cls-1" d="M679.73,85.19c-6.66,0-12-1-16.28-3.14a24.6,24.6,0,0,1-10.39-9.26,32.46,32.46,0,0,1-4.36-12.74,100.27,100.27,0,0,1-.86-13.52c0-2.65.12-5.35.33-8A50,50,0,0,1,649.61,30a36.56,36.56,0,0,1,3.26-8.3A25.93,25.93,0,0,1,659,14.1a27.57,27.57,0,0,1,9.26-5,38.56,38.56,0,0,1,12-1.72c6.37,0,11.52,1.08,15.78,3.3a26.17,26.17,0,0,1,10.15,9.25,33.61,33.61,0,0,1,4.59,12.49,81,81,0,0,1,1,13,86.27,86.27,0,0,1-1,13.69,35.24,35.24,0,0,1-4.7,13,26.79,26.79,0,0,1-10.27,9.61C691.58,84,686.15,85.19,679.73,85.19Zm.08-50a2.81,2.81,0,0,0-.19.39,13.72,13.72,0,0,0-.84,3.84,67.07,67.07,0,0,0-.32,6.89c0,2.32.08,4.52.24,6.52a16.58,16.58,0,0,0,.77,4,4.6,4.6,0,0,0,.23.55,6.8,6.8,0,0,0,.48-1.05,19.54,19.54,0,0,0,.93-4.62c.21-2.21.32-4.6.32-7.11s-.08-4.68-.24-6.53a13,13,0,0,0-.55-3A3.31,3.31,0,0,0,679.81,35.15Z"/><path class="cls-2" d="M680.34,14.35q7.74,0,12.53,2.51a18.94,18.94,0,0,1,7.47,6.77A26.42,26.42,0,0,1,704,33.52a72.79,72.79,0,0,1,.92,11.87,79.14,79.14,0,0,1-1,12.57,28.34,28.34,0,0,1-3.74,10.47,20,20,0,0,1-7.65,7.12q-4.87,2.64-12.79,2.64-8.26,0-13.19-2.42A17.71,17.71,0,0,1,659,69.13a25.55,25.55,0,0,1-3.39-10,94.6,94.6,0,0,1-.79-12.58c0-2.46.11-5,.31-7.47a44.11,44.11,0,0,1,1.23-7.34A30,30,0,0,1,659,25a19,19,0,0,1,4.53-5.54,20.72,20.72,0,0,1,6.94-3.74,31.88,31.88,0,0,1,9.85-1.36m-.61,50.21A6.1,6.1,0,0,0,684.12,63a10.72,10.72,0,0,0,2.64-4.26,26.19,26.19,0,0,0,1.32-6.33c.23-2.43.35-5,.35-7.78s-.09-5.07-.26-7.12a18.86,18.86,0,0,0-1.1-5.19,6.71,6.71,0,0,0-2.38-3.17,7,7,0,0,0-4-1.05A8.39,8.39,0,0,0,676,29.3a7.63,7.63,0,0,0-2.82,3.6,21.66,21.66,0,0,0-1.32,5.76,75.69,75.69,0,0,0-.35,7.61q0,3.78.27,7.08a22.76,22.76,0,0,0,1.14,5.8,9.3,9.3,0,0,0,2.5,4,6.36,6.36,0,0,0,4.36,1.45M680.34.35a45.62,45.62,0,0,0-14.23,2.07,34.78,34.78,0,0,0-11.59,6.33,33.29,33.29,0,0,0-7.81,9.57,44.14,44.14,0,0,0-3.88,9.88,58.14,58.14,0,0,0-1.63,9.73c-.24,2.87-.36,5.77-.36,8.6A107.93,107.93,0,0,0,641.76,61a39.6,39.6,0,0,0,5.33,15.46,31.63,31.63,0,0,0,13.28,11.88c5.28,2.59,11.61,3.85,19.36,3.85s14.14-1.46,19.45-4.33a33.79,33.79,0,0,0,12.9-12.08,42.3,42.3,0,0,0,5.65-15.58,93.31,93.31,0,0,0,1.14-14.81,88.29,88.29,0,0,0-1.1-14.14,40.47,40.47,0,0,0-5.57-15.07A33,33,0,0,0,699.36,4.45c-5.2-2.72-11.6-4.1-19-4.1Z"/><path class="cls-1" d="M729.23,86.42a26,26,0,0,1-13.55-3.34,24.29,24.29,0,0,1-8.54-8.61,33.41,33.41,0,0,1-4-11.06,64.64,64.64,0,0,1-1-11.43c0-3.38,0-6.12.05-8.23s0-3.67,0-4.91c0-1.42,0-2.44.05-3.22,0-.54,0-1,0-1.48,0-1.86.08-4,.23-6.28a39.18,39.18,0,0,1,1.24-7.54,20.81,20.81,0,0,1,3.62-7.47,12.1,12.1,0,0,1,9.73-4.71,13.67,13.67,0,0,1,9.22,3.22,16.46,16.46,0,0,1,4.51,6.46,25.5,25.5,0,0,1,1.59,6.63c0,.07,0,.14,0,.22V23.41c0-4.64,1.33-8.42,4-11.21A14,14,0,0,1,747,7.79,14.65,14.65,0,0,1,756.66,11a16.49,16.49,0,0,1,4.79,6.67,23.94,23.94,0,0,1,1.61,6.91c.17,1.93.25,3.71.25,5.3l-.18,35.73a42.28,42.28,0,0,1-.31,5,22.77,22.77,0,0,1-1.53,6,16.42,16.42,0,0,1-3.76,5.63,11.76,11.76,0,0,1-8.34,3.29,13.8,13.8,0,0,1-5.85-1.22c-.51-.24-1-.49-1.48-.76a21.25,21.25,0,0,1-4,1.83A27.23,27.23,0,0,1,729.23,86.42Zm3.55-53.84c0,2.25-.08,4.51-.16,6.75-.12,2.92-.17,5.9-.17,8.87,0,.51,0,1,0,1.49.07-.47.13-.95.18-1.41.16-1.45.27-2.81.32-4.06s.08-2.35.08-3c0-2.84-.08-5.68-.25-8.46Z"/><path class="cls-2" d="M747,14.79a7.91,7.91,0,0,1,5.19,1.54A9.6,9.6,0,0,1,755,20.2a17.48,17.48,0,0,1,1.14,4.92c.14,1.73.22,3.3.22,4.71l-.18,35.69a34.94,34.94,0,0,1-.26,4.18,15.92,15.92,0,0,1-1.06,4.18,9.28,9.28,0,0,1-2.15,3.25,4.79,4.79,0,0,1-3.47,1.32,6.82,6.82,0,0,1-2.9-.57,12.48,12.48,0,0,1-2.2-1.28c-.65-.47-1.19-.89-1.63-1.27a1.89,1.89,0,0,0-1.1-.57,1.25,1.25,0,0,0-1.05.74,6.35,6.35,0,0,1-1.5,1.59,11.39,11.39,0,0,1-3.25,1.58,20.63,20.63,0,0,1-6.33.75,19.07,19.07,0,0,1-9.94-2.33,17.41,17.41,0,0,1-6.11-6.16,26.42,26.42,0,0,1-3.12-8.75,57.53,57.53,0,0,1-.88-10.2q0-5,0-8.13c0-2.08,0-3.75,0-5s0-2.23,0-2.9.05-1.28.05-1.8q0-2.55.22-5.81a31.61,31.61,0,0,1,1-6.2,13.62,13.62,0,0,1,2.37-5,5.09,5.09,0,0,1,4.22-2,6.76,6.76,0,0,1,4.62,1.5,9.54,9.54,0,0,1,2.59,3.73,17.92,17.92,0,0,1,1.14,4.8,45.21,45.21,0,0,1,.27,4.74q0,4.57-.18,9.15c-.12,3-.17,6.1-.17,9.14q0,3.34.22,6a19,19,0,0,0,.88,4.61,6.22,6.22,0,0,0,1.93,2.95,5.32,5.32,0,0,0,3.39,1,4.6,4.6,0,0,0,3.2-1.23,9.42,9.42,0,0,0,2.25-3.21,25.14,25.14,0,0,0,1.45-4.44A40.47,40.47,0,0,0,739.6,49c.18-1.61.3-3.12.35-4.53S740,42,740,41.17q0-4.48-.26-8.88t-.27-8.88c0-2.82.69-4.95,2.07-6.42a7.11,7.11,0,0,1,5.41-2.2m0-14a21.18,21.18,0,0,0-15.11,6.1c-.29-.27-.58-.54-.88-.8a20.56,20.56,0,0,0-13.82-4.95,19,19,0,0,0-15.24,7.4,27.51,27.51,0,0,0-4.87,10,45.34,45.34,0,0,0-1.46,8.89c-.17,2.46-.25,4.73-.25,6.75,0,.21,0,.6,0,1.2,0,.85-.06,2-.06,3.5,0,1.17,0,2.75,0,4.82s-.05,4.81-.05,8.32a72.12,72.12,0,0,0,1.1,12.67A40.19,40.19,0,0,0,701.1,78a31.27,31.27,0,0,0,11,11.07,32.77,32.77,0,0,0,17.16,4.34,33.46,33.46,0,0,0,10.83-1.49c.66-.23,1.29-.46,1.89-.71a21.05,21.05,0,0,0,7.24,1.23,18.88,18.88,0,0,0,13.2-5.25,23.45,23.45,0,0,0,5.38-8,29.71,29.71,0,0,0,2-7.84,49.1,49.1,0,0,0,.36-5.78l.18-35.66v-.07c0-1.81-.09-3.73-.27-5.88A31.13,31.13,0,0,0,768,15a23.28,23.28,0,0,0-6.82-9.46A21.54,21.54,0,0,0,747,.79Z"/><path class="cls-1" d="M781.89,86c-9.65,0-15.11-4.41-18-8.1-3.78-4.85-5.7-11.23-5.7-18.95,0-1.83,0-3.39.09-4.77s.29-5.86.34-7A10.25,10.25,0,0,1,754.37,44c-1.75-2.12-2.6-5-2.6-8.83a13.73,13.73,0,0,1,3.69-9.75,12.58,12.58,0,0,1,4.14-2.93V20.42a11.35,11.35,0,0,1,2.1-6.68A13.54,13.54,0,0,1,765.79,10a16.18,16.18,0,0,1,4.75-1.84,20.59,20.59,0,0,1,4.15-.46,15.17,15.17,0,0,1,9.58,3.24,12.77,12.77,0,0,1,4.78,9.7h2.87a11.87,11.87,0,0,1,9,4,13.36,13.36,0,0,1,3.23,9.11,14.43,14.43,0,0,1-.64,4.13,16.33,16.33,0,0,1-1.79,4,13.55,13.55,0,0,1-3.28,3.62,10.79,10.79,0,0,1-1.67,1,14.65,14.65,0,0,1,5.15,3,13.65,13.65,0,0,1,4.51,10.44A31.53,31.53,0,0,1,804.58,71a23.19,23.19,0,0,1-5.39,8.46,21.7,21.7,0,0,1-8.14,5A27.75,27.75,0,0,1,781.89,86Z"/><path class="cls-2" d="M774.68,14.7a8.17,8.17,0,0,1,5.24,1.72,6.19,6.19,0,0,1,2.15,5.14,13.68,13.68,0,0,1-.13,1.67,12.13,12.13,0,0,0-.09,2.07,4.14,4.14,0,0,0,.4,1.71,1.33,1.33,0,0,0,1.32.71h1.75c.76,0,1.56,0,2.38,0s1.62,0,2.42,0h1.8a4.78,4.78,0,0,1,3.74,1.63,6.45,6.45,0,0,1,1.45,4.44,7.48,7.48,0,0,1-.36,2.15,8.85,8.85,0,0,1-1,2.24,6.39,6.39,0,0,1-1.58,1.76,3.44,3.44,0,0,1-2.15.7h-7.74a11.87,11.87,0,0,0-1.76.09q-1.05.09-1.23,1.32a29.63,29.63,0,0,0-.48,7.39c.14,2.46.22,4.92.22,7.38,0,.47,0,1.13,0,2a14.8,14.8,0,0,0,.31,2.55,6.68,6.68,0,0,0,.83,2.2,1.89,1.89,0,0,0,1.72.92,1.59,1.59,0,0,0,1.36-.66,5.56,5.56,0,0,0,.79-1.76,15.78,15.78,0,0,0,.48-2.46c.12-.91.21-1.8.27-2.68a4.33,4.33,0,0,1,1.58-3,5.14,5.14,0,0,1,3.43-1.18,7.71,7.71,0,0,1,5.36,2,6.67,6.67,0,0,1,2.2,5.23A24.31,24.31,0,0,1,798,68.51a16.19,16.19,0,0,1-3.74,5.94,14.68,14.68,0,0,1-5.54,3.43,20.82,20.82,0,0,1-6.86,1.1q-8.26,0-12.48-5.41t-4.22-14.64q0-2.55.09-4.44c.05-1.26.11-2.48.17-3.65s.12-2.4.18-3.69.09-2.76.09-4.4c0-.88-.19-1.42-.58-1.63a3.09,3.09,0,0,0-1.45-.3h-1.31a3.21,3.21,0,0,1-2.6-1.23c-.67-.82-1-2.29-1-4.4a6.85,6.85,0,0,1,1.76-4.92,5.83,5.83,0,0,1,4.4-1.85h1c.29,0,.47-.23.53-.7a36,36,0,0,0,.18-3.65V20.42a4.33,4.33,0,0,1,.79-2.6,6.34,6.34,0,0,1,2-1.8A8.77,8.77,0,0,1,772,15a13.38,13.38,0,0,1,2.68-.31m0-14a27.52,27.52,0,0,0-5.58.61A22.9,22.9,0,0,0,762.23,4,20.47,20.47,0,0,0,756,9.64a18.14,18.14,0,0,0-3.34,8.9,21.39,21.39,0,0,0-2.3,2.07,20.71,20.71,0,0,0-5.62,14.58c0,5.51,1.37,9.85,4.2,13.29a17.33,17.33,0,0,0,2.46,2.46c0,.93-.09,1.91-.14,2.91-.07,1.47-.1,3.14-.1,5.08,0,9.32,2.42,17.15,7.18,23.25,3.85,4.93,11,10.8,23.52,10.8a34.63,34.63,0,0,0,11.45-1.88,28.49,28.49,0,0,0,10.76-6.66,30.08,30.08,0,0,0,7-11,38.27,38.27,0,0,0,2.27-13.57,20.8,20.8,0,0,0-5.69-14.53,23.18,23.18,0,0,0,2.48-5.54,21.63,21.63,0,0,0,.93-6.13,20.19,20.19,0,0,0-5-13.76,18.72,18.72,0,0,0-11.4-6.12,19.25,19.25,0,0,0-6.08-8.36,22.14,22.14,0,0,0-14-4.76Z"/><path class="cls-1" d="M845.82,84.66c-7.26,0-12.93-1.39-17.32-4.26a25.66,25.66,0,0,1-9.6-11.07,39.77,39.77,0,0,1-3.28-13.6c-.3-4.29-.46-8.69-.46-13.07,0-3.9.08-7.6.23-11a51.82,51.82,0,0,1,1.34-10.1,20.66,20.66,0,0,1,4.35-8.89,13.52,13.52,0,0,1,10.58-4.54A13.08,13.08,0,0,1,841,11.55,16.33,16.33,0,0,1,845.12,18c.13.37.25.74.36,1.12a13.26,13.26,0,0,1,4.19-7.69,14.76,14.76,0,0,1,10-3.68A15.82,15.82,0,0,1,868.14,10a14.63,14.63,0,0,1,5.43,6,21.82,21.82,0,0,1,2,7.1,57.75,57.75,0,0,1,.41,7.11v8.53c0,3.16-.06,6.4-.18,9.62a81.06,81.06,0,0,1-1,9.88,46,46,0,0,1-2.6,9.54,27.86,27.86,0,0,1-5.4,8.71,24.59,24.59,0,0,1-9,6.1A32.17,32.17,0,0,1,845.82,84.66Z"/><path class="cls-2" d="M859.71,14.79a9,9,0,0,1,4.75,1.14,7.68,7.68,0,0,1,2.85,3.17,14.91,14.91,0,0,1,1.37,4.84,51.36,51.36,0,0,1,.35,6.24v8.53c0,3.1-.06,6.23-.18,9.36a73,73,0,0,1-.88,9,38.77,38.77,0,0,1-2.2,8.09,20.71,20.71,0,0,1-4,6.55,17.68,17.68,0,0,1-6.46,4.36,25.32,25.32,0,0,1-9.45,1.58q-8.72,0-13.5-3.12a18.73,18.73,0,0,1-7-8.09,32.89,32.89,0,0,1-2.68-11.21q-.44-6.24-.44-12.58c0-3.81.08-7.37.22-10.68a45.57,45.57,0,0,1,1.15-8.75,13.73,13.73,0,0,1,2.81-5.93,6.69,6.69,0,0,1,5.32-2.16,6.25,6.25,0,0,1,4.48,1.5,9.32,9.32,0,0,1,2.38,3.73,18.18,18.18,0,0,1,1,4.8q.18,2.55.18,4.74,0,4.57-.18,9.15t-.17,9.14c0,1.41.06,2.92.17,4.53a20.21,20.21,0,0,0,.84,4.53,9.64,9.64,0,0,0,1.89,3.52,4.22,4.22,0,0,0,3.34,1.4,5.52,5.52,0,0,0,4.09-1.45,9,9,0,0,0,2.15-4.26,33.49,33.49,0,0,0,.84-6.9q.14-4.09.13-9.37c0-3.05-.09-6.06-.26-9.05s-.27-6-.27-9.06a6.92,6.92,0,0,1,2.11-5.41,7.76,7.76,0,0,1,5.37-1.89m0-14A21.68,21.68,0,0,0,845.27,6a20,20,0,0,0-13.61-4.88,20.69,20.69,0,0,0-15.84,6.92,27.57,27.57,0,0,0-5.89,11.85,59.31,59.31,0,0,0-1.53,11.46c-.16,3.48-.24,7.29-.24,11.29,0,4.55.16,9.11.48,13.56a46.53,46.53,0,0,0,3.88,16,32.6,32.6,0,0,0,12.16,14.06c5.56,3.62,12.48,5.39,21.14,5.39a39.12,39.12,0,0,0,14.7-2.61A31.58,31.58,0,0,0,872,81.21a34.82,34.82,0,0,0,6.76-10.89,53.31,53.31,0,0,0,3-11,87.43,87.43,0,0,0,1.05-10.74c.12-3.31.19-6.64.19-9.89V30.18a65.84,65.84,0,0,0-.46-8,28.85,28.85,0,0,0-2.73-9.36,21.87,21.87,0,0,0-8-8.82A22.69,22.69,0,0,0,859.71.79Z"/><path class="cls-1" d="M894.26,85.1A41.49,41.49,0,0,1,884.94,84a27.79,27.79,0,0,1-9-3.79,22.17,22.17,0,0,1-7-7.34,21.45,21.45,0,0,1-2.82-11.08,19.88,19.88,0,0,1,.75-5.46,16.17,16.17,0,0,1,2.47-5.19,14.91,14.91,0,0,1,2.43-2.64,27.34,27.34,0,0,1-1.64-2.44,20.89,20.89,0,0,1-2.78-10.82,31.26,31.26,0,0,1,1.58-9.8,26.5,26.5,0,0,1,5.14-9.07,26,26,0,0,1,8.68-6.5,28.19,28.19,0,0,1,12.09-2.47,29.67,29.67,0,0,1,10.8,1.88,25.08,25.08,0,0,1,8.48,5.4,23.7,23.7,0,0,1,5.4,8.08,25.29,25.29,0,0,1,1.84,9.58,17.47,17.47,0,0,1-3.29,10.88,12.26,12.26,0,0,1-1,1.14,28.39,28.39,0,0,1,2.55,3.32,19.39,19.39,0,0,1,3,10.77,25.91,25.91,0,0,1-2.46,11.35,25.34,25.34,0,0,1-6.55,8.48,28.2,28.2,0,0,1-9.1,5.08A31.86,31.86,0,0,1,894.26,85.1Z"/><path class="cls-2" d="M894.88,14.44a22.56,22.56,0,0,1,8.26,1.41,17.63,17.63,0,0,1,6.11,3.87,16.74,16.74,0,0,1,3.83,5.71,18.29,18.29,0,0,1,1.32,7A10.68,10.68,0,0,1,912.55,39c-1.23,1.62-3.17,2.42-5.8,2.42-2.11,0-3.64-.52-4.58-1.58a5.63,5.63,0,0,1-1.4-3.87,10.52,10.52,0,0,0-.53-3.56A8.17,8.17,0,0,0,898.92,30a4.89,4.89,0,0,0-1.76-1.4,4.18,4.18,0,0,0-1.76-.44,4.56,4.56,0,0,0-3.82,1.62,7.2,7.2,0,0,0-1.28,4.53,3.69,3.69,0,0,0,1.9,3A34,34,0,0,0,896.9,40q2.8,1.37,6.11,2.86a31.26,31.26,0,0,1,6.11,3.65,20.29,20.29,0,0,1,4.7,5,12.47,12.47,0,0,1,1.9,7A18.93,18.93,0,0,1,914,66.8,18.41,18.41,0,0,1,909.21,73a21.23,21.23,0,0,1-6.86,3.83,24.9,24.9,0,0,1-8.09,1.32,34.4,34.4,0,0,1-7.74-.88,20.68,20.68,0,0,1-6.72-2.82A15.05,15.05,0,0,1,875,69.35a14.43,14.43,0,0,1-1.85-7.52,13.13,13.13,0,0,1,.48-3.56,9.29,9.29,0,0,1,1.41-3,7.86,7.86,0,0,1,2.2-2.07,5.37,5.37,0,0,1,2.86-.79,8.17,8.17,0,0,1,3.51.71,5.36,5.36,0,0,1,2.46,2.72,26.86,26.86,0,0,1,1.15,2.64,13.57,13.57,0,0,0,1.32,2.64,6.75,6.75,0,0,0,2.06,2.06A6.08,6.08,0,0,0,894,64a9.69,9.69,0,0,0,1.54-.13,4.71,4.71,0,0,0,1.53-.53,3.75,3.75,0,0,0,1.19-1,3,3,0,0,0,.49-1.81,4.09,4.09,0,0,0-1.81-3.25,26.85,26.85,0,0,0-4.53-2.77l-5.84-3a32.83,32.83,0,0,1-5.85-3.78,19.26,19.26,0,0,1-4.53-5.23,14,14,0,0,1-1.8-7.25,24.2,24.2,0,0,1,1.23-7.61A19.31,19.31,0,0,1,879.4,21a19.08,19.08,0,0,1,6.38-4.75,21.19,21.19,0,0,1,9.1-1.8m0-14a35,35,0,0,0-15.07,3.14,32.84,32.84,0,0,0-11,8.25,33.44,33.44,0,0,0-6.5,11.46,38.33,38.33,0,0,0-1.93,12,28.25,28.25,0,0,0,2.78,12.58,23.27,23.27,0,0,0-3,6.62,26.94,26.94,0,0,0-1,7.35A28.36,28.36,0,0,0,863,76.48a29,29,0,0,0,9.16,9.63,34.63,34.63,0,0,0,11.24,4.75,48.45,48.45,0,0,0,10.9,1.24A39.08,39.08,0,0,0,906.87,90a35.06,35.06,0,0,0,11.33-6.35,32.31,32.31,0,0,0,8.37-10.8,32.87,32.87,0,0,0,3.15-14.39,26.39,26.39,0,0,0-4-14.28,25.73,25.73,0,0,0,2.64-11.83,32.29,32.29,0,0,0-2.35-12.21,30.85,30.85,0,0,0-7-10.44,31.8,31.8,0,0,0-10.84-6.92A36.43,36.43,0,0,0,894.88.44Z"/><path class="cls-1" d="M593.65,77.13a6.51,6.51,0,0,1-4.57-1.45,9,9,0,0,1-2.38-3.61,19.36,19.36,0,0,1-1.05-4.7c-.18-1.7-.37-3.27-.57-4.7a14.86,14.86,0,0,0-.93-3.61A2.14,2.14,0,0,0,582,57.61h-5c-1.7,0-2.86.34-3.47,1a8.84,8.84,0,0,0-1.63,3.3c-.41,1.41-.79,3-1.14,4.79a30.32,30.32,0,0,1-1.45,5.06,11.64,11.64,0,0,1-2.59,4A6.41,6.41,0,0,1,562,77.48a5.28,5.28,0,0,1-3.78-1.32A8.11,8.11,0,0,1,556.11,73a14.8,14.8,0,0,1-.88-4.08q-.18-2.2-.18-4c0-2.4.16-5.31.48-8.71s.85-7,1.59-10.72a89.25,89.25,0,0,1,2.94-11.17,49.44,49.44,0,0,1,4.53-10A24.3,24.3,0,0,1,571,17.17a13.81,13.81,0,0,1,8.44-2.73,13.21,13.21,0,0,1,5.84,1.27,16.31,16.31,0,0,1,4.62,3.39,25.29,25.29,0,0,1,3.56,4.75c1,1.76,2,3.51,2.77,5.27a61.59,61.59,0,0,1,5.06,17.94,157.49,157.49,0,0,1,1.09,18.73,15.6,15.6,0,0,1-.52,3.95,12.9,12.9,0,0,1-1.59,3.7,8.27,8.27,0,0,1-2.68,2.68A7.29,7.29,0,0,1,593.65,77.13Zm-18.9-32.71c0,.71.45,1.23,1.36,1.58a7.6,7.6,0,0,0,3,.49,8.4,8.4,0,0,0,3-.62c.9-.38,1.36-.92,1.36-1.62a40.9,40.9,0,0,0-1.06-8.58,19.17,19.17,0,0,0-1.27-3.82c-.5-1.06-1-1.58-1.63-1.58s-1.17.48-1.76,1.45a16.27,16.27,0,0,0-1.54,3.6,41.23,41.23,0,0,0-1.09,4.62A25,25,0,0,0,574.75,44.42Z"/><path class="cls-1" d="M651.5,51.81a41.54,41.54,0,0,1-1.14,9.63,27,27,0,0,1-3.65,8.61,20.06,20.06,0,0,1-6.37,6.2,17.7,17.7,0,0,1-9.41,2.38,9,9,0,0,1-3.91-.71,8.32,8.32,0,0,1-2.33-1.58,12.29,12.29,0,0,1-1.37-1.58,1.31,1.31,0,0,0-1-.71,1.21,1.21,0,0,0-1,.49,8.73,8.73,0,0,0-.71,1.18,5.36,5.36,0,0,1-1.4,1.67,7.23,7.23,0,0,1-1.89,1.1,9.66,9.66,0,0,1-2.07.57,11.14,11.14,0,0,1-1.85.18,5.51,5.51,0,0,1-2-.48A6,6,0,0,1,609.08,77a11.41,11.41,0,0,1-1.89-3.69,19.76,19.76,0,0,1-.79-6.15v-30c0-1,0-2.35,0-3.91s0-3.19.09-4.92a44.56,44.56,0,0,1,.57-5.15,17.48,17.48,0,0,1,1.41-4.57,8.87,8.87,0,0,1,2.64-3.3A6.81,6.81,0,0,1,615.28,14a12.22,12.22,0,0,1,4.26.62,5.13,5.13,0,0,1,2.47,1.8,7.42,7.42,0,0,1,1.14,3,26.18,26.18,0,0,1,.31,4.26c0,.76,0,1.6-.09,2.51a13.68,13.68,0,0,0,0,2.5,4.22,4.22,0,0,0,.62,1.89,1.69,1.69,0,0,0,1.54.75,4.14,4.14,0,0,0,1.84-.48c.65-.32,1.32-.69,2-1.1a18,18,0,0,1,2.25-1.1,6.58,6.58,0,0,1,2.5-.48,14.18,14.18,0,0,1,7.48,2,17.46,17.46,0,0,1,5.45,5.28A24.66,24.66,0,0,1,650.4,43,35,35,0,0,1,651.5,51.81Zm-22.68-7.92q-.8,0-1.8.09a6.7,6.7,0,0,0-1.89.44,4.47,4.47,0,0,0-1.5,1A2.14,2.14,0,0,0,623,47c0,1.76,0,3.24,0,4.44s0,2.68,0,4.44a7.17,7.17,0,0,0,1.14,4.35c.76,1,2.2,1.54,4.31,1.54a4.51,4.51,0,0,0,2.77-.88,7.81,7.81,0,0,0,2-2.24,11.42,11.42,0,0,0,1.28-3,12.58,12.58,0,0,0,.44-3.17,12.23,12.23,0,0,0-1.37-6.2C632.61,44.67,631.05,43.89,628.82,43.89Z"/><path class="cls-1" d="M704.87,45.39a79.14,79.14,0,0,1-1,12.57,28.34,28.34,0,0,1-3.74,10.47,20,20,0,0,1-7.65,7.12q-4.87,2.64-12.79,2.64-8.26,0-13.19-2.42A17.71,17.71,0,0,1,659,69.13a25.38,25.38,0,0,1-3.38-10,92.87,92.87,0,0,1-.8-12.58c0-2.46.11-5,.31-7.47a44.11,44.11,0,0,1,1.23-7.34A30,30,0,0,1,659,25a19,19,0,0,1,4.53-5.54,20.72,20.72,0,0,1,6.94-3.74,31.88,31.88,0,0,1,9.85-1.36q7.74,0,12.53,2.51a19,19,0,0,1,7.48,6.77,26.59,26.59,0,0,1,3.6,9.89A72.79,72.79,0,0,1,704.87,45.39ZM679.73,64.56A6.1,6.1,0,0,0,684.12,63a10.72,10.72,0,0,0,2.64-4.26,26.68,26.68,0,0,0,1.32-6.33c.23-2.43.35-5,.35-7.78s-.09-5.07-.26-7.12a18.86,18.86,0,0,0-1.1-5.19,6.71,6.71,0,0,0-2.38-3.17,7,7,0,0,0-4-1.05A8.39,8.39,0,0,0,676,29.3a7.63,7.63,0,0,0-2.82,3.6,21.66,21.66,0,0,0-1.32,5.76,75.69,75.69,0,0,0-.35,7.61q0,3.78.27,7.08a22.76,22.76,0,0,0,1.14,5.8,9.3,9.3,0,0,0,2.5,4A6.36,6.36,0,0,0,679.73,64.56Z"/><path class="cls-1" d="M749.19,78.45a6.82,6.82,0,0,1-2.9-.57,12.48,12.48,0,0,1-2.2-1.28c-.65-.47-1.19-.89-1.63-1.27a1.89,1.89,0,0,0-1.1-.57,1.25,1.25,0,0,0-1.05.74,6.17,6.17,0,0,1-1.5,1.59,11.39,11.39,0,0,1-3.25,1.58,20.63,20.63,0,0,1-6.33.75,19.07,19.07,0,0,1-9.94-2.33,17.41,17.41,0,0,1-6.11-6.16,26.42,26.42,0,0,1-3.12-8.75,57.53,57.53,0,0,1-.88-10.2q0-5,0-8.13c0-2.08,0-3.75,0-5s0-2.23,0-2.9.05-1.28.05-1.81c0-1.69.07-3.63.22-5.8a31.61,31.61,0,0,1,1-6.2,13.79,13.79,0,0,1,2.37-5,5.09,5.09,0,0,1,4.22-2,6.78,6.78,0,0,1,4.62,1.5,9.43,9.43,0,0,1,2.59,3.73,17.92,17.92,0,0,1,1.14,4.8,45.21,45.21,0,0,1,.27,4.74q0,4.57-.18,9.15c-.12,3-.17,6.1-.17,9.14q0,3.34.22,6a19,19,0,0,0,.88,4.61,6.22,6.22,0,0,0,1.93,2.95,5.32,5.32,0,0,0,3.39,1,4.6,4.6,0,0,0,3.2-1.23,9.42,9.42,0,0,0,2.25-3.21,25.14,25.14,0,0,0,1.45-4.44A40.47,40.47,0,0,0,739.6,49c.18-1.61.3-3.12.35-4.53S740,42,740,41.17q0-4.48-.26-8.88c-.18-2.93-.26-5.89-.26-8.88,0-2.82.68-4.95,2.06-6.42a7.07,7.07,0,0,1,5.41-2.2,7.91,7.91,0,0,1,5.19,1.54A9.6,9.6,0,0,1,755,20.2a17.48,17.48,0,0,1,1.14,4.92c.14,1.73.22,3.3.22,4.71l-.18,35.69a34.94,34.94,0,0,1-.26,4.18,15.92,15.92,0,0,1-1.06,4.18,9.28,9.28,0,0,1-2.15,3.25A4.79,4.79,0,0,1,749.19,78.45Z"/><path class="cls-1" d="M781,56.73c0,.47,0,1.13,0,2a14.8,14.8,0,0,0,.31,2.55,6.68,6.68,0,0,0,.83,2.2,1.89,1.89,0,0,0,1.72.92,1.59,1.59,0,0,0,1.36-.66,5.34,5.34,0,0,0,.79-1.76,15.78,15.78,0,0,0,.48-2.46c.12-.91.21-1.8.27-2.68a4.33,4.33,0,0,1,1.58-3,5.14,5.14,0,0,1,3.43-1.18,7.71,7.71,0,0,1,5.36,2,6.67,6.67,0,0,1,2.2,5.23A24.31,24.31,0,0,1,798,68.51a16.19,16.19,0,0,1-3.74,5.94,14.68,14.68,0,0,1-5.54,3.43,20.82,20.82,0,0,1-6.86,1.1q-8.26,0-12.48-5.41t-4.22-14.64q0-2.55.09-4.44c.05-1.26.11-2.48.17-3.65s.12-2.4.18-3.69.09-2.76.09-4.4c0-.88-.19-1.42-.58-1.63a3.09,3.09,0,0,0-1.45-.3h-1.31a3.21,3.21,0,0,1-2.6-1.23c-.67-.82-1-2.29-1-4.4a6.85,6.85,0,0,1,1.76-4.92,5.83,5.83,0,0,1,4.4-1.85h1c.29,0,.47-.23.53-.7a36,36,0,0,0,.18-3.65V20.42a4.33,4.33,0,0,1,.79-2.6,6.34,6.34,0,0,1,2-1.8A8.77,8.77,0,0,1,772,15a13.38,13.38,0,0,1,2.68-.31,8.12,8.12,0,0,1,5.24,1.72,6.19,6.19,0,0,1,2.15,5.14,13.68,13.68,0,0,1-.13,1.67,12.13,12.13,0,0,0-.09,2.07,4.14,4.14,0,0,0,.4,1.71,1.33,1.33,0,0,0,1.32.71h1.75c.76,0,1.56,0,2.38,0s1.62,0,2.42,0h1.8a4.78,4.78,0,0,1,3.74,1.63,6.45,6.45,0,0,1,1.45,4.44,7.48,7.48,0,0,1-.36,2.15,8.85,8.85,0,0,1-1,2.24,6.54,6.54,0,0,1-1.58,1.76,3.44,3.44,0,0,1-2.15.7h-7.74a11.87,11.87,0,0,0-1.76.09q-1.05.09-1.23,1.32a29.63,29.63,0,0,0-.48,7.39C780.94,51.81,781,54.27,781,56.73Z"/><path class="cls-1" d="M845.82,77.66q-8.72,0-13.5-3.12a18.73,18.73,0,0,1-7-8.09,32.89,32.89,0,0,1-2.68-11.21q-.44-6.24-.44-12.58c0-3.81.08-7.37.22-10.68a45.57,45.57,0,0,1,1.15-8.75,13.73,13.73,0,0,1,2.81-5.93,6.69,6.69,0,0,1,5.32-2.16,6.25,6.25,0,0,1,4.48,1.5,9.32,9.32,0,0,1,2.38,3.73,18.18,18.18,0,0,1,1,4.8q.18,2.55.18,4.74,0,4.57-.18,9.15t-.17,9.14c0,1.41.06,2.92.17,4.53a20.21,20.21,0,0,0,.84,4.53,9.64,9.64,0,0,0,1.89,3.52,4.22,4.22,0,0,0,3.34,1.4,5.52,5.52,0,0,0,4.09-1.45,9,9,0,0,0,2.15-4.26,33.49,33.49,0,0,0,.84-6.9q.14-4.09.13-9.37,0-4.58-.26-9.05t-.27-9.06a6.92,6.92,0,0,1,2.11-5.41,7.76,7.76,0,0,1,5.37-1.89,9,9,0,0,1,4.75,1.14,7.68,7.68,0,0,1,2.85,3.17,14.91,14.91,0,0,1,1.37,4.84,51.36,51.36,0,0,1,.35,6.24v8.53c0,3.1-.06,6.23-.18,9.36a73,73,0,0,1-.88,9,38.77,38.77,0,0,1-2.2,8.09,20.71,20.71,0,0,1-4,6.55,17.68,17.68,0,0,1-6.46,4.36A25.32,25.32,0,0,1,845.82,77.66Z"/><path class="cls-1" d="M906.75,41.43c-2.11,0-3.64-.52-4.58-1.58a5.65,5.65,0,0,1-1.4-3.87,10.52,10.52,0,0,0-.53-3.56A8.17,8.17,0,0,0,898.92,30a4.89,4.89,0,0,0-1.76-1.4,4.18,4.18,0,0,0-1.76-.44,4.56,4.56,0,0,0-3.82,1.62,7.2,7.2,0,0,0-1.28,4.53,3.7,3.7,0,0,0,1.89,3A34.74,34.74,0,0,0,896.9,40q2.8,1.37,6.11,2.86a31.26,31.26,0,0,1,6.11,3.65,20.29,20.29,0,0,1,4.7,5,12.47,12.47,0,0,1,1.9,7A18.93,18.93,0,0,1,914,66.8,18.41,18.41,0,0,1,909.21,73a21.23,21.23,0,0,1-6.86,3.83,24.9,24.9,0,0,1-8.09,1.32,34.4,34.4,0,0,1-7.74-.88,20.68,20.68,0,0,1-6.72-2.82A15.05,15.05,0,0,1,875,69.35a14.43,14.43,0,0,1-1.85-7.52,13.13,13.13,0,0,1,.48-3.56,9.29,9.29,0,0,1,1.41-3,7.73,7.73,0,0,1,2.2-2.07,5.37,5.37,0,0,1,2.86-.79,8.17,8.17,0,0,1,3.51.71,5.36,5.36,0,0,1,2.46,2.72,26.86,26.86,0,0,1,1.15,2.64,13.57,13.57,0,0,0,1.32,2.64,6.75,6.75,0,0,0,2.06,2.06A6.08,6.08,0,0,0,894,64a9.69,9.69,0,0,0,1.54-.13,4.71,4.71,0,0,0,1.53-.53,3.75,3.75,0,0,0,1.19-1,3,3,0,0,0,.49-1.81,4.09,4.09,0,0,0-1.81-3.25,26.85,26.85,0,0,0-4.53-2.77l-5.84-3a32.83,32.83,0,0,1-5.85-3.78,19.26,19.26,0,0,1-4.53-5.23,14,14,0,0,1-1.8-7.25,24.2,24.2,0,0,1,1.23-7.61A19.31,19.31,0,0,1,879.4,21a19.08,19.08,0,0,1,6.38-4.75,21.19,21.19,0,0,1,9.1-1.8,22.56,22.56,0,0,1,8.26,1.41,17.63,17.63,0,0,1,6.11,3.87,16.74,16.74,0,0,1,3.83,5.71,18.29,18.29,0,0,1,1.32,7A10.68,10.68,0,0,1,912.55,39C911.32,40.63,909.38,41.43,906.75,41.43Z"/><line class="cls-3" x1="492.2" y1="52.82" y2="52.82"/><line class="cls-3" x1="1470.77" y1="52.82" x2="978.57" y2="52.82"/><path class="cls-4" d="M993,52.82A14.38,14.38,0,0,0,978.57,67.2a14.38,14.38,0,0,0-14.38-14.38,14.38,14.38,0,0,0,14.38-14.38A14.38,14.38,0,0,0,993,52.82Z"/><path class="cls-4" d="M506.58,52.82A14.38,14.38,0,0,0,492.2,67.2a14.38,14.38,0,0,0-14.38-14.38A14.38,14.38,0,0,0,492.2,38.44,14.38,14.38,0,0,0,506.58,52.82Z"/></g></g></svg>