<svg xmlns="http://www.w3.org/2000/svg" xmlns:xlink="http://www.w3.org/1999/xlink" viewBox="0 0 1920 1680.43"><defs><style>.cls-1{fill:none;}.cls-2{clip-path:url(#clip-path);}.cls-3{fill:url(#radial-gradient);}.cls-4{opacity:0.66;fill:url(#linear-gradient);}.cls-5{fill:url(#linear-gradient-2);}.cls-6{fill:url(#linear-gradient-3);}.cls-7{fill:url(#linear-gradient-4);}.cls-8{opacity:0.53;fill:url(#linear-gradient-5);}.cls-9{fill:#fff;}.cls-10{fill:#faf392;filter:url(#filter);}</style><clipPath id="clip-path"><rect class="cls-1" width="1920" height="1680.43"/></clipPath><radialGradient id="radial-gradient" cx="366.05" cy="-1570.84" r="2578.65" gradientTransform="translate(0 241.61) scale(1 1.21)" gradientUnits="userSpaceOnUse"><stop offset="0.42" stop-color="#7cb5e2"/><stop offset="0.55" stop-color="#82bae4"/><stop offset="0.72" stop-color="#92c8e8"/><stop offset="0.91" stop-color="#acdff0"/><stop offset="0.92" stop-color="#ade0f0"/></radialGradient><linearGradient id="linear-gradient" x1="1188.9" y1="-649.4" x2="1052.68" y2="-513.19" gradientTransform="matrix(0.94, -0.33, 0.33, 0.94, -638.33, 2096.65)" gradientUnits="userSpaceOnUse"><stop offset="0" stop-color="#fff"/><stop offset="0.3" stop-color="#f2fafc"/><stop offset="0.84" stop-color="#d0ecf5"/><stop offset="1" stop-color="#c4e7f3"/></linearGradient><linearGradient id="linear-gradient-2" x1="12104.19" y1="2403.6" x2="12018.23" y2="2489.57" gradientTransform="matrix(-1.04, -0.37, -0.36, 1.01, 15179.94, 2416.49)" xlink:href="#linear-gradient"/><linearGradient id="linear-gradient-3" x1="1172.08" y1="-1476.39" x2="1035.87" y2="-1340.18" xlink:href="#linear-gradient"/><linearGradient id="linear-gradient-4" x1="-7436.34" y1="5418.86" x2="-7332.78" y2="5522.42" gradientTransform="matrix(0.29, 0.2, -0.22, 0.31, 4999.41, 688.21)" gradientUnits="userSpaceOnUse"><stop offset="0" stop-color="#fff"/><stop offset="0.25" stop-color="#f7fcfd"/><stop offset="0.62" stop-color="#e1f3f9"/><stop offset="1" stop-color="#c4e7f3"/></linearGradient><linearGradient id="linear-gradient-5" x1="14730.92" y1="3910.63" x2="14369.55" y2="4396.83" gradientTransform="matrix(-0.5, -0.26, -0.24, 0.45, 9926.3, 3133.84)" gradientUnits="userSpaceOnUse"><stop offset="0.5" stop-color="#fff"/><stop offset="0.65" stop-color="#eaf6fb"/><stop offset="0.87" stop-color="#ceebf5"/><stop offset="1" stop-color="#c4e7f3"/></linearGradient><filter id="filter" x="1650.62" y="-217.06" width="457.92" height="480.24" filterUnits="userSpaceOnUse"><feOffset input="SourceAlpha"/><feGaussianBlur stdDeviation="30" result="blur"/><feFlood flood-color="#fdfbe3"/><feComposite operator="in" in2="blur"/><feComposite in="SourceGraphic"/></filter></defs><g id="Layer_2" data-name="Layer 2"><g id="Layer_1-2" data-name="Layer 1"><g class="cls-2"><rect class="cls-3" width="1920" height="1644.43"/><path class="cls-4" d="M1.62,1217.76S271.52,1367,546.06,1345l-124.31-38.36s38.39-68.51-23.95-72.83S348,1267.7,348,1267.7s104.64-83.18-7.61-123.47-123.28,41.93-123.28,41.93,59-52.21-23-147.15S-81.62,964.65-81.62,964.65Z"/><path class="cls-5" d="M1937.28,472.57S1751,572.14,1560.65,555.49l85.94-25.25s-27-46.74,16.21-49.27,34.68,23.31,34.68,23.31-73-57.11,4.6-83.75,85.66,29.23,85.66,29.23-41.15-35.8,15.15-99.71,190.71-48.73,190.71-48.73Z"/><path class="cls-6" d="M-291,444.11S-21.14,593.32,253.39,571.35L129.09,533s38.39-68.51-24-72.83-49.78,33.89-49.78,33.89S160,410.87,47.76,370.58-75.53,412.5-75.53,412.5s59-52.21-23-147.14S-374.28,191-374.28,191Z"/><path class="cls-7" d="M1646.79,944.15c-24,4-57.72,6-92.26-3.44l47.83-6.76s-.14-65.16,41.58-19.28c0,0-10.09-54.06,55.71-52.62,36.65.8,26.8,23.57,10.89,43.59C1693.94,926.51,1671.09,940.15,1646.79,944.15Z"/><path class="cls-8" d="M1418.57,1285.85l85.62,21.46s-4.76-51.19,34.15-32.16a90.72,90.72,0,0,1,11.37,6.53c-3.73-21.72,1.33-46,47.55-36.48,30.8,6.35,47.21,17.75,55.76,29.3,4.75-3.9,39.44-30.28,61.21-37.36,49.6-16.12,115,12.27,153.93,33.5,45.1-59.67,83.31,46.19,83.31,46.19l110.47-34.62c-128.11,106.72-204.09,121-282.54,120.67C1686.77,1402.51,1563,1381.82,1418.57,1285.85Z"/><path class="cls-9" d="M271.91,353.13l35.67-18a32.26,32.26,0,0,0-20.32,4.35c-8-.95-21.9,5.67-21.9,5.67l16.09-1.75A52.2,52.2,0,0,0,271.91,353.13Z"/><path class="cls-9" d="M322,356.28l35.67-18a30.16,30.16,0,0,0-12.25.95C339.23,334.9,322,335.9,322,335.9L340.56,341C329.13,346.21,322,356.28,322,356.28Z"/><path class="cls-9" d="M289.75,375.65,272.4,384.4l-2.94,1.48-15.37,7.75a52,52,0,0,1,14.24-13c-.7-4.69-.38-9.6,3.59-10.71l4.6-.84-2.32,8.61A30.92,30.92,0,0,1,289.75,375.65Z"/><path class="cls-9" d="M375.54,306.09l-17.35,8.75-2.94,1.48-15.37,7.74a52.19,52.19,0,0,1,14.24-13c-.7-4.7-.38-9.6,3.58-10.71l4.61-.85L360,308.14A30.81,30.81,0,0,1,375.54,306.09Z"/><path class="cls-9" d="M1323.3,132.58l35.67-18a32.39,32.39,0,0,0-20.32,4.35c-8-.94-21.9,5.68-21.9,5.68l16.09-1.76A52.06,52.06,0,0,0,1323.3,132.58Z"/><path class="cls-9" d="M1269.76,250.08l35.67-18a30.16,30.16,0,0,0-12.25.94c-6.23-4.33-23.42-3.34-23.42-3.34l18.52,5.14C1276.85,240,1269.76,250.08,1269.76,250.08Z"/><path class="cls-9" d="M1237.47,269.45l-17.35,8.75-2.94,1.48-15.37,7.74a52.19,52.19,0,0,1,14.24-13c-.7-4.7-.38-9.6,3.59-10.71l4.6-.85-2.32,8.62A30.81,30.81,0,0,1,1237.47,269.45Z"/><path class="cls-9" d="M1323.26,199.88l-17.35,8.75-2.94,1.49-15.37,7.74a52.15,52.15,0,0,1,14.24-13c-.7-4.69-.38-9.6,3.58-10.71l4.61-.84-2.32,8.62A30.79,30.79,0,0,1,1323.26,199.88Z"/><ellipse class="cls-10" cx="1879.6" cy="23" rx="138.86" ry="149.99"/></g></g></g></svg>