<svg xmlns="http://www.w3.org/2000/svg" viewBox="0 0 1961.8 145.64"><defs><style>.cls-1,.cls-2{fill:#fff;}.cls-1{stroke:#275893;stroke-miterlimit:10;stroke-width:9px;}.cls-3{fill:#275893;}</style></defs><g id="Layer_2" data-name="Layer 2"><g id="Layer_1-2" data-name="Layer 1"><path class="cls-1" d="M1957.3,5.25V38.9a6388.38,6388.38,0,0,1-951.39,74.66q-12.49,0-25,0t-25,0A6388.17,6388.17,0,0,1,4.5,38.9V5.25A6352,6352,0,0,0,956,80.31q12.42,0,24.86.06t24.86-.06A6352.19,6352.19,0,0,0,1957.3,5.25Z"/><rect class="cls-2" x="949.01" y="65.13" width="63.77" height="63.77" transform="translate(218.7 722.02) rotate(-45)"/><path class="cls-3" d="M980.9,55.46l9.21,9.21,15.65,15.64,7.48,7.49,9.22,9.21L980.9,138.57l-9.21-9.21-15.8-15.8-7.33-7.33L939.34,97l9.22-9.21L956,80.31l15.65-15.64,9.21-9.21m0-7.07-3.54,3.53-9.21,9.22L952.51,76.78,945,84.26l-9.21,9.22L932.27,97l3.54,3.54,9.21,9.22,7.33,7.33,15.8,15.79,9.21,9.22,3.54,3.53,3.54-3.53L1026,100.55l3.54-3.54L1026,93.48l-9.21-9.22-7.49-7.48L993.65,61.14l-9.21-9.22-3.54-3.53Z"/><rect class="cls-2" x="939.54" y="88" width="18.03" height="18.03" transform="translate(209.23 699.15) rotate(-45)"/><path class="cls-3" d="M948.55,87.8,957.77,97l-9.22,9.21L939.34,97l9.21-9.22m0-7.07L945,84.27l-9.21,9.21L932.27,97l3.54,3.53,9.21,9.22,3.53,3.53,3.54-3.53,9.21-9.22L964.84,97l-3.54-3.54-9.21-9.21-3.54-3.54Z"/><rect class="cls-2" x="971.88" y="55.66" width="18.03" height="18.03" transform="translate(241.56 712.54) rotate(-45)"/><path class="cls-3" d="M980.9,55.46l9.21,9.21-9.21,9.21-9.21-9.21,9.21-9.21m0-7.07-3.54,3.53-9.21,9.21-3.54,3.54,3.54,3.54,9.21,9.21L980.9,81l3.54-3.54,9.21-9.21,3.54-3.54-3.54-3.54-9.21-9.21-3.54-3.53Z"/><rect class="cls-2" x="1004.23" y="88" width="18.03" height="18.03" transform="translate(228.17 744.88) rotate(-45)"/><path class="cls-3" d="M1013.24,87.8l9.21,9.21-9.21,9.22L1004,97l9.21-9.21m0-7.07-3.54,3.53-9.21,9.22L997,97l3.53,3.54,9.21,9.21,3.54,3.54,3.54-3.54,9.21-9.21,3.54-3.54L1026,93.48l-9.21-9.22-3.54-3.53Z"/><rect class="cls-2" x="971.88" y="120.34" width="18.03" height="18.03" transform="translate(195.85 731.51) rotate(-45)"/><path class="cls-3" d="M980.9,120.14l9.21,9.22-9.21,9.21-9.21-9.21,9.21-9.22m0-7.07-3.54,3.54-9.21,9.21-3.54,3.54,3.54,3.53,9.21,9.22,3.54,3.53,3.54-3.53,9.21-9.22,3.54-3.53-3.54-3.54-9.21-9.21-3.54-3.54Z"/><rect class="cls-3" x="973.57" y="89.68" width="14.66" height="14.66" transform="translate(218.7 722.01) rotate(-45)"/></g></g></svg>