<svg xmlns="http://www.w3.org/2000/svg" viewBox="0 0 1961.8 145.64"><defs><style>.cls-1,.cls-2{fill:#fff;}.cls-1{stroke:#275893;stroke-miterlimit:10;stroke-width:9px;}.cls-3{fill:#275893;}</style></defs><g id="Layer_2" data-name="Layer 2"><g id="Layer_1-2" data-name="Layer 1"><path class="cls-1" d="M1957.3,140.39V106.75a6387,6387,0,0,0-951.39-74.67q-12.49,0-25,0t-25,0A6386.83,6386.83,0,0,0,4.5,106.75v33.64A6352,6352,0,0,1,956,65.33q12.42,0,24.86,0t24.86,0A6352.19,6352.19,0,0,1,1957.3,140.39Z"/><rect class="cls-2" x="949.01" y="16.74" width="63.77" height="63.77" transform="translate(252.91 707.84) rotate(-45)"/><path class="cls-3" d="M980.9,7.07l41.56,41.56-9.22,9.21-7.48,7.49L990.11,81l-9.21,9.22L971.69,81,956,65.33l-7.48-7.49-9.22-9.21,9.22-9.22,7.33-7.33,15.8-15.79,9.21-9.22m0-7.07-3.54,3.54-9.21,9.21-15.8,15.8L945,35.88l-9.21,9.21-3.54,3.54,3.54,3.53L945,61.38l7.49,7.48,15.64,15.65,9.21,9.21,3.54,3.54,3.54-3.54,9.21-9.21,15.64-15.64,7.49-7.49,9.21-9.22,3.54-3.53L1026,45.09,984.44,3.54,980.9,0Z"/><rect class="cls-2" x="939.54" y="39.61" width="18.03" height="18.03" transform="translate(243.46 684.99) rotate(-45)"/><path class="cls-3" d="M948.55,39.41l9.22,9.22-9.22,9.21-9.21-9.21,9.21-9.22m0-7.07L945,35.88l-9.21,9.21-3.54,3.54,3.54,3.53L945,61.38l3.53,3.53,3.54-3.53,9.21-9.22,3.54-3.53-3.54-3.54-9.21-9.21-3.54-3.54Z"/><rect class="cls-2" x="971.88" y="71.96" width="18.03" height="18.03" transform="translate(230.04 717.31) rotate(-45)"/><path class="cls-3" d="M980.9,71.76,990.11,81l-9.21,9.22L971.69,81l9.21-9.21m0-7.07-3.54,3.53-9.21,9.22L964.61,81l3.54,3.54,9.21,9.21,3.54,3.54,3.54-3.54,9.21-9.21L997.19,81l-3.54-3.53-9.21-9.22-3.54-3.53Z"/><rect class="cls-2" x="1004.23" y="39.62" width="18.03" height="18.03" transform="translate(262.38 730.71) rotate(-45)"/><path class="cls-3" d="M1013.24,39.42l9.21,9.21-9.21,9.22L1004,48.63l9.21-9.21m0-7.07-3.54,3.53-9.21,9.22L997,48.63l3.53,3.54,9.21,9.21,3.54,3.54,3.54-3.54,9.21-9.21,3.53-3.54L1026,45.1l-9.21-9.22-3.54-3.53Z"/><rect class="cls-2" x="971.88" y="7.27" width="18.03" height="18.03" transform="translate(275.8 698.39) rotate(-45)"/><path class="cls-3" d="M980.9,7.07l9.21,9.22L980.9,25.5l-9.21-9.21,9.21-9.22m0-7.07-3.54,3.54-9.21,9.21-3.54,3.54,3.54,3.53L977.36,29l3.54,3.53L984.44,29l9.21-9.22,3.54-3.53-3.54-3.54-9.21-9.21L980.9,0Z"/><rect class="cls-3" x="973.57" y="41.3" width="14.66" height="14.66" transform="translate(252.91 707.84) rotate(-45)"/></g></g></svg>