<svg xmlns="http://www.w3.org/2000/svg" viewBox="0 0 1920 142.6"><defs><style>.cls-1{fill:#fff;}.cls-2{fill:#275893;}</style></defs><g id="Layer_2" data-name="Layer 2"><g id="Layer_1-2" data-name="Layer 1"><path class="cls-1" d="M1930.8,5.33l-2.64,33.54C1620,60.64,1309.33,72.12,993.43,72.81h-7.14l-24.54,0h-1.09q-12.27,0-24.55,0c-1.19,0-2.38,0-3.57,0H929C612.22,72.06,300.73,60.45-8.19,38.51L-10.83,5C299,27.1,611.41,38.81,929.12,39.55h3.53c1.18,0,2.37,0,3.55,0q12.19,0,24.41,0h1.19l24.41,0h7.07C1310.16,38.88,1621.79,27.3,1930.8,5.33Z"/><path class="cls-2" d="M988.8,35.07H933.61C618.81,34.38,302.54,22.82-11.19.44l.72,9.07C300,31.64,613,43.17,924.62,44.05c1.17,0,2.36,0,3.54,0h4.61c1.13,0,2.28,0,3.41,0,16.67,0,33.38,0,50,0h11.57c310.75-.82,622.91-12.25,932.66-34.18.23-3,.47-6.05.71-9.07C1618.21,23,1302.76,34.46,988.8,35.07Zm5.61,33.24h-5c-1,0-2.08,0-3.11,0-16.71,0-33.47,0-50.18,0-1,0-2.08,0-3.11,0h-5c-1.18,0-2.38,0-3.56,0C613.56,67.4,301.24,55.93-8.55,34q.36,4.53.71,9.07c312.6,22.15,627.72,33.58,941.36,34.28.86,0,1.71,0,2.58,0h4.54l15.51,0h10.1l15.51,0h4.54c.86,0,1.72,0,2.58,0,312.82-.63,627.11-12,938.93-33.93.24-3,.47-6,.71-9.07-309,21.81-620.5,33.13-930.55,34Z"/><path class="cls-1" d="M914.69,56.34Q937.27,33.71,960,11.16q22.72,22.55,45.3,45.18-22.72,22.46-45.3,45Q937.43,78.8,914.69,56.34Z"/><path class="cls-2" d="M1008.85,56.35Q992.67,40.11,976.4,23.92l-3.55-3.54-9.29-9.22L960,7.62q-16.08,15.94-32.08,31.93l-.47.46-3.54,3.54-.5.51-8.74,8.74-3.53,3.55,3.56,3.52,8.52,8.44.77.74,3.55,3.53.23.22,3.59,3.57,1,.95,11.36,11.29,3.55,3.53,9.23,9.21,3.54,3.53c1.18-1.18,2.36-2.35,3.53-3.53l9.24-9.21,3.54-3.53,11.36-11.29,4.56-4.52,4.54-4.49,8.52-8.44,3.57-3.52ZM990.69,67.27l-1.06,1-.72.72-3.81,3.79h0l-4.54,4.5-7.77,7.74L960,97.81l-9.24-9.21L949,86.84q-9-8.91-17.92-17.8l-.73-.72-1.05-1-1.78-1.76-9.28-9.19,9.23-9.24,1.78-1.77q8.94-8.94,17.91-17.86l1.78-1.76,1.77-1.78L960,14.7l9.28,9.21,1.78,1.78q15.38,15.3,30.69,30.63Z"/><path class="cls-1" d="M914.69,56.34q6.38-6.41,12.77-12.79l12.85,12.72L927.53,69.05Z"/><path class="cls-2" d="M940.3,52.74l-8.74-8.68-.54-.52-1.78-1.77L927.45,40l-3.54,3.54-.5.51-8.74,8.74-3.53,3.55,3.56,3.52,8.52,8.44.77.74,3.55,3.53,1.77-1.77L931.08,69l.71-.72,8.52-8.51c1.19-1.18,2.37-2.37,3.55-3.55ZM927.52,65.51l-9.28-9.19,9.23-9.24,9.29,9.19Z"/><path class="cls-1" d="M947.15,23.92,960,11.16l12.84,12.76Q966.41,30.28,960,36.66,953.58,30.28,947.15,23.92Z"/><path class="cls-2" d="M972.85,20.38l-9.29-9.22L960,7.62q-8.22,8.15-16.41,16.3l1.78,1.77,1.79,1.76,7.7,7.64c.52.53,1,1,1.58,1.57l3,2.94.59.59.59-.59,3-2.94,1.58-1.57,7.71-7.63h0l1.79-1.76,1.77-1.77ZM960,14.7l9.28,9.21L960,33.12l-9.29-9.21Z"/><path class="cls-1" d="M979.68,56.27l12.84-12.73,12.78,12.79Q998.88,62.69,992.46,69Z"/><path class="cls-2" d="M1005.32,52.8h0l-8.74-8.73-4-4.05-1.79,1.76L989,43.54l-.54.52-8.74,8.67-3.56,3.53,14.55,14.55,1.77,1.76L996,69.05l.77-.74,8.52-8.44,3.56-3.52Zm-22.09,3.47,9.29-9.19,9.23,9.24-9.28,9.18Z"/><path class="cls-1" d="M947.22,88.6,960,75.85,972.77,88.6,960,101.35Z"/><path class="cls-2" d="M974.55,86.84l-1.77-1.77-7.73-7.72-1.51-1.5-3-3-.54-.54q-8.18,8.14-16.32,16.3l3.55,3.53,9.23,9.21,3.54,3.53c1.18-1.18,2.36-2.35,3.53-3.53l9.24-9.21,3.54-3.53ZM960,97.81l-9.24-9.21L960,79.38l9.23,9.22Z"/><path class="cls-2" d="M970.41,56.26q-5.2-5.19-10.42-10.37L949.58,56.26,960,66.62Z"/></g></g></svg>