<svg xmlns="http://www.w3.org/2000/svg" viewBox="0 0 1920 153.45"><defs><style>.cls-1{fill:#156c94;}.cls-2{fill:#fff;}.cls-3{fill:#275893;}</style></defs><g id="Layer_2" data-name="Layer 2"><g id="Layer_1-2" data-name="Layer 1"><rect class="cls-1" y="104.05" width="1920" height="49.4"/><path class="cls-2" d="M1928.17,103.73l2.64,33.54c-309-22-620.65-33.55-937.52-34.23h-7.08l-24.39,0h-1.21q-12.21,0-24.41,0c-1.18,0-2.36,0-3.54,0h-3.53c-317.71.74-630.16,12.45-940,34.56l2.64-33.52C300.72,82.15,612.23,70.54,929,69.8h3.57c1.19,0,2.38,0,3.57,0q12.27,0,24.56,0h1.08l24.54,0h7.15C1309.34,70.48,1620,82,1928.17,103.73Z"/><path class="cls-3" d="M988.88,65.28h-7.12l-15.51,0h-10.1l-15.5,0H936.1c-.86,0-1.71,0-2.58,0C619.88,66,304.77,77.41-7.83,99.55l-.72,9.08c309.79-22,622.12-33.44,933-34.33H933c1,0,2.08,0,3.11,0q25.08,0,50.18,0c1,0,2.08,0,3.11,0h3.54c.49,0,1,0,1.46,0H998c310,.83,621.53,12.18,930.55,34l-.72-9.08C1616,77.23,1301.7,65.9,988.88,65.28Zm5.37,33.26h-1c-.83,0-1.66,0-2.49,0h-4.49c-16.66,0-33.37,0-50,0-1.15,0-2.28,0-3.43,0h-8.14C613,99.43,300.05,111-10.47,133.09c-.24,3-.48,6-.71,9.07,313.73-22.39,630-33.94,944.79-34.63.87,0,1.73,0,2.6,0h4.5l15.37,0h10.27l15.35,0h7.1c314,.61,629.42,12.06,942.36,34.26-.23-3-.47-6-.71-9.07-309.74-21.94-621.91-33.36-932.66-34.18Z"/><path class="cls-2" d="M914.69,86.26q22.57,22.63,45.31,45.18,22.72-22.54,45.3-45.18-22.72-22.45-45.3-45Q937.43,63.8,914.69,86.26Z"/><path class="cls-3" d="M1005.3,82.73l-8.53-8.44-.76-.74L992.46,70l-.23-.22-4.55-4.52L976.32,54l-3.54-3.53-9.24-9.21L960,37.72l-3.54,3.53-9.23,9.21L943.68,54,932.32,65.28c-.32.31-.64.63-1,1l-3.6,3.57-.23.22L924,73.55l-.76.74q-6,6-12.09,11.95l3.54,3.56,8.74,8.74.5.51,3.54,3.54.46.46,15.67,15.63,3.57,3.53h0l9.28,9.22L960,135l3.56-3.53q4.65-4.6,9.29-9.22l3.56-3.54q16.26-16.2,32.45-32.43ZM990.75,97.29h0l-1.25,1.23-.53.54Q980,108,971.06,116.91h0l-1.78,1.77L960,127.9l-9.28-9.21-1.78-1.77Q940,108,931,99.07l-.53-.54-1.25-1.24-1.77-1.77-9.23-9.25,11.06-11c.35-.34.69-.69,1-1l.74-.71,16.13-16c.6-.58,1.19-1.17,1.78-1.76h0L950.77,54,960,44.79q6.39,6.38,12.79,12.74l7.77,7.74,4.53,4.5h0l3.81,3.8,1.78,1.76,1.78,1.76,9.28,9.19Z"/><path class="cls-2" d="M914.69,86.26q6.38,6.4,12.77,12.79l12.85-12.72L927.53,73.55Z"/><path class="cls-3" d="M940.32,82.79l-8.52-8.51-.71-.71-1.77-1.78L927.54,70,924,73.55l-.76.74q-6,6-12.09,11.95l3.54,3.56,8.74,8.74h0l.49.5h0l3.54,3.54,1.78-1.76h0L931,99.07v0l.52-.51,8.76-8.68,3.56-3.53ZM927.48,95.52l-9.23-9.25,9.28-9.18,9.24,9.23Z"/><path class="cls-2" d="M947.15,118.68,960,131.44l12.84-12.76q-6.44-6.36-12.84-12.74Q953.58,112.32,947.15,118.68Z"/><path class="cls-3" d="M974.63,116.91l-1.78-1.77c-2.58-2.54-5.14-5.09-7.71-7.64l-1.58-1.56L960.61,103l-.61-.6-.6.6-3,2.94-1.57,1.56-7.71,7.64h0l-1.78,1.76h0l-1.79,1.76,12.85,12.76L960,135l3.56-3.53q4.65-4.6,9.29-9.22l3.56-3.54ZM960,127.9l-9.28-9.21,9.28-9.21,9.28,9.21Z"/><path class="cls-2" d="M979.68,86.33l12.84,12.72q6.4-6.39,12.78-12.79l-12.84-12.7Z"/><path class="cls-3" d="M1005.3,82.73l-8.53-8.44-.76-.74L992.46,70,976.13,86.34l3.56,3.52,8.75,8.68,2.32,2.29,1.78,1.76q8.18-8.16,16.32-16.34Zm-22.07,3.6q4.63-4.62,9.24-9.24l9.28,9.19-9.23,9.24Z"/><path class="cls-2" d="M947.22,54,960,66.75,972.77,54,960,41.25Z"/><path class="cls-3" d="M972.78,50.46l-9.24-9.21L960,37.72l-3.54,3.53-9.23,9.21L943.68,54q8.15,8.16,16.32,16.3l.55-.54,3-3,1.5-1.5,7.74-7.72,1.77-1.76h0L976.32,54ZM969.23,54,960,63.22,950.77,54,960,44.79Z"/><path class="cls-3" d="M970.41,86.34q-5.2,5.19-10.42,10.37L949.58,86.34,960,76Z"/></g></g></svg>