<svg xmlns="http://www.w3.org/2000/svg" xmlns:xlink="http://www.w3.org/1999/xlink" viewBox="0 0 240.06 240.05"><defs><style>.cls-1{fill:none;}.cls-2{fill:#d8e368;}.cls-3{fill:#fff;}.cls-4{clip-path:url(#clip-path);}.cls-5{fill:url(#linear-gradient);}.cls-6{clip-path:url(#clip-path-2);}.cls-7{fill:url(#linear-gradient-2);}.cls-8{clip-path:url(#clip-path-3);}.cls-9{fill:url(#linear-gradient-3);}.cls-10{clip-path:url(#clip-path-4);}.cls-11{fill:url(#linear-gradient-4);}.cls-12{fill:#5571b7;}.cls-13{fill:url(#linear-gradient-5);}.cls-14{fill:url(#linear-gradient-6);}.cls-15{fill:url(#linear-gradient-7);}.cls-16{fill:url(#linear-gradient-8);}</style><clipPath id="clip-path"><path class="cls-1" d="M211.72,44.81,120,120S89.83,93.6,90.35,83.45,123.71,45,143.68,42,211.72,44.81,211.72,44.81Z"/></clipPath><linearGradient id="linear-gradient" x1="9476.01" y1="-1064.78" x2="9614.08" y2="-1115.47" gradientTransform="translate(-9477.23 -150.07) rotate(7.93)" gradientUnits="userSpaceOnUse"><stop offset="0" stop-color="#d8e368"/><stop offset="1" stop-color="#f0f4cd"/></linearGradient><clipPath id="clip-path-2"><path class="cls-1" d="M195.25,211.71,120,120s26.43-30.2,36.57-29.67,38.46,33.35,41.46,53.32S195.25,211.71,195.25,211.71Z"/></clipPath><linearGradient id="linear-gradient-2" x1="-6423.88" y1="965.09" x2="-6285.82" y2="914.4" gradientTransform="translate(206.77 6550.66) rotate(97.93)" xlink:href="#linear-gradient"/><clipPath id="clip-path-3"><path class="cls-1" d="M28.34,195.24,120,120s30.2,26.43,29.68,36.58-33.36,38.46-53.33,41.45S28.34,195.24,28.34,195.24Z"/></clipPath><linearGradient id="linear-gradient-3" x1="-4394.01" y1="16864.98" x2="-4255.94" y2="16814.3" gradientTransform="translate(-6493.96 16234.65) rotate(-172.07)" xlink:href="#linear-gradient"/><clipPath id="clip-path-4"><path class="cls-1" d="M44.82,28.33,120,120S93.6,150.23,83.46,149.7,45,116.35,42,96.38,44.82,28.33,44.82,28.33Z"/></clipPath><linearGradient id="linear-gradient-4" x1="11505.88" y1="14835.11" x2="11643.94" y2="14784.43" gradientTransform="translate(-16177.96 9533.92) rotate(-82.07)" xlink:href="#linear-gradient"/><linearGradient id="linear-gradient-5" x1="9488.42" y1="-1082.45" x2="9596.27" y2="-1122.04" gradientTransform="translate(-9477.23 -150.07) rotate(7.93)" gradientUnits="userSpaceOnUse"><stop offset="0" stop-color="#5571b7"/><stop offset="1" stop-color="#7e94cb"/></linearGradient><linearGradient id="linear-gradient-6" x1="-6411.47" y1="947.42" x2="-6303.62" y2="907.83" gradientTransform="translate(206.77 6550.66) rotate(97.93)" xlink:href="#linear-gradient-5"/><linearGradient id="linear-gradient-7" x1="-4381.6" y1="16847.32" x2="-4273.75" y2="16807.73" gradientTransform="translate(-6493.96 16234.65) rotate(-172.07)" xlink:href="#linear-gradient-5"/><linearGradient id="linear-gradient-8" x1="11518.29" y1="14817.45" x2="11626.14" y2="14777.86" gradientTransform="translate(-16177.96 9533.92) rotate(-82.07)" xlink:href="#linear-gradient-5"/></defs><g id="Layer_2" data-name="Layer 2"><g id="Layer_1-2" data-name="Layer 1"><path class="cls-2" d="M110.52,130.9c-.33-.29-8.15-7.14-16-15.4-13.67-14.39-19.06-23.89-18.6-32.8.5-9.61,8.81-21,24.71-33.89,6.82-5.52,24.46-18.64,40.9-21.1a118.62,118.62,0,0,1,17.31-1c21,0,48.37,3,53.64,3.66a14.84,14.84,0,0,1,7.7,26.21L119.73,139Z"/><path class="cls-3" d="M158.84,41.14c20.21,0,46.79,3,52,3.56a.39.39,0,0,1,.2.69L120,120S89.83,93.6,90.35,83.45,123.71,45,143.68,42a106.77,106.77,0,0,1,15.16-.86m0-28.9h0a133.45,133.45,0,0,0-19.45,1.18C120.16,16.3,101.15,29.8,91.54,37.58A130.16,130.16,0,0,0,74,54.54C65.93,64.11,62,72.83,61.5,82c-.69,13.31,5.84,25.91,22.55,43.49,8.31,8.74,16.6,16,17,16.32l18.43,16.12,18.93-15.53,91-74.63A29.28,29.28,0,0,0,214.14,16c-7.59-.88-34-3.76-55.3-3.76Z"/><g class="cls-4"><path class="cls-5" d="M106.6,143.81,47.71,68.86l44-61.26L99.55,8c.79,0,19.51,1,38.63,2.59,11.4,1,20.57,2,27.25,3A86.12,86.12,0,0,1,176,15.73c11.42,3.32,13.53,10.8,13.77,15,.11,1.95.06,11.9-11.91,16.08a61,61,0,0,1-9.91,2.3c-15,2.47-24,27.26-28,41.82a247.1,247.1,0,0,0-7.56,44.82l-2.22,38.07Z"/><path class="cls-3" d="M98.83,22.42s109,5.41,66.73,12.4S118,134.88,118,134.88L65.78,68.47l33.05-46M84.54-7.22,75.36,5.57,42.3,51.62,29.64,69.26,43.06,86.32l52.18,66.42,47.22,60.1,4.35-76.31A231.07,231.07,0,0,1,154,94.37c6.82-24.43,14.71-30.78,16.31-31a74.44,74.44,0,0,0,12.31-2.91c16.87-5.9,22.17-20.14,21.57-30.55-.29-5-2.88-21.84-24.17-28A100.49,100.49,0,0,0,167.62-.71c-7-1.07-16.5-2.12-28.23-3.11C120-5.45,101.07-6.4,100.27-6.44L84.54-7.22Z"/></g><path class="cls-2" d="M195,225.6a14.81,14.81,0,0,1-11.47-5.42L101.1,119.72l8.06-9.21c.28-.32,7-8,15.18-15.79,14-13.37,23.3-18.83,32-18.83.34,0,.68,0,1,0,9.62.5,21,8.81,33.89,24.7,5.53,6.83,18.64,24.47,21.11,40.91,2.92,19.46-1.29,59.22-2.65,70.95A14.82,14.82,0,0,1,195,225.6Z"/><path class="cls-3" d="M156.34,90.34h.26c10.15.52,38.46,33.35,41.46,53.32,2.75,18.36-1.93,60.46-2.71,67.14a.39.39,0,0,1-.68.2L120,120s26-29.68,36.31-29.68m0-28.9h0c-12.8,0-25,6.62-42,22.83C105.74,92.5,98.59,100.65,98.28,101L82.16,119.42l15.53,18.93,74.64,91a29.28,29.28,0,0,0,51.72-15.19c1.81-15.6,5.68-54.1,2.58-74.77-2.88-19.23-16.37-38.23-24.16-47.85a130,130,0,0,0-17-17.57c-9.57-8-18.28-12-27.41-12.47-.58,0-1.18-.05-1.76-.05Z"/><g class="cls-6"><path class="cls-7" d="M208.5,189.75c-2.61,0-11.4-.86-15.25-12a60.75,60.75,0,0,1-2.27-9.82c-2.48-15-27.27-23.95-41.82-28a245.83,245.83,0,0,0-44.82-7.55l-38.08-2.22,30-23.57,75-58.89,61.27,44-.39,7.87c0,.79-1,19.59-2.6,38.74-1,11.42-2,20.6-3,27.27a85,85,0,0,1-2.17,10.54c-3.63,12.32-12.25,13.65-15.79,13.65Z"/><path class="cls-3" d="M171.58,65.77l46.06,33.06s-3.8,76.48-9.14,76.48c-1,0-2.13-2.88-3.27-9.75-7-42.31-100.06-47.61-100.06-47.61l66.41-52.18m-.78-36.13L153.73,43.05,87.32,95.23l-60.1,47.23,76.31,4.34A231,231,0,0,1,145.68,154c24.43,6.82,30.78,14.72,31,16.31a74.84,74.84,0,0,0,2.87,12.17c5.54,16.05,18.57,21.76,28.91,21.76,10.91,0,24.43-6.31,29.65-24a96.11,96.11,0,0,0,2.59-12.4c1.08-7,2.13-16.51,3.12-28.27,1.64-19.39,2.6-38.44,2.64-39.24l.78-15.72-12.79-9.19-46.06-33L170.8,29.64Z"/></g><path class="cls-2" d="M81.22,213.36c-21,0-48.37-3.05-53.64-3.66a14.84,14.84,0,0,1-7.7-26.21l100.45-82.4,9.21,8.06c.33.29,8.15,7.14,16,15.4,13.67,14.39,19.06,23.89,18.6,32.8-.5,9.61-8.81,21-24.71,33.89-6.82,5.52-24.46,18.63-40.9,21.1A120,120,0,0,1,81.22,213.36Z"/><path class="cls-3" d="M120,120s30.2,26.43,29.68,36.58-33.36,38.46-53.33,41.45a106.77,106.77,0,0,1-15.16.86c-20.21,0-46.79-3-52-3.57a.38.38,0,0,1-.19-.68L120,120m.6-37.86L101.7,97.68l-91,74.64a29.28,29.28,0,0,0,15.2,51.73c7.59.88,34.05,3.76,55.3,3.76a133.45,133.45,0,0,0,19.45-1.18c19.23-2.89,38.24-16.38,47.85-24.17a130.13,130.13,0,0,0,17.58-17c8-9.57,12-18.29,12.47-27.42.68-13.31-5.85-25.91-22.56-43.49-8.31-8.74-16.6-16-16.95-16.32L120.63,82.16Z"/><g class="cls-8"><path class="cls-9" d="M140.51,232.06c-.79,0-19.51-1-38.62-2.59-11.41-1-20.58-2-27.26-3a86.4,86.4,0,0,1-10.54-2.15c-11.42-3.32-13.53-10.8-13.77-15-.11-1.95-.06-11.9,11.92-16.08a60.55,60.55,0,0,1,9.9-2.3c15-2.47,24-27.26,28-41.82a246.22,246.22,0,0,0,7.56-44.82l2.22-38.07,23.56,30,58.89,74.94-44,61.27Z"/><path class="cls-3" d="M122.1,105.16l52.18,66.42-33.05,46s-109-5.41-66.73-12.41,47.6-100.06,47.6-100.06M97.6,27.21l-4.35,76.28a229.73,229.73,0,0,1-7.16,42.19c-6.81,24.42-14.71,30.77-16.3,31a74.34,74.34,0,0,0-12.32,2.91c-16.87,5.89-22.16,20.14-21.57,30.54.29,5,2.88,21.84,24.17,28a96.88,96.88,0,0,0,12.37,2.56c7,1.08,16.5,2.13,28.23,3.12,19.36,1.63,38.33,2.58,39.12,2.62l15.73.78,9.18-12.79,33.06-46,12.66-17.64L197,153.72,144.82,87.31,97.6,27.21Z"/></g><path class="cls-2" d="M83.72,164.16c-.34,0-.68,0-1,0-9.62-.5-21-8.81-33.89-24.71C43.29,132.6,30.18,115,27.71,98.52,24.79,79.05,29,39.29,30.36,27.57a14.83,14.83,0,0,1,26.2-7.7L139,120.33l-8.06,9.21c-.28.32-7,8-15.18,15.78C101.69,158.7,92.42,164.16,83.72,164.16Z"/><path class="cls-3" d="M45.09,28.9a.37.37,0,0,1,.3.14L120,120s-26,29.69-36.31,29.69h-.26C73.31,149.18,45,116.35,42,96.38,39.25,78,43.93,35.91,44.71,29.23a.37.37,0,0,1,.38-.33m0-28.9A29.26,29.26,0,0,0,16,25.92C14.2,41.5,10.33,80,13.43,100.66c2.88,19.24,16.37,38.24,24.16,47.86a130.64,130.64,0,0,0,17,17.57c9.57,8,18.28,12,27.41,12.47.58,0,1.18,0,1.76,0,12.81,0,25-6.61,42-22.82,8.63-8.23,15.79-16.39,16.09-16.73l16.12-18.42L142.37,101.7l-74.64-91A29.18,29.18,0,0,0,45.09,0Z"/><g class="cls-10"><path class="cls-11" d="M7.6,148.37,8,140.5c0-.79,1-19.59,2.6-38.74,1-11.43,2-20.6,3-27.27A83,83,0,0,1,15.78,64C19.4,51.63,28,50.29,31.56,50.29c2.61,0,11.4.87,15.25,12a60.75,60.75,0,0,1,2.27,9.82c2.48,15,27.27,24,41.83,28a245.17,245.17,0,0,0,44.81,7.56l38.08,2.22-30,23.56L68.87,192.34Z"/><path class="cls-3" d="M31.56,64.74c1,0,2.13,2.88,3.27,9.75,7,42.31,100.06,47.6,100.06,47.6L68.48,174.28,22.42,141.22s3.8-76.48,9.14-76.48m0-28.89c-10.91,0-24.43,6.31-29.64,24A96.47,96.47,0,0,0-.68,72.28c-1.08,7-2.13,16.51-3.12,28.27C-5.44,119.94-6.4,139-6.44,139.79l-.78,15.72,12.79,9.18,46.06,33.06,17.63,12.66L86.33,197l66.41-52.19,60.1-47.22-76.31-4.34a230.55,230.55,0,0,1-42.15-7.17C70,79.27,63.6,71.37,63.34,69.78a74.58,74.58,0,0,0-2.87-12.17c-5.54-16-18.57-21.76-28.91-21.76Z"/></g><path class="cls-3" d="M120,141.64a21.36,21.36,0,0,1-3-.21,21.61,21.61,0,0,1,3-43A21.61,21.61,0,0,1,141.44,123,21.7,21.7,0,0,1,120,141.64Z"/><path class="cls-3" d="M120,112.86a6.82,6.82,0,0,1,1,.07,7.16,7.16,0,0,1-1,14.26,6.82,6.82,0,0,1-1-.07,7.16,7.16,0,0,1,1-14.26M120,84h0a36.09,36.09,0,1,0,5,.35,36.22,36.22,0,0,0-5-.35Z"/><path class="cls-12" d="M211.72,44.81,120,120S89.83,93.6,90.35,83.45,123.71,45,143.68,42,211.72,44.81,211.72,44.81Z"/><g class="cls-4"><path class="cls-13" d="M118,134.88s5.3-93.06,47.6-100.06-66.73-12.4-66.73-12.4l-33,46.05Z"/></g><path class="cls-12" d="M195.25,211.71,120,120s26.43-30.2,36.57-29.67,38.46,33.35,41.46,53.32S195.25,211.71,195.25,211.71Z"/><g class="cls-6"><path class="cls-14" d="M105.17,118s93.07,5.3,100.06,47.61,12.41-66.73,12.41-66.73L171.58,65.77Z"/></g><path class="cls-12" d="M28.34,195.24,120,120s30.2,26.43,29.68,36.58-33.36,38.46-53.33,41.45S28.34,195.24,28.34,195.24Z"/><g class="cls-8"><path class="cls-15" d="M122.1,105.16s-5.3,93.07-47.6,100.06,66.73,12.41,66.73,12.41l33.05-46Z"/></g><path class="cls-12" d="M44.82,28.33,120,120S93.6,150.23,83.46,149.7,45,116.35,42,96.38,44.82,28.33,44.82,28.33Z"/><g class="cls-10"><path class="cls-16" d="M134.89,122.09s-93.07-5.3-100.06-47.6-12.41,66.73-12.41,66.73l46.06,33.06Z"/></g><circle class="cls-3" cx="120.03" cy="120.02" r="7.17"/></g></g></svg>