<svg xmlns="http://www.w3.org/2000/svg" viewBox="0 0 792.27 138"><defs><style>.cls-1{fill:#3b73b9;}.cls-2{fill:#fff;}</style></defs><g id="Layer_2" data-name="Layer 2"><g id="Layer_1-2" data-name="Layer 1"><path class="cls-1" d="M63.24,113.24a101.92,101.92,0,0,1-22.34-2.11c-5.76-1.33-13.81-4.29-19.39-10.89a41.87,41.87,0,0,1-8-15.2,74.11,74.11,0,0,1-2.44-18.88,157.84,157.84,0,0,1,.58-19.36,62.89,62.89,0,0,1,1.81-10.58,37,37,0,0,1,8.65-16.13,29.73,29.73,0,0,1,12.62-7.44,27,27,0,0,1,8.05-1.11,46.75,46.75,0,0,1,5,.29c2,.22,4,.51,6,.79,2.24.33,4.35.64,6.32.8.21,0,.45,0,.69,0a17.59,17.59,0,0,1,9.56,2.36c4.92,3,7.35,7.5,7.45,13.63,0,2.41,0,4.85,0,7.21,0,1.16,0,2.31,0,3.46,0,.24,0,.5,0,.77a26.67,26.67,0,0,1-.48,6.47A13.2,13.2,0,0,1,66,58a12.83,12.83,0,0,1-1.53.09,13.91,13.91,0,0,1-2.31-.2l-.24,0-.51-.09A34.72,34.72,0,0,0,57,57.32,48.8,48.8,0,0,0,57.1,69c0,.26.09.51.14.74,1.44.2,6,.75,6.87.83A13.42,13.42,0,0,1,75.71,80a13.73,13.73,0,0,1,1.22,5.28c0,.51.08,1.73.15,3.24.4,8.13.47,10.79.36,12.35A12.93,12.93,0,0,1,65.76,113l-1.15.28Z"/><path class="cls-2" d="M42.78,22.54a38.28,38.28,0,0,1,3.87.23C50.7,23.2,55,24,59.15,24.39c1.81.15,3.85-.2,5.41.77s2.19,1.92,2.23,4.43c0,3.46,0,7,0,10.51,0,2.55.42,6.73-2.12,6.94l-.25,0c-.37,0-.79-.11-1.13-.14A46.68,46.68,0,0,0,56,46.3c-2.86,0-5.63.35-6.86,1.42-4,3.79-3.71,17.19-2.87,22.9a19,19,0,0,0,1.91,6,7.25,7.25,0,0,0,3.61,3.08,17.51,17.51,0,0,0,3.17.8c1.06.2,7.21.94,8.27,1a2.38,2.38,0,0,1,2.12,2.4,2.66,2.66,0,0,1,.64,1.65c0,1.87.67,12.62.53,14.48a2,2,0,0,1-2,2h-.28a3.67,3.67,0,0,0-.95.24,91,91,0,0,1-19.93-1.83C38.53,99.3,33.19,97,29.91,93.13A30.66,30.66,0,0,1,24.08,82a63.79,63.79,0,0,1-2-16.11,145.23,145.23,0,0,1,.53-18,53.45,53.45,0,0,1,1.48-8.78A26.22,26.22,0,0,1,30,27.74a18.86,18.86,0,0,1,8-4.58,16.47,16.47,0,0,1,4.82-.62m0-22h0A37.9,37.9,0,0,0,31.51,2.13,40.59,40.59,0,0,0,14.2,12.44,47.93,47.93,0,0,0,2.84,33.35,74,74,0,0,0,.7,45.74,168,168,0,0,0,.07,66.46,85.77,85.77,0,0,0,3,88.1a52.69,52.69,0,0,0,10.16,19.25c7.54,8.9,17.93,12.8,25.32,14.5a111.48,111.48,0,0,0,24.76,2.39h2.73l1.86-.46a24.17,24.17,0,0,0,20.63-22.12c.16-2.16.09-4.72-.34-13.68-.07-1.39-.12-2.52-.14-3a24.7,24.7,0,0,0-2-9.17,24.65,24.65,0,0,0-7.8-10.93,24.68,24.68,0,0,0,10-15.1,37.6,37.6,0,0,0,.75-9.09c0-.2,0-.39,0-.57,0-1.13,0-2.27,0-3.4,0-2.42,0-4.91,0-7.44C88.6,16.75,81.8,10,76.13,6.44a28.39,28.39,0,0,0-15.26-4H60.7c-1.56-.15-3.4-.42-5.34-.7S51.2,1.13,49,.89A60.66,60.66,0,0,0,42.78.54Z"/><path class="cls-1" d="M106.55,115.31a54.06,54.06,0,0,1-20.14-3.76l-.29-.12A44.73,44.73,0,0,1,72.18,102a39.88,39.88,0,0,1-8.47-13.4c-2.26-6-2.64-12.1-2.92-16.58-.44-7.22-.49-21.14,4.23-33.26,1.58-4.11,6.34-14.29,16-18.91C86,17.45,91.76,16.3,98.67,16.3A114.52,114.52,0,0,1,118,18.4a34.42,34.42,0,0,1,17.2,8,32.91,32.91,0,0,1,8.38,12.39c2.77,7,3.2,14.25,3.4,20.5.23,7.62.19,19-2.89,29.4-2.34,8-6.65,14.8-12.13,19.22-4.77,3.85-11.08,6.24-18.75,7.08A58.62,58.62,0,0,1,106.55,115.31Z"/><path class="cls-2" d="M98.67,27.3a106.25,106.25,0,0,1,17.43,1.94,23.43,23.43,0,0,1,11.67,5.27,21.67,21.67,0,0,1,5.52,8.22c2.12,5.35,2.48,11.24,2.65,16.85.27,8.66,0,17.83-2.44,26C132,90.7,129.14,96,125,99.3c-3.52,2.84-8.38,4.2-13,4.71a48.55,48.55,0,0,1-5.42.3,43,43,0,0,1-16-3A33.86,33.86,0,0,1,80,94.27a28.82,28.82,0,0,1-6-9.62c-1.61-4.24-2-8.94-2.23-13.35-.55-9,.17-20,3.5-28.59,2-5.25,5.77-10.71,10.5-13a30.31,30.31,0,0,1,12.9-2.44M105,79.15a6.15,6.15,0,0,0,2.28-.43,8.37,8.37,0,0,0,4.35-4.57A24.16,24.16,0,0,0,113,59.39a8.73,8.73,0,0,0-2.76-4.77,8.43,8.43,0,0,0-5.3-1.86,6.32,6.32,0,0,0-5.73,3.07,22.31,22.31,0,0,0-2.66,11.59c.09,2.86.53,6,2.13,8.33a7.82,7.82,0,0,0,6.31,3.4M98.67,5.3h0c-8.59,0-15.9,1.5-22.37,4.58C67,14.33,59.13,23.4,54.75,34.79c-5.46,14.07-5.44,29.76-4.94,37.87.3,4.89.76,12.27,3.62,19.8a51.06,51.06,0,0,0,10.88,17.19A55.81,55.81,0,0,0,81.7,121.5l.28.13.29.11a64.28,64.28,0,0,0,24.28,4.57,73.23,73.23,0,0,0,7.83-.43c9.79-1.08,18-4.27,24.45-9.46,7.2-5.81,12.8-14.57,15.78-24.67,3.52-12,3.58-24.47,3.32-32.85-.22-7.17-.74-15.53-4.14-24.16A43.48,43.48,0,0,0,142.54,18.2,45.16,45.16,0,0,0,119.81,7.56,126.4,126.4,0,0,0,98.67,5.3Z"/><path class="cls-1" d="M228.15,124c-5.28,0-11.25-.51-14.46-.79l-1.3-.11a14.4,14.4,0,0,1-12.68-9.86c-.4,0-.8,0-1.21,0h0l-.85,0-2.71-.19c-2.45-.17-5-.35-7.28-.43h-.73a28.82,28.82,0,0,1-6.22-.58c-1.66,3.31-5.73,8.47-15,8.47-.5,0-1,0-1.59,0l-6.95-.38-11.35-.62h-.14c-11.84-.7-13.42-10.09-13.61-12-.32-3-.39-15.72-.38-16.52.1-17.35.47-37.8,2.49-57.89,1-9.14,7.73-13.2,14-13.2l1,0,4.7.32c4.23.3,8.22.58,12.32.61h1.42c11,0,14.41,6,15.51,9.7.42,1.24,2.23,5.45,5.39,12.52.35.79.87,2,.91,2,1.11-2.85,2.24-5.65,3.41-8.38l.1-.24.11-.24c.22-.46.42-.9.6-1.31,1.37-3.06,5-11.18,15.45-11.18.31,0,.63,0,1,0,.49,0,2.87,0,4.45.05,3,0,4.38,0,5.08.07,1.45.06,2.93.15,4.41.24s2.87.18,4.28.24c.42,0,.88,0,1.35,0,3.7,0,9.89,0,14.14,5a12.78,12.78,0,0,1,3,9.66c0,.39,0,.86.07,1.25,0,.61,0,1.15.06,1.46h0c.16,10.37.16,20.87.16,31s0,20.47.16,30.67v.17c0,.22,0,.56,0,1,.2,5.18.19,9.11-1.91,12.63l-.08.12C241.27,124,233.05,124,228.15,124Z"/><path class="cls-2" d="M148.23,30.86h.34c5.84.36,11.59.91,17.62.95h1.51c2.08,0,4.48.15,5,1.86.65,2.25,5.73,13.48,6.69,15.66,4,8.73,7.84,17.6,11.15,26.6.53-1.46,3.4-10.54,3.93-12C197,56.21,199.85,48.49,203,41c1.74-3.6,2.2-6.27,6.14-6.27h.44c1.17,0,8.39.06,9.56.12,2.87.12,5.84.36,8.71.48,3.4.14,8.5-.5,8,2.88-.11.53.1,3.19.1,3.72.31,20.56,0,41.13.32,61.7,0,1.48.43,6.7-.32,8-.64,1-3.91,1.37-7.81,1.37-5.76,0-12.88-.71-14.92-.87s-3.38-1.66-3.4-4.19c-.05-6.75-.21-13.49,0-20.17-1.78,2.64-7.27,14.52-11.33,14.52h-.13c-3.35-.22-7-.51-10.31-.63-2-.08-6.15.2-7.11-1.55a7.28,7.28,0,0,0-.85-1c-2.87-4.62-5.52-9.22-8.28-13.95,0,4.78,0,9.61-.11,14.44-.06,5.81.29,9.93-6,9.93l-.95,0c-2.22-.13-16-.86-18.25-1-1.28-.08-3.29-.1-3.5-2.13S142.72,93,142.74,91c.11-18.8.54-38,2.44-56.86.2-1.91.88-3.3,3-3.3m0-22c-13.24,0-23.49,9.45-24.93,23V32c-2.07,20.54-2.45,41.32-2.55,58.93,0,.13,0,13.8.43,17.72,1.07,10.21,8.88,20.91,23.91,21.8h.1l11.52.63,6.83.37c.76.05,1.5.07,2.23.07a27.8,27.8,0,0,0,20-7.9h1.51c1.75.07,3.73.2,5.69.33A25.22,25.22,0,0,0,211.56,134l1.18.1c3.38.29,9.66.83,15.41.83s19.26,0,26.55-11.84l.08-.13.07-.12c3.94-6.6,3.66-13.6,3.46-18.71,0-.25,0-.48,0-.67v-.18c-.15-10.12-.16-20.49-.16-30.52s0-20.67-.16-31.1c0-.68,0-1.3-.08-2q0-.24,0-.51a24,24,0,0,0-5.62-16.91c-7.53-8.84-18-8.88-22.47-8.9h-.94c-1.27,0-2.63-.14-4.07-.23s-3-.18-4.59-.25c-.89,0-2.21-.05-5.48-.08l-4.15,0-1.35,0a26.56,26.56,0,0,0-18.89,7.58c-3.57-5-10.27-10.49-22.59-10.49h-1.3c-3.79,0-7.61-.3-11.66-.58-1.6-.12-3.19-.23-4.8-.33-.57,0-1.14-.05-1.71-.05Z"/><path class="cls-1" d="M267.44,126.29l-.34,0c-3.14-.15-6.36-.37-9.48-.58-3.79-.27-7.71-.54-11.55-.68a13.57,13.57,0,0,1-10.71-5.92,13.14,13.14,0,0,1-1.91-10.21c.58-9.62.81-19.43,1-27.81.15-8.18.23-16.64.31-24.82,0-4,.07-8,.12-12a19.59,19.59,0,0,1,9-16.58l.45-.29.48-.24c2.65-1.33,5.6-1.6,9.2-1.6,1.54,0,3.06.06,4.06.09l1.43,0c5.95.15,12.1.31,18.34,1.06,5.79.7,12.48,2,18.26,6A30.94,30.94,0,0,1,306.42,46a53.08,53.08,0,0,1,4.08,22.39,44.68,44.68,0,0,1-3.45,17.23,27.53,27.53,0,0,1-8.15,10.82,35.84,35.84,0,0,1-12.54,6,41.46,41.46,0,0,1-4.47,1c0,3.11-.16,6.26-.44,9.54v.23l0,.23a14.41,14.41,0,0,1-3.65,8.37,13.93,13.93,0,0,1-10.06,4.46Z"/><path class="cls-2" d="M253.94,36.51c1.83,0,3.7.09,4.55.12,5.89.15,12,.28,17.95,1,4.57.56,9.49,1.44,13.29,4.1a19.82,19.82,0,0,1,6.58,8.66A41.88,41.88,0,0,1,299.5,68.2,34.16,34.16,0,0,1,297,81.3a16.87,16.87,0,0,1-4.89,6.57,24.91,24.91,0,0,1-8.71,4,48.57,48.57,0,0,1-12.54,1.43,184,184,0,0,1-.32,18.79,3.93,3.93,0,0,1-.74,2.2,3.07,3.07,0,0,1-2.05,1h-.08c-6.8-.33-13.91-1-21.14-1.27a2.28,2.28,0,0,1-2.23-3,.36.36,0,0,0,.11-.31c.61-9.81.88-19.73,1.06-29.48.23-12.22.29-24.75.42-36.93A8.6,8.6,0,0,1,249.67,37a12.89,12.89,0,0,1,4.27-.44m17.83,37.71a13.15,13.15,0,0,0,5.74-1.2A6.3,6.3,0,0,0,280,70.44c1.17-2.73,0-9-1.59-11.52-1.4-2.11-4.36-2.68-6.81-3.07,0,2.33.22,16,.22,18.37M253.94,14.51c-4.47,0-9.28.34-14.13,2.77l-1,.48-.9.57a30.57,30.57,0,0,0-14.1,25.76q-.07,6-.12,12c-.08,8.16-.15,16.59-.31,24.72s-.37,17.43-.91,26.62a24.18,24.18,0,0,0,3.72,17.75A24.59,24.59,0,0,0,245.65,136c3.67.14,7.34.39,11.22.66,3.17.22,6.45.44,9.71.6.36,0,.74,0,1.12,0a24.94,24.94,0,0,0,18.08-7.93,25.19,25.19,0,0,0,6.54-14.53l.06-.45,0-.46c.05-.63.1-1.25.14-1.87a43.42,43.42,0,0,0,13.18-7A38.61,38.61,0,0,0,317.15,90a55.4,55.4,0,0,0,4.35-21.37,63.17,63.17,0,0,0-5-27,41.56,41.56,0,0,0-14.18-18c-7.81-5.45-16.52-7.08-23.24-7.9s-13.46-1-19.38-1.14l-.66,0-.65,0c-1.08,0-2.72-.1-4.46-.1Z"/><path class="cls-1" d="M351.72,126.74h-1.88c-9.93-.14-20-.43-29.79-.72l-7.37-.21c-.44,0-.86,0-1.28.06-.76,0-1.63.1-2.59.1-4.75,0-8.57-1.48-11.36-4.4a14.36,14.36,0,0,1-3.83-10.94c.06-1.49.14-3,.22-4.57.16-3.07.32-6.25.41-9.24l.18-7c.32-12.12.66-24.66,1.43-37.06,0-.4,0-2,.06-3.22.1-6.91.19-9.35.58-11.2,1.19-5.66,6.12-10,12.57-11a20.46,20.46,0,0,1,3.24-.19c2.51,0,6.36.19,9.17.32l2,.1c9.21.28,18.61.41,26.58.5,6.32.08,11.13,2,14.28,5.76a14.93,14.93,0,0,1,3.25,11.59c-.07,1.74-.17,8.91-.17,10.39,0,.12,0,.32,0,.55.16,3.5.47,10-4,14.74a13,13,0,0,1-3.74,2.72v.38c0,3.6,0,6.93-.14,10,3.51,1.52,8.86,5.55,8,15.9-.25,2.81-.22,6-.19,9.29,0,1.06,0,2.12,0,3.16C367.36,117.79,364.07,126.74,351.72,126.74Z"/><path class="cls-2" d="M312.31,38.14c3.15,0,9.52.37,10.89.41,8.83.27,17.86.41,26.78.51,3.3,0,7.44.72,6.7,5.28-.11,1.38-.21,10.08-.21,11.46,0,1.91.82,8.26-2.34,8.26h0c-5.81,0-11.72-.13-17.5-.13h-.89c-1.56,0-3.29.16-4.89.24,0,2,0,4-.1,6.15,5.2.09,10.46.32,15.62.44,1.89,0,2.34,1.84,2.34,3.43,0,4-.06,8.22-.21,12a3.36,3.36,0,0,1-2.81,2.62h-.06c-4.12-.18-8.54-.46-12.91-.46-.76,0-1.53,0-2.29,0-.11,1.8-.11,3.6-.11,5.3h1.41c3.18,0,6.35-.15,9.53-.15h1.18c1.8,0,10.65.22,12.43.57,2.11.42,1.85,3.37,1.7,5-.36,4.27-.21,8.91-.21,13.37,0,2.92-2.22,3.25-4.64,3.25l-1.74,0c-12.3-.17-24.74-.58-37-.92h-.36c-1.22,0-2.58.16-3.83.16-2.38,0-4.35-.57-4.21-3.84.21-4.47.51-9.36.64-14,.4-14.5.69-29.15,1.6-43.71.1-1.69.07-11.19.42-12.84.28-1.35,2.19-2.15,3.51-2.36a11.55,11.55,0,0,1,1.54-.06m0-22a30.78,30.78,0,0,0-4.93.32c-11,1.72-19.51,9.4-21.65,19.57-.61,2.92-.71,6-.81,13.32,0,1,0,2.35-.05,2.83-.78,12.55-1.11,25.14-1.43,37.32-.06,2.34-.13,4.67-.19,7-.08,2.86-.24,6-.39,9-.08,1.58-.16,3.14-.23,4.65a25.52,25.52,0,0,0,6.87,19c3.4,3.55,9.51,7.8,19.31,7.8,1.29,0,2.42-.07,3.25-.12l.59,0,7,.21c9.83.28,20,.58,30,.71h.49l1.54,0c17.49,0,26.64-12.7,26.64-25.25,0-1.07,0-2.16,0-3.25,0-3.07,0-6,.15-8.23a32.12,32.12,0,0,0-.29-8.84,24.77,24.77,0,0,0-7-13.28l.19-.21c7.76-8.12,7.28-18.43,7.08-22.83v-.28c0-1.64.08-7.33.15-9.37a25.66,25.66,0,0,0-5.81-19.45c-3.65-4.34-10.52-9.55-22.57-9.69-7.93-.09-17.26-.22-26.37-.5L322,16.48c-3.65-.18-7.14-.34-9.71-.34Z"/><path class="cls-1" d="M383,127a13.31,13.31,0,0,1-3-.31C374.6,125.44,369,120,369,113.08v-.46c.6-14.47.82-27.79.66-40.4h-2.15c-1.44,0-2,0-2.25,0-.4,0-.82.06-1.22.06a14.51,14.51,0,0,1-14-12.75c-.11-1.11-.13-2.66-.17-6.82,0-1.66,0-4.15-.06-4.88-.14-1.37-.39-3-.64-4.45a14,14,0,0,1,3.38-11.28,14.14,14.14,0,0,1,10.71-5.2h.41l2.83.12c1.26.07,2.44.13,3.48.13h3.17l6.18,0,6.27,0h1.34c1.12,0,3.77.07,8,.17,4.9.11,11,.26,13.54.26h.63c2.23-.07,4.48-.17,6.74-.27,3.37-.14,6.86-.3,10.31-.36h.23a13.18,13.18,0,0,1,9.42,4A14.24,14.24,0,0,1,439.85,41c0,2.72-.09,5.45-.16,8.17-.08,3.22-.16,6.56-.16,9.78A13.13,13.13,0,0,1,426.38,72q-.66,0-1.32-.06c-1.62.13-3.2.24-4.73.35.11,2.54.21,5.07.28,7.56.3,10.87.59,22.17.85,32.85.12,5.13-3.16,13.91-16.24,14.25h-.66c-1.51,0-4.47-.1-7.89-.21-3.19-.11-6.79-.23-8.28-.23h-.06l-.57.07A42,42,0,0,1,383,127Z"/><path class="cls-2" d="M363.21,37.92h.06c2.18.07,4.47.25,6.59.26h3.24c4.14,0,8.3,0,12.42,0h1.35c2.53,0,17,.43,21.56.43h1c5.58-.18,11.32-.53,16.9-.63h0a2.81,2.81,0,0,1,2.51,3c-.05,6-.32,12-.32,18A2.09,2.09,0,0,1,426.38,61a2.36,2.36,0,0,1-.82-.14c-5.53.46-11.06.81-16.59.94.11,6.15.47,12.35.64,18.36.31,10.86.59,22.14.85,32.81.07,2.58-3.35,2.93-5.52,3h-.38c-2.75,0-13-.44-16.17-.44h-.67c-.61,0-3.39.45-4.7.45a2.27,2.27,0,0,1-.51,0,3.8,3.8,0,0,1-2.55-2.88c.73-17.38,1-34.63.42-52H380c-3.16,0-6.35.13-9.45.16h-3c-1.4,0-2.82,0-3.25.06l-.23,0a3.63,3.63,0,0,1-3.07-2.91c-.14-1.32-.07-10-.21-11.47-.17-1.77-.47-3.64-.74-5.31-.24-1.44,1.59-3.69,3.23-3.69m0-22a25.7,25.7,0,0,0-24.94,29.27c.16,1,.39,2.33.51,3.42,0,.88,0,2.84.05,4.19,0,4.66.05,6.3.22,7.91a25.53,25.53,0,0,0,19.63,22c0,9.33-.27,19.09-.7,29.46l0,.46v.46c0,11.31,8.45,21.77,19.65,24.33A24.05,24.05,0,0,0,383,138a49,49,0,0,0,5.94-.46c1.6,0,4.75.13,7.33.22,4.08.14,6.66.22,8.27.22h.95A32.79,32.79,0,0,0,416.22,136a24.39,24.39,0,0,0,16.24-23.59c-.29-11.77-.54-21.4-.78-30a24.14,24.14,0,0,0,18.85-23.5c0-3.09.08-6.21.16-9.51.07-2.71.13-5.51.16-8.34a25.25,25.25,0,0,0-7.28-17.92,24.09,24.09,0,0,0-17.23-7.23H426c-3.64.07-7.2.22-10.64.37-2.28.1-4.43.2-6.55.26h-.34c-2.4,0-8.69-.15-13.29-.26-4.43-.11-7-.16-8.22-.17h-1.4l-6.31,0-6.11,0H370c-.8,0-1.87-.06-3-.11s-2-.11-3-.14Z"/><path class="cls-1" d="M442.88,126.12c-3.23,0-5.92-.1-8.5-.33l-.45,0-.45-.07a13.24,13.24,0,0,1-11-12.94,13.75,13.75,0,0,1-.08-1.39v-.27l0-.27c.91-18.65.74-37.9.58-56.51L423,47l-.06-.35c-1.27-7.76.83-13.34,6.24-16.59a14.49,14.49,0,0,1,7.62-2c.58,0,1.16,0,1.74.07l.36,0h.8c1.84,0,4-.16,6.25-.34,2.62-.2,5.33-.41,8.09-.41h.8l1.43,0c14.78,0,16,11.39,16.12,12.69a436.19,436.19,0,0,1-1.2,72.16v.14c-.35,3.16-2.53,13.48-15.75,13.58-1.82,0-3.66,0-5.49.1C447.62,126.06,445.26,126.12,442.88,126.12Z"/><path class="cls-2" d="M456.23,38.34c2.2,0,5,.28,5.14,2.47a425.37,425.37,0,0,1-1.17,70.3c-.31,2.88-1.61,3.77-4.88,3.8-4.13,0-8.3.21-12.44.21-2.53,0-5.05-.07-7.54-.29a2.17,2.17,0,0,1-1.81-2.53c0-.31-.11-.63-.11-1,1.06-21.56.7-43.45.53-64.87,0-1.8-1.48-5.62.85-7a3.73,3.73,0,0,1,2-.44c.59,0,1.2.07,1.76.08.38,0,.76,0,1.14,0,4.55,0,9.7-.75,14.34-.75h.31c.49,0,1.17,0,1.92,0m0-22c-.61,0-1.19,0-1.71,0H454c-3.18,0-6.23.24-8.93.44-2.05.16-4,.31-5.41.31h-.49c-.51,0-1.38-.09-2.41-.09a25.44,25.44,0,0,0-13.31,3.59A24.7,24.7,0,0,0,411.58,40a32.61,32.61,0,0,0,.38,7.9l.06,6.51c.16,18.45.33,37.53-.57,55.86l0,.54v.54c0,.73,0,1.41.09,2a24.27,24.27,0,0,0,20.1,23.16l.91.15.91.08c2.9.25,5.9.37,9.45.37,2.51,0,4.94-.06,7.28-.12,1.86,0,3.61-.08,5.31-.09a27.27,27.27,0,0,0,16.68-5.3,25.44,25.44,0,0,0,9.92-18.07l0-.14v-.13a448,448,0,0,0,1.22-73.95v-.08c-.79-11-9.6-22.9-27.09-22.9Z"/><path class="cls-1" d="M489,125.94a12.32,12.32,0,0,1-2.55-.25c-5.59-1.12-11.38-6.51-11.38-13.59v-.46c.6-14.38.82-27.61.66-40.12h-.17c-.88,0-3.16.07-3.93.12a11.82,11.82,0,0,1-1.57.1,14.42,14.42,0,0,1-14-12.66c-.12-1.11-.14-2.67-.17-6.83,0-1.66,0-4.14-.07-4.87-.13-1.38-.4-3-.63-4.42a14.8,14.8,0,0,1,14.14-16.58l2.89.05c.91,0,1.82.05,2.71.05h.77c3.1-.06,6.23-.16,9.36-.26,2.54-.08,5.08-.16,7.6-.22,1.11,0,3.75,0,8,0,4.75,0,12.72,0,14.18-.13,2.22-.13,4.47-.29,6.72-.44,3.37-.24,6.87-.49,10.33-.64h.57a13.13,13.13,0,0,1,9.39,4,14.13,14.13,0,0,1,4.07,10c0,2.72-.09,5.45-.16,8.18-.08,3.22-.16,6.55-.16,9.78A13.16,13.16,0,0,1,532.37,69.8c-.32,0-.64,0-1,0q-2.59.28-5,.51c.11,2.63.22,5.24.29,7.83.31,10.86.59,22.15.85,32.82,0,1.38-.12,13.56-15.94,14.39-.65,0-1.59,0-3.22,0l-5.32,0-5.67,0c-1.63,0-2.36,0-2.67,0l-.59.08A36,36,0,0,1,489,125.94Z"/><path class="cls-2" d="M532.45,35.72a2.73,2.73,0,0,1,2.46,2.88c-.06,6-.32,12-.32,18.06a2.17,2.17,0,0,1-2.22,2.14,2.56,2.56,0,0,1-.76-.12c-5.52.61-11.05,1.11-16.57,1.38.1,6.15.47,12.34.64,18.35.3,10.84.59,22.12.85,32.78.06,2.59-3.35,3-5.53,3.13-.46,0-1.41,0-2.64,0-3,0-7.68-.06-11-.06-1.69,0-3,0-3.58.06s-3.6.58-4.83.58a1.87,1.87,0,0,1-.38,0c-1-.21-2.55-1.64-2.55-2.81.73-17.39,1-34.64.43-52-3.3.07-6.64.3-9.89.42-.94,0-5.43.1-6.27.23l-.27,0a3.52,3.52,0,0,1-3-2.83c-.14-1.32-.08-10-.22-11.46-.16-1.76-.46-3.63-.74-5.29-.24-1.45,1.63-3.78,3.28-3.78h0c1.84,0,3.76.1,5.59.1h1c5.64-.12,11.37-.35,17-.49,2.76-.06,19.68,0,22.52-.19,5.58-.32,11.32-.83,16.9-1.07h.09m0-22c-.34,0-.69,0-1,0-3.63.16-7.2.41-10.65.65-2.28.16-4.42.31-6.53.44-1.65.07-9.44.09-13.63.11-4.42,0-7,0-8.21.05-2.55.06-5.12.14-7.69.22-3,.1-6.21.2-9.22.26h-.55c-.71,0-1.55,0-2.44-.05l-3,0h-.11a25.78,25.78,0,0,0-25,29.38c.14.88.38,2.29.5,3.39,0,.87,0,2.83,0,4.17,0,4.67.06,6.31.23,7.93a25.46,25.46,0,0,0,19.62,21.91c0,9.18-.27,18.8-.7,29l0,.46v.46c0,11.58,8.69,22.06,20.22,24.38a24,24,0,0,0,4.71.46,45.51,45.51,0,0,0,6.65-.63h1.76l5.6,0,5.39,0c1.86,0,2.93,0,3.8-.07,18.52-1,26.64-14,26.36-25.64-.29-12-.54-21.71-.79-30.45a24.13,24.13,0,0,0,18.86-23.54c0-3.09.07-6.21.16-9.51.06-2.71.13-5.51.16-8.35a25.28,25.28,0,0,0-7.26-17.88,24.07,24.07,0,0,0-17.2-7.2Z"/><path class="cls-1" d="M545.93,123.5c-1.85,0-3.56,0-5.2-.15l-.47,0-.46-.07a13.23,13.23,0,0,1-8.73-5.25,13,13,0,0,1-2.52-7.73,13.15,13.15,0,0,1-.07-1.35v-.53c.91-18.6.74-37.78.58-56.34L529,44.54,529,44.2c-1.25-7.65.79-13.2,6.07-16.51a14.76,14.76,0,0,1,8.05-2.17l1.19,0,.37,0c2.07,0,4.48-.25,7-.52,2.72-.28,5.53-.57,8.39-.63l.48,0c.68,0,1.48-.08,2.31-.08,10.8,0,15.11,6.77,15.53,12.56a437.79,437.79,0,0,1-1.2,72.19v.14c-.92,8.29-6.69,13.41-15.45,13.71-1.82.06-3.65.15-5.48.24C552.9,123.32,549.45,123.5,545.93,123.5Z"/><path class="cls-2" d="M562.86,35.31c2.08,0,4.41.35,4.55,2.34A427,427,0,0,1,566.25,108c-.32,2.88-1.62,3.81-4.89,3.92-5.12.17-10.31.59-15.43.59-1.52,0-3,0-4.54-.13a2.11,2.11,0,0,1-1.81-2.48c0-.32-.1-.63-.1-1,1-21.56.69-43.47.53-64.89,0-1.79-1.49-5.57.85-7a4,4,0,0,1,2.21-.49c.51,0,1,0,1.51,0h.14c4.86,0,10.53-1.05,15.58-1.15.61,0,1.56-.1,2.56-.1m0-22c-1.2,0-2.21.06-2.88.09h-.27c-3.27.08-6.4.4-9.17.69-2.14.22-4.35.45-5.77.46h-.12c-.52,0-1,0-1.58,0a25.64,25.64,0,0,0-13.94,3.88,24.84,24.84,0,0,0-11.5,19.18,32,32,0,0,0,.39,7.9c0,2.22,0,4.45.05,6.68.16,18.4.33,37.42-.57,55.7l0,.53v.53c0,.68,0,1.3.07,1.87a23.94,23.94,0,0,0,4.63,13.71,24.33,24.33,0,0,0,16,9.64l.93.14.93.05c1.87.12,3.78.17,5.86.17,3.8,0,7.4-.18,10.88-.36,1.85-.1,3.6-.18,5.29-.24,14.28-.48,24.49-9.7,26-23.5l0-.13v-.13a448.56,448.56,0,0,0,1.22-74v-.08c-.79-11-9.41-22.77-26.5-22.77Z"/><path class="cls-1" d="M603.54,120.52a48.48,48.48,0,0,1-13.06-1.71l-.32-.09a39.65,39.65,0,0,1-14.57-8.06,35.16,35.16,0,0,1-8.94-13c-2.16-5.41-2.65-10.88-3-16.47-.36-5.79-.66-20.67,4.18-33.58,1.5-4.07,6-14.32,15.12-19.84s20.33-6.15,28-6.15c3,0,5.89.11,8.55.22,6.92.31,13.3,2.47,18,6.1a29.38,29.38,0,0,1,8.94,12c2.83,6.8,3.27,14.07,3.47,20.34.23,7.57.19,18.88-2.86,29.62-2.26,8-6.37,15-11.56,19.87-4.54,4.23-10.6,7.27-18,9A60.55,60.55,0,0,1,603.54,120.52Z"/><path class="cls-2" d="M611,32.65c2.77,0,5.49.1,8.07.21,4.13.18,8.5,1.31,11.68,3.79a18.25,18.25,0,0,1,5.52,7.53c2.12,5.07,2.48,10.92,2.65,16.5.27,8.63,0,17.84-2.44,26.27-1.52,5.37-4.35,11-8.49,14.84-3.53,3.29-8.39,5.26-13.06,6.37a49.62,49.62,0,0,1-11.34,1.36,37.73,37.73,0,0,1-10.11-1.3,28.52,28.52,0,0,1-10.51-5.76,24.23,24.23,0,0,1-6-8.85c-1.61-4-2-8.68-2.23-13.06-.56-9.14.22-20.3,3.5-29,2-5.51,5.73-11.4,10.52-14.3,6.16-3.73,14.39-4.56,22.29-4.56m-3.89,51.58a6.79,6.79,0,0,0,3.15-.77,10.07,10.07,0,0,0,4.35-5.12,24.86,24.86,0,0,0,1.38-14.94,6.81,6.81,0,0,0-7-5.67,7.54,7.54,0,0,0-6.81,3.86,24,24,0,0,0-2.65,11.92c.09,2.85.53,5.93,2.12,8.07a6.81,6.81,0,0,0,5.45,2.65M611,10.65h0c-9,0-22.23.8-33.69,7.75s-17.34,18.92-19.74,25.45c-5.37,14.34-5.34,30-4.84,38.05.38,6.26,1,12.95,3.76,19.88a46.39,46.39,0,0,0,11.81,17.08,50.68,50.68,0,0,0,18.64,10.36l.32.1.32.09a59.8,59.8,0,0,0,16,2.11,71.29,71.29,0,0,0,16.41-2c9.32-2.21,17.06-6.14,23-11.69,6.64-6.2,11.84-15,14.64-24.91,3.47-12.21,3.53-24.66,3.27-33-.22-7.24-.76-15.67-4.29-24.18a40.1,40.1,0,0,0-12.35-16.53C636,12.86,626.48,11.17,620,10.88c-2.79-.12-5.82-.23-9-.23Z"/><path class="cls-1" d="M648.37,119a19.75,19.75,0,0,1-2.83-.16,13,13,0,0,1-10.82-14.32l0-.35,0-.25c.22-2,.38-10.81.44-14.14,0-1.54,0-2.74.07-3.35.53-17.08.41-34.36.21-50.49V31.64l.2-1.06a13.23,13.23,0,0,1,12.11-10.81,27.72,27.72,0,0,1,3-.12c1,0,2.17,0,3.19.05l1.46,0c.71-.07,2.59-.34,4.13-.56A120.35,120.35,0,0,1,674,17.66a13.16,13.16,0,0,1,9.31,3.24,6.67,6.67,0,0,1,.59.6,13.42,13.42,0,0,1,9.43-5c1.53-.1,3.16-.27,4.89-.44,3.33-.33,7.11-.71,11-.71,1.81,0,3.5.08,5.15.24a12.55,12.55,0,0,1,10.06,5.87A14.68,14.68,0,0,1,726,33.73c-.06.61-.15,1.93-.17,4.69v.35c-.11,8.82-.22,17.43-.42,25.86-.14,5.79-.34,11.71-.52,17.44-.2,6.09-.41,12.4-.54,18.41a13.11,13.11,0,0,1-12.81,12.94c-.22,0-.45,0-.67,0-.92.08-2.92.35-3.94.48-1.63.22-2.39.32-3.1.36-3.9.23-8.05.6-12.05,1-1.93.17-3.85.34-5.74.49a10.35,10.35,0,0,1-1.1,0,12.41,12.41,0,0,1-7.53-2.5A12.65,12.65,0,0,1,670,117.7a65.69,65.69,0,0,1-12.2,1c-1.09,0-2.18,0-3.24.08h-.22C652.57,118.89,650.09,119,648.37,119Z"/><path class="cls-2" d="M709.24,26.39a43.08,43.08,0,0,1,4.53.23h.11c1.52,0,2.22,2.53,1.59,3.9s-.62,6.75-.64,8.12c-.1,8.51-.22,17.22-.42,25.72-.29,12-.8,24.18-1.06,35.87a2.12,2.12,0,0,1-1.81,2.19h-.21a1.62,1.62,0,0,0-.34,0c-1.68,0-6.86.81-7.82.87-5.93.36-12.14,1-18,1.46h-.2a1.6,1.6,0,0,1-1.29-.64c-1.16-1.62-4.77-10.81-5.62-12.77-2.44-6-5.09-11.95-7.74-17.93q-.52,15.3-.53,30.62c0,1.16-.85,2.71-1.91,2.89-4.57.95-9.34.73-13.8.92-.71,0-3.83.17-5.68.17a8.84,8.84,0,0,1-1.22,0,2,2,0,0,1-1.48-2.34c.42-2.58.56-16.31.63-18.84.52-16.81.43-34,.22-51V32.71a2.21,2.21,0,0,1,1.92-1.95h.2a12.2,12.2,0,0,1,2.18-.12c1.65,0,3.74.08,4.76.08H656c2.15-.1,13.47-2.06,18-2.06a3.39,3.39,0,0,1,1.81.29,24.16,24.16,0,0,1,1.28,2.14c5.23,9.73,10.21,19.77,14.53,29.94-.08-10-.22-20-.32-29.91,0-1.26,1.18-3.5,2.76-3.61,4.81-.32,10-1.12,15.19-1.12m0-22a121.1,121.1,0,0,0-12.12.76c-1.64.17-3.19.32-4.54.41a23.87,23.87,0,0,0-9.43,2.61A26.91,26.91,0,0,0,674,6.66a125,125,0,0,0-15.93,1.62l-3.15.44-.62,0c-1,0-2.27,0-3.47,0s-2.5,0-3.84.15a24.25,24.25,0,0,0-22.05,19.66l-.41,2.1v5.51c.2,16,.32,33.14-.21,50,0,.63,0,1.89-.07,3.49,0,2.66-.19,10.55-.37,13l0,.18-.07.7a24,24,0,0,0,20.17,26.29,29.26,29.26,0,0,0,4.43.28c1.92,0,4.43-.1,6.4-.18h.2c.88,0,1.9-.05,3-.07a76.14,76.14,0,0,0,14.19-1.25A23.44,23.44,0,0,0,679,126a23.39,23.39,0,0,0,6,.77c.66,0,1.34,0,2-.08l5.82-.5c3.92-.35,8-.71,11.72-.93,1.15-.07,2.19-.21,3.91-.44.71-.09,2-.27,2.86-.36h.29c12.83,0,23.51-10.63,23.8-23.69.14-6,.34-12.23.54-18.3.19-5.75.38-11.7.52-17.53.21-8.49.32-17.14.43-26v-.38c0-1.38,0-2.29.06-2.87a25.57,25.57,0,0,0-3.18-20.08A23.53,23.53,0,0,0,715.16,4.65c-1.91-.17-3.86-.26-5.92-.26Z"/><path class="cls-1" d="M726.82,113.8c-7,0-10.46-3.71-11.89-5.93l-.28-.43-.24-.46a15.17,15.17,0,0,1-1.58-5.65v-.14a67.28,67.28,0,0,1-.33-7.33c0-1.18,0-2.3-.06-3.31C712,80.18,717,75.79,721.29,73.94l.12,0c-7.71-8.68-11.25-18.07-10.55-28,1.33-18.75,18.55-31.67,46.08-34.54A59.46,59.46,0,0,1,763,11c4.28,0,9.68.54,13.41,4.71,3.28,3.66,3.55,8.45,3.54,13v.17c0,.6,0,2.63,0,4.66s-.05,3.81-.05,4.37c0,6.93-4.93,14.54-15.75,14.87h-.3c6,4.49,17,13.37,17.42,29.61a29.4,29.4,0,0,1-3.76,15.07l-.12.22-.14.22c-7.18,11.39-21,13.27-30.21,14.52l-1.72.24a96.75,96.75,0,0,1-10.74.73c-1.67,0-3.24.09-4.74.19l-.29,0C728.9,113.71,727.93,113.8,726.82,113.8Z"/><path class="cls-2" d="M763,22c2.54,0,4.55.3,5.21,1s.74,4.6.74,5.88-.1,7.86-.1,9c0,3.19-2.79,3.81-5.09,3.88-13.72.42-19.48,11-7.31,19.25,6.36,4.73,13.49,10.81,13.78,21.65a18.55,18.55,0,0,1-2.33,9.35c-4.77,7.56-15.65,8.54-24.16,9.74-4.83.67-9.87.53-14.63.83-.56,0-1.44.15-2.33.15a3.1,3.1,0,0,1-2.65-.9,5.75,5.75,0,0,1-.43-2c-.36-3.09-.17-6.6-.32-9.84-.08-1.88-.21-5,2.23-6a12.51,12.51,0,0,1,2.28-.17h1.21c3.46,0,9.7-.72,11.35-3.65,1.06-1.9-1.27-4.66-4.24-7.38-8.22-6.68-15.19-15.3-14.42-26.18,1.2-16.91,22.52-23,36.25-24.38a49.12,49.12,0,0,1,5-.29m0-22a70.12,70.12,0,0,0-7.24.41C723,3.83,701.6,21,699.89,45.11a45.77,45.77,0,0,0,6.61,27c-3.09,4.24-5.43,10.31-5.06,18.89,0,.8,0,1.82,0,2.9a76.91,76.91,0,0,0,.39,8.48v0a26.24,26.24,0,0,0,2.76,9.6l.48.92.57.87c2.13,3.29,8.45,11,21.12,11,1.61,0,3-.13,3.71-.19h.12c1.28-.08,2.72-.12,4.25-.17a104.52,104.52,0,0,0,11.93-.83l1.68-.23c10.52-1.43,28.12-3.83,38-19.55l.27-.44.25-.45a40.47,40.47,0,0,0,5.19-20.78,44,44,0,0,0-9.07-25.77A25.81,25.81,0,0,0,790.89,38c0-.56,0-2.39.05-4.22,0-2.09,0-4.19,0-4.81v-.15c0-4.65,0-13.29-6.35-20.4C777.16,0,766.53,0,763,0ZM722.15,89.8Z"/><path class="cls-1" d="M43.77,99.24C38.94,98.12,33.6,95.85,30.31,92A30.63,30.63,0,0,1,24.49,80.8a64.25,64.25,0,0,1-2-16.11,147.2,147.2,0,0,1,.53-18,54.53,54.53,0,0,1,1.49-8.78,26.22,26.22,0,0,1,5.93-11.34A18.86,18.86,0,0,1,38.37,22a22.45,22.45,0,0,1,8.68-.39c4.06.43,8.38,1.26,12.51,1.61,1.8.16,3.85-.19,5.41.78s2.19,1.92,2.22,4.43c.06,3.46,0,7,0,10.51,0,2.55.43,6.73-2.12,6.94a5.77,5.77,0,0,1-1.37-.12c-3.4-.6-11.77-1.32-14.21.8-4,3.79-3.71,17.19-2.86,22.89a18.7,18.7,0,0,0,1.91,6,7.32,7.32,0,0,0,3.6,3.08,17.62,17.62,0,0,0,3.18.8c1.06.2,7.21.94,8.27,1a2.39,2.39,0,0,1,2.12,2.41,2.72,2.72,0,0,1,.64,1.65c.05,1.87.66,12.61.53,14.48a2,2,0,0,1-2.12,2,2.76,2.76,0,0,0-1.06.23A91,91,0,0,1,43.77,99.24Z"/><path class="cls-1" d="M91,100.18a33.65,33.65,0,0,1-10.5-7.08,28.94,28.94,0,0,1-6-9.62c-1.61-4.24-2-8.94-2.22-13.35-.56-9,.17-20,3.5-28.59,2-5.25,5.77-10.71,10.49-13,8.6-4.09,20.66-2.15,30.34-.5a23.43,23.43,0,0,1,11.67,5.27,21.67,21.67,0,0,1,5.52,8.22c2.12,5.34,2.48,11.24,2.65,16.84.27,8.67,0,17.84-2.44,26-1.52,5.17-4.36,10.43-8.49,13.76-3.52,2.85-8.38,4.2-13,4.72A44.65,44.65,0,0,1,91,100.18ZM107.7,77.55A8.4,8.4,0,0,0,112.05,73a24.08,24.08,0,0,0,1.38-14.76,8.62,8.62,0,0,0-2.76-4.77c-3.18-2.67-8.9-2.63-11,1.21A22.29,22.29,0,0,0,97,66.24c.09,2.86.53,6,2.12,8.34A7.49,7.49,0,0,0,107.7,77.55Z"/><path class="cls-1" d="M213.64,110.92c-2.06-.16-3.38-1.66-3.4-4.19-.05-6.75-.21-13.5,0-20.18-1.8,2.68-7.4,14.79-11.47,14.53-3.35-.22-7-.51-10.3-.64-2-.07-6.16.21-7.11-1.54a9,9,0,0,0-.85-1c-2.87-4.62-5.52-9.23-8.28-14,0,4.78-.06,9.61-.11,14.44-.06,6.09.32,10.32-6.9,9.9-2.23-.13-16-.86-18.25-1-1.28-.08-3.3-.1-3.51-2.13s-.33-13.31-.32-15.31c.11-18.8.55-38,2.45-56.86.21-2,.95-3.44,3.39-3.29,5.84.36,11.59.91,17.62.95,2.23,0,5.86-.29,6.48,1.86s5.73,13.48,6.69,15.66c4,8.73,7.84,17.59,11.14,26.6.53-1.46,3.4-10.55,3.93-12,2.55-7.72,5.42-15.44,8.6-22.93,1.81-3.73,2.23-6.47,6.59-6.26,1.17,0,8.39.06,9.56.11,2.87.13,5.84.37,8.71.49,3.4.14,8.49-.5,8,2.88-.1.52.11,3.19.11,3.72.31,20.56,0,41.13.32,61.7,0,1.48.42,6.7-.32,8C234.78,113,217.05,111.18,213.64,110.92Z"/><path class="cls-1" d="M268,114.11c-6.81-.32-13.92-1-21.14-1.27a2.27,2.27,0,0,1-2.23-3,.39.39,0,0,0,.1-.31c.62-9.81.88-19.73,1.07-29.48.22-12.22.28-24.75.42-36.93a8.6,8.6,0,0,1,3.83-7.39c1.38-.7,7.13-.37,8.81-.33,5.9.16,12,.29,18,1,4.56.55,9.48,1.44,13.28,4.09a19.93,19.93,0,0,1,6.59,8.67A42.16,42.16,0,0,1,299.91,67a34.38,34.38,0,0,1-2.55,13.1,16.76,16.76,0,0,1-4.89,6.56,24.93,24.93,0,0,1-8.71,4,49,49,0,0,1-12.54,1.43,186.66,186.66,0,0,1-.32,18.78,4,4,0,0,1-.74,2.21A3,3,0,0,1,268,114.11Zm4.14-41.06a13.23,13.23,0,0,0,5.74-1.2,6.36,6.36,0,0,0,2.45-2.59c1.16-2.72,0-9-1.6-11.51-1.39-2.11-4.35-2.68-6.8-3.07C272,57,272.17,70.71,272.17,73.05Z"/><path class="cls-1" d="M305,109.94c.2-4.47.51-9.36.64-14,.4-14.5.69-29.16,1.59-43.71.11-1.7.08-11.19.43-12.84.28-1.35,2.18-2.16,3.5-2.36,1.61-.25,10.76.3,12.44.35,8.82.27,17.85.41,26.78.51,3.3,0,7.44.72,6.7,5.27-.11,1.38-.22,10.09-.22,11.47,0,1.91.83,8.26-2.33,8.26-6.12,0-12.33-.15-18.39-.14-1.57,0-3.3.17-4.89.25,0,2,0,4-.11,6.15,5.21.09,10.47.32,15.63.44,1.89,0,2.34,1.83,2.34,3.43,0,4-.06,8.22-.22,12A3.32,3.32,0,0,1,346,87.63c-4.84-.22-10.09-.56-15.19-.43-.11,1.8-.11,3.6-.11,5.3,4,.07,8.08-.19,12.12-.13,1.8,0,10.65.21,12.43.57,2.11.42,1.84,3.37,1.7,5-.37,4.27-.21,8.91-.21,13.37,0,3.61-3.41,3.26-6.38,3.22-12.31-.16-24.75-.57-37-.92C309.82,113.52,304.78,115.1,305,109.94Z"/><path class="cls-1" d="M382.92,114.79c-1-.24-2.56-1.71-2.56-2.88.73-17.38,1-34.63.43-52-3.3,0-6.64.13-9.88.16-1,0-5.43,0-6.28.06-1.47.19-3.15-1.54-3.29-2.89s-.08-10-.21-11.47c-.17-1.77-.47-3.64-.75-5.31-.24-1.46,1.64-3.74,3.3-3.69,2.18.07,4.46.25,6.59.26,5.63,0,11.37,0,17,0,2.77,0,19.69.5,22.54.41,5.58-.17,11.31-.52,16.9-.62a2.8,2.8,0,0,1,2.55,2.95c-.06,6-.32,12-.32,18.05a2.15,2.15,0,0,1-3,1.94c-5.52.46-11,.81-16.58.93.11,6.16.47,12.36.64,18.37.31,10.85.59,22.14.85,32.8.06,2.59-3.35,2.94-5.53,3s-15.08-.52-17.22-.42C387.42,114.41,383.75,115,382.92,114.79Z"/><path class="cls-1" d="M435.74,113.66a2.16,2.16,0,0,1-1.8-2.53c0-.32-.11-.63-.11-.95,1.06-21.56.69-43.45.53-64.88,0-1.79-1.49-5.61.85-7,1.06-.65,2.5-.4,3.72-.36,4.89.15,10.63-.76,15.73-.73,1.87,0,6.91-.53,7.12,2.44a426.49,426.49,0,0,1-1.17,70.3c-.32,2.87-1.62,3.77-4.89,3.79C449.08,113.78,442.33,114.23,435.74,113.66Z"/><path class="cls-1" d="M489,113.74a3.66,3.66,0,0,1-2.55-2.81c.72-17.39,1-34.64.42-52-3.29.08-6.64.31-9.88.43-.94,0-5.43.1-6.27.23-1.48.22-3.15-1.46-3.3-2.81s-.07-10-.21-11.46c-.17-1.76-.47-3.63-.74-5.3-.24-1.44,1.63-3.78,3.29-3.77,2.18,0,4.47.13,6.59.08,5.63-.11,11.37-.34,17-.48,2.77-.07,19.69,0,22.53-.19,5.58-.32,11.31-.83,16.89-1.07a2.7,2.7,0,0,1,2.55,2.88c0,6-.32,12-.32,18.06a2.19,2.19,0,0,1-3,2c-5.52.62-11,1.11-16.57,1.38.1,6.16.46,12.35.63,18.35.31,10.85.59,22.13.85,32.78.07,2.59-3.35,3-5.52,3.14s-15.08-.12-17.22,0A41,41,0,0,1,489,113.74Z"/><path class="cls-1" d="M541.8,111.2a2.11,2.11,0,0,1-1.81-2.48c0-.32-.11-.63-.11-1,1.06-21.57.7-43.47.53-64.89,0-1.79-1.48-5.58.85-7,1.07-.68,2.5-.46,3.72-.46,4.89,0,10.63-1,15.72-1.15,1.88,0,6.91-.71,7.12,2.25a427,427,0,0,1-1.17,70.34c-.32,2.88-1.62,3.81-4.88,3.92C555.13,111,548.38,111.6,541.8,111.2Z"/><path class="cls-1" d="M593.84,107.05a28.52,28.52,0,0,1-10.51-5.76,24.25,24.25,0,0,1-6.06-8.85c-1.61-4-2-8.68-2.23-13.07-.56-9.13.23-20.29,3.51-29,2-5.51,5.72-11.4,10.51-14.3,8.33-5,20.41-4.79,30.37-4.35,4.13.18,8.5,1.31,11.68,3.79A18.28,18.28,0,0,1,636.63,43c2.12,5.08,2.48,10.93,2.65,16.51.27,8.63,0,17.84-2.44,26.27-1.53,5.37-4.36,11-8.49,14.84-3.53,3.29-8.39,5.26-13.06,6.36C608.28,108.64,600.64,108.94,593.84,107.05Zm16.78-24.76A10.07,10.07,0,0,0,615,77.17a24.94,24.94,0,0,0,1.38-14.94,7.32,7.32,0,0,0-2.76-4.42c-3.18-2.26-8.9-1.51-11,2.61a24,24,0,0,0-2.66,11.92c.09,2.85.53,5.93,2.13,8.07A6.91,6.91,0,0,0,610.62,82.29Z"/><path class="cls-1" d="M654.46,106.65c-.94,0-6,.26-6.9.12a2,2,0,0,1-1.49-2.35c.43-2.57.56-16.3.64-18.83.52-16.81.43-34,.21-51V31.54c.22-1.08,1.06-2.09,2.13-1.94,1.06-.28,6.17,0,7.32-.05,2.6-.12,18.57-3,19.84-1.77a19.71,19.71,0,0,1,1.27,2.14c5.24,9.73,10.22,19.76,14.54,29.94-.09-10-.22-20-.32-29.91,0-1.27,1.18-3.5,2.76-3.61,6.2-.41,12.93-1.62,19.72-.89,1.59-.13,2.34,2.49,1.7,3.9s-.62,6.75-.64,8.12c-.1,8.51-.22,17.22-.42,25.72-.29,12-.8,24.18-1.06,35.87,0,1.14-.9,2.34-2,2.17s-7.12.8-8.16.86c-5.94.35-12.14,1-18,1.46a1.59,1.59,0,0,1-1.49-.64c-1.17-1.61-4.77-10.8-5.62-12.76-2.44-6-5.09-12-7.75-17.93q-.51,15.3-.53,30.62c0,1.16-.85,2.71-1.91,2.89C663.69,106.68,658.91,106.46,654.46,106.65Z"/><path class="cls-1" d="M729.56,101.48c-1.25.07-4.14.55-5-.76a5.67,5.67,0,0,1-.42-2c-.36-3.09-.18-6.6-.32-9.85-.08-1.88-.21-5,2.23-6a17,17,0,0,1,3.18-.16c3.38.05,10-.64,11.66-3.65,1.06-1.9-1.27-4.67-4.24-7.38-8.22-6.69-15.19-15.3-14.42-26.18,1.2-16.92,22.52-22.95,36.25-24.38,4.62-.49,9.1-.44,10.17.75.78.87.74,4.6.74,5.88s-.1,7.86-.1,9c0,3.19-2.8,3.8-5.09,3.87-13.72.42-19.48,11-7.31,19.26,6.36,4.73,13.49,10.81,13.77,21.65a18.35,18.35,0,0,1-2.33,9.35c-4.76,7.56-15.64,8.54-24.16,9.73C739.36,101.32,734.32,101.18,729.56,101.48Z"/></g></g></svg>