<svg xmlns="http://www.w3.org/2000/svg" viewBox="0 0 953.32 196.72"><defs><style>.cls-1{fill:#2a4b9b;}.cls-2{fill:#fff;}.cls-3{fill:#79a640;}</style></defs><g id="Layer_2" data-name="Layer 2"><g id="Layer_1-2" data-name="Layer 1"><path class="cls-1" d="M115.41,186.29a39.62,39.62,0,0,1-17.6-4.13,67.86,67.86,0,0,1-14-9.17,85.84,85.84,0,0,1-11.4-11.64c-.71-.88-1.41-1.75-2.08-2.61a49.93,49.93,0,0,1-1.55,5.81,31.35,31.35,0,0,1-8.51,13.32c-4.54,4.17-10.67,6.28-18.24,6.28-7.33,0-13.39-1.75-18-5.22a29,29,0,0,1-9.56-12.33,47.17,47.17,0,0,1-3.29-14c-.37-4.17-.63-8.29-.78-12.22-.29-4.13-.44-8.35-.44-12.55v-12c0-3.48,0-8.35.11-14.48L10.32,82c.07-6.66.22-13,.44-18.81.29-7.91.6-10.92.82-12.47A36.53,36.53,0,0,1,17,35.52,42.63,42.63,0,0,1,28.82,23.19a58.06,58.06,0,0,1,17.22-8,80.77,80.77,0,0,1,22.41-2.86A131.11,131.11,0,0,1,89,14.2a69.81,69.81,0,0,1,23.25,8.13,56.55,56.55,0,0,1,19.15,17.91c5.4,8,8.14,18.38,8.14,30.79,0,9.38-1.49,17.46-4.41,24a48.56,48.56,0,0,1-11.26,16.15,49.77,49.77,0,0,1-14.36,9.36c-.62.26-1.24.52-1.86.76,1.36.73,2.76,1.48,4.18,2.26a113,113,0,0,1,13.41,8.6,60.52,60.52,0,0,1,11.15,10.67,25.44,25.44,0,0,1,5.93,16.09,27.28,27.28,0,0,1-7.56,19.53A26.39,26.39,0,0,1,115.41,186.29ZM86,127.05ZM72,81.81a6.31,6.31,0,0,0,.75-.33,13,13,0,0,0,3.7-2.71,11.39,11.39,0,0,0,2.37-3.66A10.49,10.49,0,0,0,79.68,71,8.48,8.48,0,0,0,77.52,65c-.9-1-2.13-1.93-5-1.93a3.89,3.89,0,0,0-.51,0Z"/><path class="cls-2" d="M68.45,22.36a120.67,120.67,0,0,1,19,1.71,60,60,0,0,1,19.94,7,46.4,46.4,0,0,1,15.75,14.79q6.44,9.56,6.44,25.2,0,12-3.54,19.93a38.59,38.59,0,0,1-8.9,12.87,39.37,39.37,0,0,1-11.47,7.5,74.43,74.43,0,0,1-11.47,3.86q-5.36,1.29-8.9,1.82c-2.35.36-3.53.83-3.53,1.4s1.25,1.5,3.75,2.78,5.61,2.87,9.32,4.72,7.79,4,12.22,6.43a103.82,103.82,0,0,1,12.23,7.83,50.65,50.65,0,0,1,9.32,8.9,15.63,15.63,0,0,1,3.75,9.86q0,7.71-4.71,12.54a16.33,16.33,0,0,1-12.22,4.82,29.57,29.57,0,0,1-13.19-3.1,57.68,57.68,0,0,1-11.9-7.83,75.25,75.25,0,0,1-10.07-10.29q-4.52-5.58-7.94-10.29C70,141.64,68.1,139,66.52,137s-2.64-3.11-3.21-3.11A1.23,1.23,0,0,0,62,135a11.29,11.29,0,0,0-.21,1.83q0,6-.32,12.54a45.14,45.14,0,0,1-2.15,12,21.15,21.15,0,0,1-5.79,9.12q-4,3.65-11.47,3.64c-5.14,0-9.15-1.07-12-3.21a19.2,19.2,0,0,1-6.33-8.15,37.08,37.08,0,0,1-2.57-11q-.54-6.12-.75-11.9-.43-6-.43-12v-12q0-4.92.11-14.36t.21-19.4q.11-10,.43-18.55t.75-11.58a26.51,26.51,0,0,1,4-11.14,32.58,32.58,0,0,1,9.11-9.44,48.15,48.15,0,0,1,14.26-6.54,70.48,70.48,0,0,1,19.61-2.46m.86,69.89a17.41,17.41,0,0,0,7.93-1.82,23.33,23.33,0,0,0,6.44-4.72A21.74,21.74,0,0,0,88.07,79,20.48,20.48,0,0,0,89.68,71,18.43,18.43,0,0,0,85,58.27,15.9,15.9,0,0,0,72.53,53a12.39,12.39,0,0,0-7.29,2.25A7.68,7.68,0,0,0,62,62V86.68A4.48,4.48,0,0,0,64.38,91a10.14,10.14,0,0,0,4.93,1.29M68.45,2.36a90.76,90.76,0,0,0-25.2,3.26A67.81,67.81,0,0,0,23.08,15,52.5,52.5,0,0,0,8.47,30.26,46.48,46.48,0,0,0,1.66,49.41c-.26,1.92-.59,5.26-.9,13.36C.54,68.69.39,75.11.32,81.86L.24,89.4.11,101.25C0,107.41,0,112.32,0,115.83v12c0,4.38.15,8.78.46,13.09.15,4,.42,8.27.8,12.57a57.48,57.48,0,0,0,4,16.94,39,39,0,0,0,12.81,16.5c6.38,4.78,14.45,7.21,24,7.21,12.65,0,20.58-4.85,25-8.92a40.88,40.88,0,0,0,6.64-7.87q1.78,1.68,3.68,3.28a78,78,0,0,0,16,10.5,49.48,49.48,0,0,0,22,5.15,36.16,36.16,0,0,0,26.51-10.83c6.82-7,10.42-16.15,10.42-26.53a35.64,35.64,0,0,0-8.09-22.3,71.11,71.11,0,0,0-13-12.46q-1.89-1.42-3.9-2.79,1.68-1.35,3.3-2.84a58.67,58.67,0,0,0,13.62-19.43c3.49-7.84,5.27-17.29,5.27-28.08,0-14.44-3.32-26.68-9.85-36.37a66.44,66.44,0,0,0-22.52-21A80.07,80.07,0,0,0,90.62,4.33a140.59,140.59,0,0,0-22.17-2Z"/><path class="cls-1" d="M199,185c-16.29,0-28.84-3-38.37-9.23a55.69,55.69,0,0,1-20.81-24,90.16,90.16,0,0,1-7.4-30.75c-.73-10.3-1.09-20.85-1.09-31.36,0-9.42.18-18.33.54-26.49A121.66,121.66,0,0,1,135,39.92c1.89-7.69,4.93-14,9.06-18.69,3.47-3.95,9.84-8.66,20.49-8.66,7.33,0,13.32,2.15,17.8,6.38A32.59,32.59,0,0,1,190.65,32a54.28,54.28,0,0,1,2.91,14.32c.3,4.38.45,8.51.45,12.27,0,7.5-.15,15.13-.44,22.68-.28,7.22-.42,14.59-.42,21.92,0,3.2.14,6.66.41,10.31a38.53,38.53,0,0,0,1.6,8.79,13.84,13.84,0,0,0,2.56,4.93,3.47,3.47,0,0,0,.66,0,4.89,4.89,0,0,0,2.89-.6c.59-.59,1.72-2.12,2.63-5.76a72.43,72.43,0,0,0,1.74-14.72c.21-6.51.32-14.09.32-22.51,0-7.2-.21-14.44-.63-21.5-.44-7.45-.66-15.08-.66-22.67,0-10.78,4.61-17.17,8.47-20.63,5.31-4.76,12-7.17,19.75-7.17,6.58,0,12.24,1.45,16.84,4.29a28.62,28.62,0,0,1,10.65,11.75,46.43,46.43,0,0,1,4.3,15,134.49,134.49,0,0,1,.94,16.46V80c0,7.64-.15,15.44-.44,23.21a189,189,0,0,1-2.26,23.21A106.37,106.37,0,0,1,257,148.24a61.31,61.31,0,0,1-11.81,19.07,53,53,0,0,1-19.36,13.11C218.29,183.46,209.27,185,199,185Z"/><path class="cls-2" d="M232.89,21.71c4.72,0,8.58.94,11.58,2.79a18.76,18.76,0,0,1,7,7.72A36.46,36.46,0,0,1,254.76,44a123.79,123.79,0,0,1,.86,15.22V80q0,11.37-.43,22.83a179,179,0,0,1-2.14,22,95.54,95.54,0,0,1-5.36,19.72,51.17,51.17,0,0,1-9.87,16,42.89,42.89,0,0,1-15.75,10.61Q212.52,175,199,175q-21.22,0-32.91-7.61A45.56,45.56,0,0,1,149,147.67a79.26,79.26,0,0,1-6.54-27.33q-1.08-15.23-1.07-30.66,0-13.94.53-26.05a111.56,111.56,0,0,1,2.79-21.33q2.25-9.22,6.86-14.47t13-5.26q7.08,0,10.93,3.65a22.49,22.49,0,0,1,5.79,9.11A44,44,0,0,1,183.58,47q.43,6.23.43,11.58,0,11.14-.43,22.3t-.43,22.3q0,5.15.43,11a49.11,49.11,0,0,0,2,11,23.21,23.21,0,0,0,4.61,8.57,10.25,10.25,0,0,0,8.15,3.43c4.28,0,7.61-1.17,10-3.53s4.11-5.82,5.26-10.4a81.32,81.32,0,0,0,2-16.83q.33-10,.33-22.83,0-11.15-.65-22.09t-.64-22.08q0-8.58,5.14-13.19a18.9,18.9,0,0,1,13.08-4.61m0-20a38.89,38.89,0,0,0-26.42,9.71,34.68,34.68,0,0,0-8.63,12,41.62,41.62,0,0,0-8.67-11.7c-4.4-4.16-12.25-9.11-24.67-9.11-14.4,0-23.17,6.56-28,12.06-5.21,5.93-9,13.64-11.26,22.92a131.19,131.19,0,0,0-3.34,25.2c-.37,8.3-.55,17.37-.55,26.93,0,10.74.37,21.53,1.12,32.07a99.46,99.46,0,0,0,8.26,34.15,65.49,65.49,0,0,0,24.47,28.26C166.4,191.46,180.73,195,199,195c11.54,0,21.82-1.79,30.54-5.32a62.88,62.88,0,0,0,23-15.6,71,71,0,0,0,13.75-22.17,115.11,115.11,0,0,0,6.5-23.85,199.53,199.53,0,0,0,2.4-24.45c.29-7.9.44-15.83.44-23.59V59.23a144.54,144.54,0,0,0-1-17.69,56.64,56.64,0,0,0-5.28-18.25A38.52,38.52,0,0,0,255,7.5c-6.21-3.84-13.65-5.79-22.11-5.79Z"/><path class="cls-1" d="M288.21,184.58A24.27,24.27,0,0,1,267,172.94c-3.59-5.69-6.22-12.89-7.8-21.4a156.62,156.62,0,0,1-2.42-26.12c-.15-8.94-.22-17.94-.22-26.74,0-5.76,0-11.47.11-17,.07-5.66.11-11.28.11-16.7a122.91,122.91,0,0,1,1.16-16.81,62.24,62.24,0,0,1,4.5-16.47A34.91,34.91,0,0,1,273,18c5-3.89,11.29-5.86,18.69-5.86,6.48,0,12.68,2.76,18.44,8.2A83.82,83.82,0,0,1,322.78,36c3,4.66,5.88,9.62,8.62,14.8q.18-3.69.58-7.13c.95-8.1,3.1-15,6.4-20.49,4.36-7.28,11.6-11.29,20.36-11.29,7.73,0,13.75,1.32,18.42,4A26.69,26.69,0,0,1,388,27.7a39.3,39.3,0,0,1,3.53,15.07c.22,4.5.34,9.46.34,14.75s-.07,11.13-.22,17.8-.33,12.93-.54,19-.39,11.7-.53,16.75-.21,8.7-.21,11.2c0,7.5-.27,14.65-.78,21.25a69.42,69.42,0,0,1-4.07,19.32,35,35,0,0,1-11.14,15.36c-5.28,4.09-12.21,6.17-20.6,6.17-6.5,0-12.63-2.51-18.21-7.45a71.28,71.28,0,0,1-12.1-14.19q-3-4.56-5.78-9.61c0,.71-.08,1.43-.13,2.17a40.37,40.37,0,0,1-2.85,12.53,27.53,27.53,0,0,1-9,11.73C301.3,182.89,295.41,184.58,288.21,184.58Z"/><path class="cls-2" d="M358.74,21.93q8.79,0,13.4,2.68A16.74,16.74,0,0,1,379,32a29.39,29.39,0,0,1,2.58,11.25q.32,6.54.32,14.26,0,7.93-.22,17.58T381.15,94c-.22,6.14-.4,11.76-.54,16.83s-.21,8.89-.21,11.47q0,10.94-.75,20.47a59.55,59.55,0,0,1-3.43,16.51,24.9,24.9,0,0,1-7.94,11q-5.25,4.08-14.47,4.08-6,0-11.58-4.94a61.23,61.23,0,0,1-10.39-12.22,126.76,126.76,0,0,1-8.9-15.86q-4.08-8.58-7.29-15.87T310,113.26c-1.65-3.28-2.9-4.93-3.76-4.93a1.36,1.36,0,0,0-1.28,1,8.93,8.93,0,0,0-.64,2.25,14.78,14.78,0,0,0-.22,2.57v1.71a65.25,65.25,0,0,0,1.93,15,65.38,65.38,0,0,1,1.93,15q0,3.85-.32,8.79a30.19,30.19,0,0,1-2.15,9.43,17.44,17.44,0,0,1-5.78,7.51q-4,3-11.47,3a14.17,14.17,0,0,1-12.76-7q-4.4-7-6.43-17.9a146.3,146.3,0,0,1-2.25-24.44q-.22-13.51-.22-26.59,0-8.36.11-16.83T266.77,65a111.15,111.15,0,0,1,1.07-15.43,51.82,51.82,0,0,1,3.75-13.83,24.89,24.89,0,0,1,7.5-9.86q4.83-3.75,12.55-3.76,5.79,0,11.57,5.47a73.57,73.57,0,0,1,11.15,13.83,203.53,203.53,0,0,1,10.19,17.9q4.81,9.54,8.57,17.9t6.43,13.83q2.68,5.48,3.54,5.47c.86,0,1.36-.82,1.5-2.47a10.6,10.6,0,0,0,0-3.11q-1.92-11.56-2.89-23.79a114.08,114.08,0,0,1,.21-22.3q1.18-10.08,5-16.51t11.79-6.43m0-20A32.93,32.93,0,0,0,329.8,18.07a51.68,51.68,0,0,0-3.09,6.08A85.81,85.81,0,0,0,317,13.07c-9.57-9-19-10.93-25.31-10.93-9.67,0-18,2.68-24.82,8a44.85,44.85,0,0,0-13.55,17.63A72.3,72.3,0,0,0,248,46.84,131.72,131.72,0,0,0,246.77,65c0,5.36,0,10.94-.11,16.58s-.11,11.26-.11,17.08c0,8.86.07,17.91.22,26.91a167.13,167.13,0,0,0,2.59,27.79c1.81,9.75,4.9,18.14,9.18,24.91a34,34,0,0,0,29.67,16.29c9.43,0,17.35-2.37,23.54-7.06a37.35,37.35,0,0,0,9.72-10.82,73.51,73.51,0,0,0,7.52,7.72c9.28,8.22,18.62,10,24.82,10,10.66,0,19.65-2.79,26.73-8.27a44.78,44.78,0,0,0,14.34-19.66,79.21,79.21,0,0,0,4.7-22.12c.54-6.87.82-14.29.82-22,0-2.4.07-6.07.2-10.91s.31-10.24.53-16.7c.22-6.11.4-12.54.55-19.11.15-6.76.22-12.65.22-18s-.12-10.58-.35-15.24a49.23,49.23,0,0,0-4.5-18.89A37,37,0,0,0,382.21,7.33c-6.26-3.64-13.93-5.4-23.47-5.4Zm-.13,82.44Z"/><path class="cls-1" d="M429.71,183.94c-15.52,0-27.19-4-34.69-11.9s-11.12-19.6-11.12-35.19c0-1.87,0-4.24-.1-7s-.15-5.94-.22-9.25l-.21-9.86c-.08-3.23-.11-6.34-.11-9.22,0-3.76,0-9-.11-16s.07-14.31.44-21.71,1.05-14.65,2-21.23c1.14-7.72,3-13.53,5.57-17.74l.15-.24C397.9,14.63,411.52,10,434.21,10a107.77,107.77,0,0,1,32.39,4.54,62.68,62.68,0,0,1,25.7,15.32c6.95,7,12.27,15.92,15.83,26.66,3.39,10.27,5.11,22.65,5.11,36.8,0,15.35-2,28.83-5.92,40.07-4.05,11.59-9.88,21.29-17.34,28.82a67.82,67.82,0,0,1-27.1,16.71A104.78,104.78,0,0,1,429.71,183.94ZM444.28,68.16a3.92,3.92,0,0,0-1.6.23c-.33.44-1.26,2-1.26,6.28v44a28.38,28.38,0,0,0,.51,5.81,3.37,3.37,0,0,0,2.05-1.1,22.31,22.31,0,0,0,4.53-7.35,51,51,0,0,0,3-12,106.18,106.18,0,0,0,1-14.1c0-1.71-.14-4.26-.4-7.56a34.53,34.53,0,0,0-1.66-8.14,13.31,13.31,0,0,0-3.16-5.2C447.08,68.77,446.49,68.16,444.28,68.16Z"/><path class="cls-2" d="M434.21,20a97.46,97.46,0,0,1,29.37,4.07,52.46,52.46,0,0,1,21.65,12.87q8.79,8.79,13.4,22.72t4.61,33.66q0,21.45-5.36,36.77t-15,25.09a57.76,57.76,0,0,1-23.16,14.25,94.25,94.25,0,0,1-30,4.51q-19.09,0-27.45-8.79t-8.36-28.3q0-3-.11-7.29t-.21-9.22q-.1-4.94-.22-9.86t-.1-9q0-5.79-.11-16.08t.43-21.12q.53-10.81,1.93-20.26t4.18-13.93Q406.34,20,434.21,20m6.86,114.49a13.51,13.51,0,0,0,10.07-4.18,31.93,31.93,0,0,0,6.65-10.62,60.23,60.23,0,0,0,3.65-14.36,116,116,0,0,0,1.07-15.44c0-2-.15-4.78-.43-8.36A44.63,44.63,0,0,0,459.94,71a23.44,23.44,0,0,0-5.47-9q-3.75-3.85-10.19-3.86t-9.64,4.29q-3.22,4.29-3.22,12.22v44a30.43,30.43,0,0,0,1.82,11.47c1.22,2.93,3.82,4.4,7.83,4.4M434.21,0C417.62,0,394.26,2,383,19.07l-.15.23-.15.25c-3.35,5.39-5.62,12.44-7,21.54-1,6.9-1.73,14.37-2.12,22.2-.37,7.59-.53,15.11-.45,22.32.07,7,.11,12.17.11,15.86,0,3,0,6.14.11,9.45s.14,6.57.21,9.87.15,6.39.22,9.28c.07,2.7.1,5,.1,6.78,0,18.25,4.67,32.41,13.87,42.08,9.47,10,23.58,15,41.94,15A114.76,114.76,0,0,0,466,188.41a77.74,77.74,0,0,0,31.06-19.17c8.5-8.59,15.12-19.55,19.66-32.54,4.3-12.31,6.48-26.9,6.48-43.38,0-15.22-1.89-28.65-5.62-39.93-4-12.24-10.19-22.53-18.24-30.59A72.46,72.46,0,0,0,469.62,5a117.41,117.41,0,0,0-35.41-5Z"/><path class="cls-1" d="M577.21,186.29a79.66,79.66,0,0,1-28.56-5A62.69,62.69,0,0,1,524.82,165c-6.64-7.22-11.86-16.36-15.51-27.15-3.55-10.49-5.35-22.93-5.35-37,0-14.7,1.78-27.7,5.3-38.65,3.64-11.32,8.89-20.83,15.6-28.29a64,64,0,0,1,24.6-17A83.93,83.93,0,0,1,580,11.5c23.35,0,41.39,7.58,53.62,22.53,11.75,14.36,17.7,35.24,17.7,62.08,0,27.46-6.22,49.39-18.5,65.2C619.93,177.89,601.23,186.29,577.21,186.29ZM577.42,66a4.09,4.09,0,0,0-1.62,1A22.07,22.07,0,0,0,571,73.35,47,47,0,0,0,566.79,85a70.33,70.33,0,0,0-1.67,15.84A64.73,64.73,0,0,0,566.25,112a46.45,46.45,0,0,0,3.43,11.1,24.3,24.3,0,0,0,5.2,7.54,5.6,5.6,0,0,0,4.26,1.53c2.93,0,3.79-.87,4.07-1.15a17.86,17.86,0,0,0,4-6.62,44.14,44.14,0,0,0,2.33-11.17c.4-4.7.61-9.17.61-13.3a71.5,71.5,0,0,0-1.23-12.67,55.42,55.42,0,0,0-3.62-12.07,25.44,25.44,0,0,0-5.09-7.86A3.59,3.59,0,0,0,577.42,66Z"/><path class="cls-2" d="M580,21.5q30.45,0,45.89,18.87t15.43,55.74q0,38-16.4,59.07t-47.7,21.11a69.21,69.21,0,0,1-25-4.39,52.42,52.42,0,0,1-20.05-13.72q-8.56-9.33-13.4-23.59T514,100.83q0-20.58,4.82-35.59t13.51-24.66a53.88,53.88,0,0,1,20.8-14.36A73.64,73.64,0,0,1,580,21.5m-.85,120.71q7.07,0,11.15-4.08a27.54,27.54,0,0,0,6.32-10.29,53.27,53.27,0,0,0,2.89-13.72q.64-7.5.65-14.15a80.37,80.37,0,0,0-1.4-14.47,64.91,64.91,0,0,0-4.28-14.26,35,35,0,0,0-7.19-10.93A13.54,13.54,0,0,0,577.42,56a12.5,12.5,0,0,0-8,3.32,31.63,31.63,0,0,0-7.18,9.22,56.64,56.64,0,0,0-5.15,14.15,79.93,79.93,0,0,0-1.93,18.12,74,74,0,0,0,1.29,13,56.2,56.2,0,0,0,4.18,13.51,34.09,34.09,0,0,0,7.4,10.61,15.52,15.52,0,0,0,11.15,4.29M580,1.5a93.94,93.94,0,0,0-34.16,6.08,74.07,74.07,0,0,0-28.4,19.62c-7.67,8.51-13.61,19.25-17.69,31.92-3.83,11.94-5.78,26-5.78,41.71,0,15.13,2,28.65,5.88,40.17,4.1,12.13,10,22.46,17.62,30.72a72.48,72.48,0,0,0,27.62,18.86,89.52,89.52,0,0,0,32.13,5.71c13.19,0,25.19-2.35,35.67-7a71.65,71.65,0,0,0,27.83-21.86c13.67-17.6,20.6-41.6,20.6-71.33,0-29.2-6.71-52.22-20-68.41C627.13,10.32,606.48,1.5,580,1.5Zm-1.42,117a36.71,36.71,0,0,1-2.47-8.26,54.41,54.41,0,0,1-1-9.44,60.19,60.19,0,0,1,1.41-13.57c.33-1.43.7-2.77,1.1-4a47.34,47.34,0,0,1,1.45,5.86A60.57,60.57,0,0,1,580.15,100c0,3.84-.19,8-.57,12.44a37.57,37.57,0,0,1-1,6.12Z"/><path class="cls-1" d="M760.08,186.72a37,37,0,0,1-17.26-3.91,55.29,55.29,0,0,1-11.25-7.62c-1.55-1.37-3-2.7-4.27-4-1.37,1.21-2.88,2.49-4.55,3.84a65.81,65.81,0,0,1-10.6,6.95,33.59,33.59,0,0,1-16,3.86c-8.57,0-16.1-1.64-22.37-4.86a45.57,45.57,0,0,1-15.49-12.91,60.58,60.58,0,0,1-9.13-17.45,113,113,0,0,1-4.59-19.05,166.94,166.94,0,0,1-1.82-19.6c-.22-6.3-.33-12.37-.33-18,0-3,0-6.86-.11-11.65s0-10.2.34-15.7a163.81,163.81,0,0,1,1.82-17,71.85,71.85,0,0,1,4.64-16.68,39.72,39.72,0,0,1,9.48-13.83,26,26,0,0,1,18-6.74c8.81,0,14.19,3.63,17.15,6.68a32.81,32.81,0,0,1,7.58,12.75,53.72,53.72,0,0,1,2.52,13.71c.2,3.62.31,6.92.33,9.82q.39-2.67,1-5.08a27.2,27.2,0,0,1,7.61-13.85c4.12-3.86,9.63-5.81,16.37-5.81,6.06,0,10.94,1.18,14.93,3.59a22.06,22.06,0,0,1,9.46,12.36A56.61,56.61,0,0,1,756,62c.22,5.4.33,12.11.33,19.92,0,.8,0,2.54.21,6.31.13,3.12.35,6.67.63,10.55h0c0-2.63,0-5.12,0-7.44V75.31a130.47,130.47,0,0,0-.79-15.52,120.85,120.85,0,0,1-.93-14.28c0-10,2.41-18.09,7.16-24,5.18-6.43,12.62-9.83,21.5-9.83a24.87,24.87,0,0,1,21.31,11.2,58.38,58.38,0,0,1,8.48,20,128.52,128.52,0,0,1,3,22.22c.37,7.44.55,13.56.55,18.73,0,5.81-.15,12.26-.44,19.18a180.27,180.27,0,0,1-2.27,21.7,167.4,167.4,0,0,1-5,21.34,68.57,68.57,0,0,1-9.83,20.08,52.63,52.63,0,0,1-16.13,14.67C777.11,184.75,769.14,186.72,760.08,186.72ZM703.39,88.85c-.13,4.64-.2,9.29-.2,13.91,0,1.11,0,3.35.11,7.73a73.57,73.57,0,0,0,.5,7.36s0-.09,0-.14c.25-2.83.38-5.49.38-7.88,0-3.88-.13-7.88-.4-11.87C703.59,94.94,703.46,91.89,703.39,88.85Z"/><path class="cls-2" d="M784.1,21.71a15,15,0,0,1,13.08,6.87,48.19,48.19,0,0,1,7,16.61,117.31,117.31,0,0,1,2.79,20.48q.54,10.71.54,18.22,0,8.58-.43,18.76a166.68,166.68,0,0,1-2.15,20.47,153.55,153.55,0,0,1-4.71,20,58.27,58.27,0,0,1-8.36,17.15,42.54,42.54,0,0,1-13.08,11.9q-7.72,4.5-18.66,4.5a27.12,27.12,0,0,1-12.64-2.78,44.85,44.85,0,0,1-9.22-6.22q-3.87-3.43-6.44-6.22c-1.71-1.85-3.14-2.79-4.28-2.79s-2.44.9-4.29,2.68-4.11,3.76-6.75,5.9a56.79,56.79,0,0,1-9,5.9,23.67,23.67,0,0,1-11.26,2.68q-10.5,0-17.79-3.76A35.22,35.22,0,0,1,666.29,162a50.22,50.22,0,0,1-7.61-14.58,102.5,102.5,0,0,1-4.19-17.37,156.57,156.57,0,0,1-1.71-18.44q-.33-9.32-.32-17.68,0-4.73-.11-11.8t.32-15a154.07,154.07,0,0,1,1.72-16,61.77,61.77,0,0,1,4-14.36,29.93,29.93,0,0,1,7.08-10.4,15.92,15.92,0,0,1,11.25-4.07q6.44,0,10,3.64a22.82,22.82,0,0,1,5.26,8.9,43.33,43.33,0,0,1,2,11.15q.33,5.89.33,10.4,0,11.58-.54,23.15t-.54,23.16q0,2.35.11,7.93a84.88,84.88,0,0,0,1,11.26A46.08,46.08,0,0,0,696.84,132q1.71,4.39,4.93,4.4a8.35,8.35,0,0,0,6.32-2.58,17.72,17.72,0,0,0,3.86-6.53,36.15,36.15,0,0,0,1.83-8.69q.42-4.71.42-8.79,0-6.21-.42-12.54t-.43-12.54q0-10.08.1-18.23A63.75,63.75,0,0,1,715,52.59a17.38,17.38,0,0,1,4.72-8.9c2.22-2.07,5.39-3.11,9.54-3.11s7.4.72,9.76,2.15a12.27,12.27,0,0,1,5.14,7A47.49,47.49,0,0,1,746,62.45q.33,7.93.32,19.51,0,1.94.22,6.75t.64,10.83c.29,4,.71,8.15,1.29,12.44a98.61,98.61,0,0,0,2.25,11.79,37.62,37.62,0,0,0,3.32,8.79Q756,136,758.8,136q3.86,0,5.57-4.83a48.63,48.63,0,0,0,2.36-11.79,137.56,137.56,0,0,0,.54-14.58q-.12-7.61-.11-13.4V75.31a141.51,141.51,0,0,0-.86-16.72,109.58,109.58,0,0,1-.86-13.08q0-11.58,4.94-17.68t13.72-6.12m0-20c-11.84,0-22.24,4.82-29.29,13.56a39,39,0,0,0-5.87,10.12c-5.46-3.19-12.09-4.81-19.73-4.81A34.28,34.28,0,0,0,709.94,26,42,42,0,0,0,701,12.08c-4.31-4.44-12-9.72-24.33-9.72a35.85,35.85,0,0,0-24.85,9.4A49.81,49.81,0,0,0,639.94,29a81.74,81.74,0,0,0-5.3,19,172.85,172.85,0,0,0-1.94,18.06c-.31,5.72-.43,11.24-.35,16.4.07,4.72.11,8.48.11,11.48,0,5.77.11,12,.33,18.37a176.32,176.32,0,0,0,1.94,20.78,122.19,122.19,0,0,0,5,20.74,70.45,70.45,0,0,0,10.66,20.31,55.21,55.21,0,0,0,18.87,15.73c7.69,4,16.75,6,26.93,6a43.54,43.54,0,0,0,20.65-5A78.42,78.42,0,0,0,727,184.42a67,67,0,0,0,11.22,7.27,46.94,46.94,0,0,0,21.86,5c10.85,0,20.52-2.43,28.74-7.22A62.65,62.65,0,0,0,808,172.06a78.4,78.4,0,0,0,11.28-23,176.32,176.32,0,0,0,5.33-22.64A188.58,188.58,0,0,0,827,103.5c.3-7.07.45-13.66.45-19.61,0-5.33-.19-11.62-.56-19.22a137.52,137.52,0,0,0-3.28-24,68.23,68.23,0,0,0-10-23.45A35,35,0,0,0,784.1,1.71Z"/><path class="cls-1" d="M839.62,184.58a24.27,24.27,0,0,1-21.21-11.64c-3.59-5.69-6.22-12.89-7.8-21.4a156.62,156.62,0,0,1-2.42-26.12c-.15-8.94-.22-17.94-.22-26.74,0-5.77,0-11.48.11-17,.07-5.67.11-11.29.11-16.7a123,123,0,0,1,1.16-16.81,62.35,62.35,0,0,1,4.5-16.47A34.91,34.91,0,0,1,824.37,18c5-3.89,11.29-5.86,18.69-5.86,6.47,0,12.68,2.76,18.44,8.2A83.82,83.82,0,0,1,874.2,36c3,4.66,5.87,9.62,8.62,14.8q.18-3.69.58-7.13c.94-8.1,3.1-15,6.39-20.49,4.37-7.28,11.6-11.29,20.37-11.29,7.72,0,13.75,1.32,18.42,4A26.74,26.74,0,0,1,939.45,27.7,39.48,39.48,0,0,1,943,42.77c.22,4.5.34,9.47.34,14.75s-.07,11.13-.22,17.8-.33,12.92-.54,19-.39,11.7-.53,16.75-.21,8.7-.21,11.2c0,7.5-.27,14.66-.79,21.25A69.07,69.07,0,0,1,937,162.84a35,35,0,0,1-11.14,15.36c-5.28,4.09-12.21,6.17-20.6,6.17-6.5,0-12.63-2.51-18.21-7.45a71.93,71.93,0,0,1-12.11-14.19q-3-4.56-5.77-9.61c0,.71-.09,1.43-.13,2.17a40.59,40.59,0,0,1-2.85,12.53,27.53,27.53,0,0,1-9,11.73C852.72,182.89,846.83,184.58,839.62,184.58Z"/><path class="cls-2" d="M910.16,21.93q8.79,0,13.4,2.68a16.74,16.74,0,0,1,6.86,7.4A29.21,29.21,0,0,1,933,43.26q.33,6.54.33,14.26,0,7.93-.22,17.58T932.57,94c-.22,6.14-.4,11.76-.54,16.83s-.21,8.89-.21,11.47q0,10.94-.75,20.47a59.17,59.17,0,0,1-3.44,16.51,24.81,24.81,0,0,1-7.93,11q-5.25,4.08-14.47,4.08-6,0-11.58-4.94a61.26,61.26,0,0,1-10.4-12.22,128,128,0,0,1-8.89-15.86q-4.08-8.58-7.29-15.87t-5.68-12.22c-1.65-3.28-2.9-4.93-3.76-4.93a1.36,1.36,0,0,0-1.28,1,9.36,9.36,0,0,0-.65,2.25,15.82,15.82,0,0,0-.21,2.57v1.71a65.25,65.25,0,0,0,1.93,15,65.38,65.38,0,0,1,1.93,15q0,3.85-.32,8.79a30.19,30.19,0,0,1-2.15,9.43,17.44,17.44,0,0,1-5.78,7.51q-4,3-11.48,3a14.17,14.17,0,0,1-12.75-7q-4.39-7-6.43-17.9a146.3,146.3,0,0,1-2.25-24.44Q818,111.76,818,98.68q0-8.36.11-16.83T818.19,65a111.15,111.15,0,0,1,1.07-15.43A51.82,51.82,0,0,1,823,35.76a24.8,24.8,0,0,1,7.5-9.86q4.83-3.75,12.55-3.76,5.78,0,11.57,5.47a73.57,73.57,0,0,1,11.15,13.83A203.53,203.53,0,0,1,876,59.34q4.81,9.54,8.57,17.9T891,91.07q2.68,5.48,3.54,5.47c.86,0,1.36-.82,1.5-2.47A10.6,10.6,0,0,0,896,91q-1.92-11.56-2.89-23.79a114.08,114.08,0,0,1,.21-22.3q1.18-10.08,5-16.51t11.79-6.43m0-20a32.92,32.92,0,0,0-28.94,16.14,50.19,50.19,0,0,0-3.09,6.08,85.81,85.81,0,0,0-9.76-11.08c-9.57-9-19-10.93-25.31-10.93-9.67,0-18,2.68-24.82,8a44.85,44.85,0,0,0-13.55,17.63,72.3,72.3,0,0,0-5.24,19.11A131.72,131.72,0,0,0,798.19,65c0,5.37,0,11-.11,16.58S798,92.86,798,98.68c0,8.86.07,17.91.22,26.91a167.13,167.13,0,0,0,2.59,27.79c1.81,9.75,4.9,18.14,9.18,24.91a34,34,0,0,0,29.66,16.29c9.44,0,17.36-2.37,23.55-7.06a37.35,37.35,0,0,0,9.72-10.82,74.5,74.5,0,0,0,7.52,7.72c9.28,8.22,18.62,10,24.82,10,10.66,0,19.65-2.79,26.73-8.27a44.78,44.78,0,0,0,14.34-19.66,79.21,79.21,0,0,0,4.7-22.12c.54-6.87.82-14.29.82-22,0-2.41.06-6.08.2-10.91s.31-10.23.53-16.7c.22-6.11.4-12.54.55-19.11.14-6.76.22-12.65.22-18s-.12-10.58-.35-15.24a49.23,49.23,0,0,0-4.5-18.89A37,37,0,0,0,933.63,7.33c-6.27-3.64-13.93-5.4-23.47-5.4Z"/><path class="cls-3" d="M61.81,136.85q0,6-.32,12.54a45.14,45.14,0,0,1-2.15,12,21.15,21.15,0,0,1-5.79,9.12q-4,3.65-11.47,3.64c-5.14,0-9.15-1.07-12-3.21a19.2,19.2,0,0,1-6.33-8.15,37.08,37.08,0,0,1-2.57-11q-.54-6.12-.75-11.9-.43-6-.43-12v-12q0-4.92.11-14.36t.21-19.4q.11-10,.43-18.55t.75-11.58a26.51,26.51,0,0,1,4-11.14,32.58,32.58,0,0,1,9.11-9.44,48.15,48.15,0,0,1,14.26-6.54,70.48,70.48,0,0,1,19.61-2.46,120.67,120.67,0,0,1,19,1.71,60,60,0,0,1,19.94,7,46.4,46.4,0,0,1,15.75,14.79q6.44,9.56,6.44,25.2,0,12-3.54,19.93a38.59,38.59,0,0,1-8.9,12.87,39.37,39.37,0,0,1-11.47,7.5,74.43,74.43,0,0,1-11.47,3.86q-5.36,1.29-8.9,1.82c-2.35.36-3.53.83-3.53,1.4s1.25,1.5,3.75,2.78,5.61,2.87,9.32,4.72,7.79,4,12.22,6.43a103.82,103.82,0,0,1,12.23,7.83,50.65,50.65,0,0,1,9.32,8.9,15.63,15.63,0,0,1,3.75,9.86q0,7.71-4.71,12.54a16.33,16.33,0,0,1-12.22,4.82,29.57,29.57,0,0,1-13.19-3.1,57.68,57.68,0,0,1-11.9-7.83,75.25,75.25,0,0,1-10.07-10.29q-4.52-5.58-7.94-10.29C70,141.64,68.1,139,66.52,137s-2.64-3.11-3.21-3.11A1.23,1.23,0,0,0,62,135,11.29,11.29,0,0,0,61.81,136.85ZM62,86.68A4.48,4.48,0,0,0,64.38,91a10.14,10.14,0,0,0,4.93,1.29,17.41,17.41,0,0,0,7.93-1.82,23.33,23.33,0,0,0,6.44-4.72A21.74,21.74,0,0,0,88.07,79,20.48,20.48,0,0,0,89.68,71,18.43,18.43,0,0,0,85,58.27,15.9,15.9,0,0,0,72.53,53a12.39,12.39,0,0,0-7.29,2.25A7.68,7.68,0,0,0,62,62Z"/><path class="cls-3" d="M199,175q-21.22,0-32.91-7.61A45.56,45.56,0,0,1,149,147.67a79.26,79.26,0,0,1-6.54-27.33q-1.08-15.23-1.07-30.66,0-13.94.53-26.05a111.56,111.56,0,0,1,2.79-21.33q2.25-9.22,6.86-14.47t13-5.26q7.08,0,10.93,3.65a22.49,22.49,0,0,1,5.79,9.11A44,44,0,0,1,183.58,47q.43,6.23.43,11.58,0,11.14-.43,22.3t-.43,22.3q0,5.15.43,11a49.11,49.11,0,0,0,2,11,23.21,23.21,0,0,0,4.61,8.57,10.25,10.25,0,0,0,8.15,3.43c4.28,0,7.61-1.17,10-3.53s4.11-5.82,5.26-10.4a81.32,81.32,0,0,0,2-16.83q.33-10,.33-22.83,0-11.15-.65-22.09t-.64-22.08q0-8.58,5.14-13.19a18.9,18.9,0,0,1,13.08-4.61c4.72,0,8.58.94,11.58,2.79a18.76,18.76,0,0,1,7,7.72A36.46,36.46,0,0,1,254.76,44a123.79,123.79,0,0,1,.86,15.22V80q0,11.37-.43,22.83a179,179,0,0,1-2.14,22,95.54,95.54,0,0,1-5.36,19.72,51.17,51.17,0,0,1-9.87,16,42.89,42.89,0,0,1-15.75,10.61Q212.52,175,199,175Z"/><path class="cls-3" d="M353.81,174.37q-6,0-11.58-4.94a61.23,61.23,0,0,1-10.39-12.22,126.76,126.76,0,0,1-8.9-15.86q-4.08-8.58-7.29-15.87T310,113.26c-1.65-3.28-2.9-4.93-3.75-4.93a1.37,1.37,0,0,0-1.29,1,8.93,8.93,0,0,0-.64,2.25,14.78,14.78,0,0,0-.22,2.57v1.71a65.25,65.25,0,0,0,1.93,15,65.38,65.38,0,0,1,1.93,15q0,3.85-.32,8.79a30.19,30.19,0,0,1-2.15,9.43,17.44,17.44,0,0,1-5.78,7.51q-4,3-11.47,3a14.17,14.17,0,0,1-12.76-7q-4.4-7-6.43-17.9a146.3,146.3,0,0,1-2.25-24.44q-.22-13.51-.22-26.59,0-8.36.11-16.83T266.77,65a111.15,111.15,0,0,1,1.07-15.43,51.82,51.82,0,0,1,3.75-13.83,24.89,24.89,0,0,1,7.5-9.86q4.83-3.75,12.55-3.76,5.79,0,11.57,5.47a73.57,73.57,0,0,1,11.15,13.83,203.53,203.53,0,0,1,10.19,17.9q4.81,9.54,8.57,17.9t6.43,13.83q2.68,5.48,3.54,5.47c.86,0,1.36-.82,1.5-2.47a10.6,10.6,0,0,0,0-3.11q-1.92-11.56-2.89-23.79a114.08,114.08,0,0,1,.21-22.3q1.18-10.08,5-16.51t11.79-6.43q8.79,0,13.4,2.68A16.74,16.74,0,0,1,379,32a29.39,29.39,0,0,1,2.58,11.25q.32,6.54.32,14.26,0,7.93-.22,17.58T381.15,94c-.22,6.14-.4,11.76-.54,16.83s-.21,8.89-.21,11.47q0,10.94-.75,20.47a59.55,59.55,0,0,1-3.43,16.51,24.9,24.9,0,0,1-7.94,11Q363,174.37,353.81,174.37Z"/><path class="cls-3" d="M429.71,173.94q-19.09,0-27.45-8.79t-8.36-28.3q0-3-.11-7.29t-.21-9.22q-.1-4.94-.22-9.86t-.1-9q0-5.79-.11-16.08t.43-21.12q.53-10.81,1.93-20.26t4.18-13.93Q406.34,20,434.21,20a97.46,97.46,0,0,1,29.37,4.07,52.46,52.46,0,0,1,21.65,12.87q8.79,8.79,13.4,22.72t4.61,33.66q0,21.45-5.36,36.77t-15,25.09a57.76,57.76,0,0,1-23.16,14.25A94.25,94.25,0,0,1,429.71,173.94Zm1.71-55.32a30.43,30.43,0,0,0,1.82,11.47c1.22,2.93,3.82,4.4,7.83,4.4a13.51,13.51,0,0,0,10.07-4.18,31.93,31.93,0,0,0,6.65-10.62,60.23,60.23,0,0,0,3.65-14.36,116,116,0,0,0,1.07-15.44c0-2-.15-4.78-.43-8.36A44.63,44.63,0,0,0,459.94,71a23.44,23.44,0,0,0-5.47-9q-3.75-3.85-10.19-3.86t-9.64,4.29q-3.22,4.29-3.22,12.22Z"/><path class="cls-3" d="M577.21,176.29a69.21,69.21,0,0,1-25-4.39,52.42,52.42,0,0,1-20.05-13.72q-8.56-9.33-13.4-23.59T514,100.83q0-20.58,4.82-35.59t13.51-24.66a53.88,53.88,0,0,1,20.8-14.36A73.64,73.64,0,0,1,580,21.5q30.45,0,45.89,18.87t15.43,55.74q0,38-16.4,59.07T577.21,176.29Zm-22.09-75.46a74,74,0,0,0,1.29,13,56.2,56.2,0,0,0,4.18,13.51,34.09,34.09,0,0,0,7.4,10.61,15.52,15.52,0,0,0,11.15,4.29q7.07,0,11.15-4.08a27.54,27.54,0,0,0,6.32-10.29,53.27,53.27,0,0,0,2.89-13.72q.64-7.5.65-14.15a80.37,80.37,0,0,0-1.4-14.47,64.91,64.91,0,0,0-4.28-14.26,35,35,0,0,0-7.19-10.93A13.54,13.54,0,0,0,577.42,56a12.5,12.5,0,0,0-8,3.32,31.63,31.63,0,0,0-7.18,9.22,56.64,56.64,0,0,0-5.15,14.15A79.93,79.93,0,0,0,555.12,100.83Z"/><path class="cls-3" d="M760.08,176.72a27.12,27.12,0,0,1-12.64-2.78,44.85,44.85,0,0,1-9.22-6.22q-3.87-3.43-6.44-6.22c-1.71-1.85-3.14-2.79-4.28-2.79s-2.44.9-4.29,2.68-4.11,3.76-6.75,5.9a56.79,56.79,0,0,1-9,5.9,23.67,23.67,0,0,1-11.26,2.68q-10.5,0-17.79-3.76A35.22,35.22,0,0,1,666.29,162a50.22,50.22,0,0,1-7.61-14.58,102.5,102.5,0,0,1-4.19-17.37,156.57,156.57,0,0,1-1.71-18.44q-.33-9.32-.32-17.68,0-4.73-.11-11.8t.32-15a154.07,154.07,0,0,1,1.72-16,61.77,61.77,0,0,1,4-14.36,29.93,29.93,0,0,1,7.08-10.4,15.92,15.92,0,0,1,11.25-4.07q6.44,0,10,3.64a22.82,22.82,0,0,1,5.26,8.9,43.33,43.33,0,0,1,2,11.15q.33,5.89.33,10.4,0,11.58-.54,23.15t-.54,23.16q0,2.35.11,7.93a84.88,84.88,0,0,0,1,11.26A46.08,46.08,0,0,0,696.84,132q1.71,4.39,4.93,4.4a8.35,8.35,0,0,0,6.32-2.58,17.72,17.72,0,0,0,3.86-6.53,36.15,36.15,0,0,0,1.83-8.69q.42-4.71.42-8.79,0-6.21-.42-12.54t-.43-12.54q0-10.08.1-18.23A63.75,63.75,0,0,1,715,52.59a17.38,17.38,0,0,1,4.72-8.9c2.22-2.07,5.39-3.11,9.54-3.11s7.4.72,9.76,2.15a12.27,12.27,0,0,1,5.14,7A47.49,47.49,0,0,1,746,62.45q.33,7.93.32,19.51,0,1.94.22,6.75t.64,10.83c.29,4,.71,8.15,1.29,12.44a98.61,98.61,0,0,0,2.25,11.79,37.62,37.62,0,0,0,3.32,8.79Q756,136,758.8,136q3.86,0,5.57-4.83a48.63,48.63,0,0,0,2.36-11.79,137.56,137.56,0,0,0,.54-14.58q-.12-7.61-.11-13.4V75.31a141.51,141.51,0,0,0-.86-16.72,109.58,109.58,0,0,1-.86-13.08q0-11.58,4.94-17.68t13.72-6.12a15,15,0,0,1,13.08,6.87,48.19,48.19,0,0,1,7,16.61,117.31,117.31,0,0,1,2.79,20.48q.54,10.71.54,18.22,0,8.58-.43,18.76a166.68,166.68,0,0,1-2.15,20.47,153.55,153.55,0,0,1-4.71,20,58.27,58.27,0,0,1-8.36,17.15,42.54,42.54,0,0,1-13.08,11.9Q771,176.72,760.08,176.72Z"/><path class="cls-3" d="M905.23,174.37q-6,0-11.58-4.94a61.26,61.26,0,0,1-10.4-12.22,128,128,0,0,1-8.89-15.86q-4.08-8.58-7.29-15.87t-5.68-12.22c-1.65-3.28-2.9-4.93-3.76-4.93a1.36,1.36,0,0,0-1.28,1,9.36,9.36,0,0,0-.65,2.25,15.82,15.82,0,0,0-.21,2.57v1.71a65.25,65.25,0,0,0,1.93,15,65.38,65.38,0,0,1,1.93,15q0,3.85-.32,8.79a30.19,30.19,0,0,1-2.15,9.43,17.44,17.44,0,0,1-5.78,7.51q-4,3-11.48,3a14.17,14.17,0,0,1-12.75-7q-4.39-7-6.43-17.9a146.3,146.3,0,0,1-2.25-24.44Q818,111.76,818,98.68q0-8.36.11-16.83T818.19,65a111.15,111.15,0,0,1,1.07-15.43A51.82,51.82,0,0,1,823,35.76a24.8,24.8,0,0,1,7.5-9.86q4.83-3.75,12.55-3.76,5.78,0,11.57,5.47a73.57,73.57,0,0,1,11.15,13.83A203.53,203.53,0,0,1,876,59.34q4.81,9.54,8.57,17.9T891,91.07q2.68,5.48,3.54,5.47c.86,0,1.36-.82,1.5-2.47A10.6,10.6,0,0,0,896,91q-1.92-11.56-2.89-23.79a114.08,114.08,0,0,1,.21-22.3q1.18-10.08,5-16.51t11.79-6.43q8.79,0,13.4,2.68a16.74,16.74,0,0,1,6.86,7.4A29.21,29.21,0,0,1,933,43.26q.33,6.54.33,14.26,0,7.93-.22,17.58T932.57,94c-.22,6.14-.4,11.76-.54,16.83s-.21,8.89-.21,11.47q0,10.94-.75,20.47a59.17,59.17,0,0,1-3.44,16.51,24.81,24.81,0,0,1-7.93,11Q914.45,174.37,905.23,174.37Z"/></g></g></svg>