<svg xmlns="http://www.w3.org/2000/svg" viewBox="0 0 392.86 108.4"><defs><style>.cls-1{fill:#628fca;}.cls-2{fill:#fff;}.cls-3{fill:#4783c4;}</style></defs><g id="Layer_2" data-name="Layer 2"><g id="Layer_1-2" data-name="Layer 1"><path class="cls-1" d="M43.58,99A19.71,19.71,0,0,1,35,97.07a16.45,16.45,0,0,1-7.47-7.4l-.15-.29a21,21,0,0,1-1.81-6,35.86,35.86,0,0,1-.33-4.86V68.36q0-4.73-.05-9.4c0-3.17-.06-6.37-.06-9.58V45.1a25.74,25.74,0,0,1-6.5-1.94,18.4,18.4,0,0,1-6.76-5.23A15.85,15.85,0,0,1,8.5,27.78,16.92,16.92,0,0,1,11.59,17.5a18.25,18.25,0,0,1,6.76-5.62,24.36,24.36,0,0,1,7.24-2.22,42.84,42.84,0,0,1,5.88-.44h20a60.12,60.12,0,0,1,6.08.35,34.8,34.8,0,0,1,7.83,1.7A21.78,21.78,0,0,1,73.29,16a15.14,15.14,0,0,1,4.65,11.25,15.53,15.53,0,0,1-3.58,10.13,20.92,20.92,0,0,1-6.42,5.15,25,25,0,0,1-6.2,2.26c0,.54,0,1.06,0,1.58,0,2.43,0,4.86,0,7.23s-.09,4.69-.16,7.09-.1,4.78-.1,7.51c0,1.92,0,4.13.1,6.59a40.41,40.41,0,0,1-.79,9.25,21.38,21.38,0,0,1-4.56,9.57C54.2,96.06,50.31,99,43.58,99Z"/><path class="cls-2" d="M51.48,17.72a52.34,52.34,0,0,1,5.23.31,25.51,25.51,0,0,1,5.9,1.28,13.21,13.21,0,0,1,4.83,2.87,6.69,6.69,0,0,1,2,5.08,7,7,0,0,1-1.59,4.67A12.59,12.59,0,0,1,64,35a16.75,16.75,0,0,1-4.82,1.64,25.7,25.7,0,0,1-4.52.46c-1.3,0-1.88.59-1.74,1.75.2,2.74.32,5.28.36,7.64s0,4.69,0,7-.09,4.62-.16,7S53,65.4,53,68.21c0,2,0,4.26.1,6.82a31.86,31.86,0,0,1-.61,7.29,13,13,0,0,1-2.72,5.8q-2,2.35-6.21,2.36a11.3,11.3,0,0,1-4.93-1.08,7.91,7.91,0,0,1-3.59-3.64A12.33,12.33,0,0,1,34,82.16a26.91,26.91,0,0,1-.25-3.69V68.36q0-4.77,0-9.49t-.06-9.49V39.27A2.08,2.08,0,0,0,33,37.73a2.1,2.1,0,0,0-1.54-.62,31.67,31.67,0,0,1-4.67-.36,16.82,16.82,0,0,1-4.67-1.33,9.76,9.76,0,0,1-3.64-2.82A7.46,7.46,0,0,1,17,27.78a8.64,8.64,0,0,1,1.44-5.24,9.75,9.75,0,0,1,3.64-3,16,16,0,0,1,4.72-1.43,33.1,33.1,0,0,1,4.67-.36h20m0-17h-20a50.52,50.52,0,0,0-7.07.53,32.77,32.77,0,0,0-9.78,3,26.57,26.57,0,0,0-9.87,8.22A25.22,25.22,0,0,0,0,27.78,24.4,24.4,0,0,0,5.25,43.27a26.73,26.73,0,0,0,9.88,7.64c.49.22,1,.44,1.5.64,0,2.56,0,5.08.05,7.51,0,3.11.05,6.24.05,9.3V78.47a43.69,43.69,0,0,0,.42,6A29.3,29.3,0,0,0,19.69,93l.13.29.15.29a24.91,24.91,0,0,0,11.36,11.15,28.12,28.12,0,0,0,12.25,2.74c7.79,0,14.61-3,19.18-8.38a29.7,29.7,0,0,0,6.39-13.3,49.17,49.17,0,0,0,1-11.21c-.07-2.4-.1-4.54-.1-6.38,0-2.65,0-5.09.1-7.25.07-2.44.12-4.87.15-7.22,0-1,0-1.92,0-2.89.53-.25,1.06-.5,1.58-.78a29.37,29.37,0,0,0,9-7.22,23.92,23.92,0,0,0,5.56-15.59,23.7,23.7,0,0,0-7.29-17.4,30.17,30.17,0,0,0-11-6.62A43.44,43.44,0,0,0,58.4,1.11C55.77.85,53.5.72,51.48.72Z"/><path class="cls-1" d="M118.08,99.9A22.58,22.58,0,0,1,108,97.54a36.46,36.46,0,0,1-7.44-4.89c-.92-.78-1.82-1.6-2.68-2.45a18.36,18.36,0,0,1-3.67,4.69,16.06,16.06,0,0,1-11.25,4A17,17,0,0,1,66.35,88.18a26.69,26.69,0,0,1-1.84-7.79c-.18-2-.31-4-.38-6s-.22-4.13-.22-6.2V62.46c0-1.59,0-3.92.06-7l.1-9.29c0-3.21.1-6.28.21-9.1.14-3.84.3-5.4.42-6.29a21.29,21.29,0,0,1,3.11-8.75,24.08,24.08,0,0,1,6.69-7,31.22,31.22,0,0,1,9.34-4.34A42.3,42.3,0,0,1,95.61,9.22a65.92,65.92,0,0,1,10.43.93,37.23,37.23,0,0,1,12.36,4.32,30.69,30.69,0,0,1,10.42,9.73c3,4.46,4.53,10.12,4.53,16.81a31.77,31.77,0,0,1-2.43,13A26.87,26.87,0,0,1,124.66,63a29.18,29.18,0,0,1-2.7,2.2c1.07.69,2.09,1.41,3.07,2.14a32.74,32.74,0,0,1,6,5.76,16,16,0,0,1,3.65,10A16.69,16.69,0,0,1,130,95,16.27,16.27,0,0,1,118.08,99.9Z"/><path class="cls-2" d="M95.61,17.72a57.22,57.22,0,0,1,9.08.82,28.68,28.68,0,0,1,9.54,3.33A22.25,22.25,0,0,1,121.78,29q3.07,4.56,3.07,12a23.47,23.47,0,0,1-1.69,9.55,18.38,18.38,0,0,1-4.26,6.15,18.86,18.86,0,0,1-5.49,3.6,35.75,35.75,0,0,1-5.49,1.84c-1.71.41-3.13.71-4.26.88s-1.69.39-1.69.66.6.72,1.8,1.34,2.68,1.37,4.46,2.25,3.73,1.92,5.85,3.08a49.32,49.32,0,0,1,5.85,3.75,24,24,0,0,1,4.46,4.26,7.47,7.47,0,0,1,1.8,4.72,8.2,8.2,0,0,1-2.26,6,7.8,7.8,0,0,1-5.85,2.31,14.16,14.16,0,0,1-6.31-1.49,27.86,27.86,0,0,1-5.7-3.74,36.77,36.77,0,0,1-4.82-4.93c-1.44-1.78-2.7-3.42-3.8-4.93s-2-2.75-2.77-3.74-1.26-1.49-1.54-1.49-.54.19-.61.57a4.89,4.89,0,0,0-.1.87c0,1.91-.05,3.92-.16,6a21.45,21.45,0,0,1-1,5.75,10.31,10.31,0,0,1-2.77,4.36A7.87,7.87,0,0,1,83,90.37a9.37,9.37,0,0,1-5.74-1.54,9.12,9.12,0,0,1-3-3.89A17.92,17.92,0,0,1,73,79.65q-.26-2.93-.36-5.7c-.14-1.91-.2-3.83-.2-5.74V62.46c0-1.57,0-3.86,0-6.87s.06-6.11.1-9.29.1-6.14.2-8.88.23-4.58.36-5.54A12.79,12.79,0,0,1,75,26.54,15.65,15.65,0,0,1,79.39,22a23,23,0,0,1,6.83-3.13,33.55,33.55,0,0,1,9.39-1.18M96,51.17a8.35,8.35,0,0,0,3.79-.87A11,11,0,0,0,102.89,48,10.44,10.44,0,0,0,105,44.81a9.85,9.85,0,0,0,.77-3.8,8.82,8.82,0,0,0-2.26-6.1,7.61,7.61,0,0,0-6-2.52,5.92,5.92,0,0,0-3.49,1.08,3.68,3.68,0,0,0-1.54,3.23V48.5a2.15,2.15,0,0,0,1.13,2.06,4.86,4.86,0,0,0,2.36.61M95.61.72A50.85,50.85,0,0,0,81.47,2.57,40.18,40.18,0,0,0,69.61,8.12a32.84,32.84,0,0,0-9,9.46,29.58,29.58,0,0,0-4.31,12.17c-.21,1.58-.36,3.72-.48,7-.11,2.9-.19,6-.22,9.34l0,3.32-.06,6c0,3,0,5.35,0,7.06v5.75c0,2.22.07,4.46.22,6.66.08,2,.22,4.14.4,6.27a34.91,34.91,0,0,0,2.46,10.3A25.47,25.47,0,0,0,83,107.37a24.71,24.71,0,0,0,15.94-5.31,44.17,44.17,0,0,0,5.36,3.11,31.07,31.07,0,0,0,13.8,3.23,24.8,24.8,0,0,0,25.11-25.31,24.45,24.45,0,0,0-5.49-15.3,37.85,37.85,0,0,0-3-3.36,37.75,37.75,0,0,0,4-7A40.29,40.29,0,0,0,141.85,41c0-8.41-2-15.67-6-21.56A39.28,39.28,0,0,0,122.58,7.06a45.86,45.86,0,0,0-15.17-5.3,73.9,73.9,0,0,0-11.8-1Z"/><path class="cls-1" d="M136.86,99.08a14.57,14.57,0,0,1-10.23-3.84,18.14,18.14,0,0,1-4.61-7,25.58,25.58,0,0,1-1.53-7c-.16-1.91-.24-3.69-.24-5.3,0-3.06.21-6.75.61-11s1.06-8.71,2-13.35a113,113,0,0,1,3.72-14.09,66.68,66.68,0,0,1,6.07-13.35,37.37,37.37,0,0,1,9.67-10.81,24.6,24.6,0,0,1,14.9-4.84,23.69,23.69,0,0,1,10.57,2.36,27.55,27.55,0,0,1,7.78,5.7,38.08,38.08,0,0,1,5.36,7.14c1.32,2.26,2.53,4.57,3.59,6.84l.05.11a80.51,80.51,0,0,1,6.59,23.41,192.87,192.87,0,0,1,1.34,22.87,26.83,26.83,0,0,1-.89,6.76,23.8,23.8,0,0,1-2.88,6.71,18.21,18.21,0,0,1-5.84,5.81,16.87,16.87,0,0,1-9,2.46,15.82,15.82,0,0,1-11.08-3.93,19,19,0,0,1-5-7.54A31.17,31.17,0,0,1,156,79.65c-.06-.58-.12-1.16-.19-1.72-.12.55-.24,1.12-.36,1.72A43,43,0,0,1,153.35,87a22,22,0,0,1-4.94,7.65A15.78,15.78,0,0,1,136.86,99.08ZM154,75.9Z"/><path class="cls-2" d="M157.18,17A15.28,15.28,0,0,1,164,18.49a19,19,0,0,1,5.39,4A29.61,29.61,0,0,1,173.55,28c1.19,2.05,2.27,4.11,3.23,6.16a71.73,71.73,0,0,1,5.9,20.93A182.1,182.1,0,0,1,184,76.93a18.23,18.23,0,0,1-.61,4.62,15.26,15.26,0,0,1-1.85,4.31A9.75,9.75,0,0,1,178.37,89a8.47,8.47,0,0,1-4.57,1.18,7.66,7.66,0,0,1-5.33-1.69,10.47,10.47,0,0,1-2.77-4.21,22.27,22.27,0,0,1-1.23-5.49q-.32-3-.67-5.49a17,17,0,0,0-1.08-4.21,2.5,2.5,0,0,0-2.46-1.69h-5.85c-2,0-3.34.39-4.06,1.18a10.24,10.24,0,0,0-1.89,3.85q-.72,2.46-1.34,5.59a34.54,34.54,0,0,1-1.69,5.9,13.5,13.5,0,0,1-3,4.72,7.5,7.5,0,0,1-5.54,2A6.16,6.16,0,0,1,132.45,89,9.64,9.64,0,0,1,130,85.29a17.66,17.66,0,0,1-1-4.77q-.21-2.56-.21-4.62c0-2.8.19-6.19.57-10.15a125.24,125.24,0,0,1,1.85-12.52,104.82,104.82,0,0,1,3.43-13,58,58,0,0,1,5.29-11.65,28.42,28.42,0,0,1,7.44-8.36A16.14,16.14,0,0,1,157.18,17m-.61,37.41h.3a10,10,0,0,0,3.54-.72c1.06-.45,1.59-1.08,1.59-1.9a42.12,42.12,0,0,0-.31-4.62,44.56,44.56,0,0,0-.92-5.39,22.78,22.78,0,0,0-1.49-4.46c-.58-1.23-1.21-1.85-1.9-1.85s-1.36.57-2,1.7a18.65,18.65,0,0,0-1.79,4.2,46.79,46.79,0,0,0-1.29,5.39,30.2,30.2,0,0,0-.51,5.23c0,.82.53,1.44,1.59,1.85a8.89,8.89,0,0,0,3.24.57M157.18,0a33.34,33.34,0,0,0-19.94,6.5,45.5,45.5,0,0,0-11.9,13.26,73.9,73.9,0,0,0-6.86,15.06,120.4,120.4,0,0,0-4,15.15c-1,4.9-1.66,9.67-2.09,14.18s-.64,8.37-.64,11.75c0,1.83.09,3.85.26,6a34.36,34.36,0,0,0,2,9.34,26.44,26.44,0,0,0,6.76,10.21,23,23,0,0,0,16,6.14,24.09,24.09,0,0,0,17.56-6.93c.37-.37.72-.74,1.07-1.12.47.51,1,1,1.49,1.48a24.22,24.22,0,0,0,16.82,6.16,25.25,25.25,0,0,0,13.54-3.74,26.77,26.77,0,0,0,8.54-8.5,32.36,32.36,0,0,0,3.92-9.09A35.44,35.44,0,0,0,201,76.93a201.3,201.3,0,0,0-1.4-23.88,89.06,89.06,0,0,0-7.28-25.89l-.05-.11,0-.11c-1.17-2.5-2.5-5-4-7.52a46.34,46.34,0,0,0-6.56-8.74,36.21,36.21,0,0,0-10.16-7.45A32.35,32.35,0,0,0,157.18,0Z"/><path class="cls-1" d="M204.08,98.77c-1.42,0-3.11,0-5-.11a26.25,26.25,0,0,1-7.76-1.44,18.85,18.85,0,0,1-7.65-4.91,15.61,15.61,0,0,1-4.06-11.07,18.79,18.79,0,0,1,1.23-7.42,12.4,12.4,0,0,1,4.65-5.72,13,13,0,0,1,1.91-1c0-4.23-.11-8.84-.25-13.78-.12-4.46-.2-9.07-.24-13.77a11.61,11.61,0,0,1-1.15-.48,11.94,11.94,0,0,1-5.24-4.95,14.92,14.92,0,0,1-1.73-7.56c0-6.64,3.05-10.43,5.62-12.44a22.9,22.9,0,0,1,8.78-4.18,34.11,34.11,0,0,1,8.06-1h.53c2.14,0,3.84,0,5.11,0s3,.06,5,.17a33.9,33.9,0,0,1,7.38,1.24,20.57,20.57,0,0,1,7.83,4.22A14.39,14.39,0,0,1,232,25.72a13.2,13.2,0,0,1-6.69,11.58A24.28,24.28,0,0,1,223,38.51q0,4.37.13,8.36c.11,4.49.16,9.36.16,14.46,0,2.07,0,4-.11,5.75,0,.12,0,.24,0,.36a13.26,13.26,0,0,1,1.8.82,12.52,12.52,0,0,1,5,5.2A16.19,16.19,0,0,1,231.46,81a15,15,0,0,1-5.16,11.83,22.16,22.16,0,0,1-8.52,4.5,33.94,33.94,0,0,1-8.3,1.29C207.29,98.74,205.48,98.77,204.08,98.77Z"/><path class="cls-2" d="M201.21,17.46h.4c2.19,0,3.94.05,5.24.05s2.68,0,4.56.16a24.62,24.62,0,0,1,5.49.92,12,12,0,0,1,4.62,2.46,5.87,5.87,0,0,1,1.95,4.67A4.7,4.7,0,0,1,221,30a16.11,16.11,0,0,1-5.39,2l-.77.21c-.24.07-.36.27-.36.61q0,7.61.15,14.27t.16,14.26c0,2,0,3.78-.1,5.39s-.11,3.2-.11,4.77a3.78,3.78,0,0,0,.62,2.46,2.77,2.77,0,0,0,1.54.93,11.27,11.27,0,0,0,2.05.25,4.68,4.68,0,0,1,2.05.57,3.93,3.93,0,0,1,1.54,1.69A8.23,8.23,0,0,1,223,81a6.71,6.71,0,0,1-2.21,5.38,13.62,13.62,0,0,1-5.28,2.77,25.69,25.69,0,0,1-6.26,1c-2.12.07-3.84.1-5.13.1s-2.88,0-4.72-.1a17.89,17.89,0,0,1-5.29-1,10.34,10.34,0,0,1-4.26-2.72,7.32,7.32,0,0,1-1.74-5.23,11.07,11.07,0,0,1,.56-4.1,4.06,4.06,0,0,1,1.44-1.9,4.63,4.63,0,0,1,1.9-.72,8.16,8.16,0,0,0,1.9-.51,3.26,3.26,0,0,0,1.43-1.18,5,5,0,0,0,.57-2.77q0-7.71-.26-17t-.26-19.14a1.84,1.84,0,0,0-.61-1.64,3,3,0,0,0-1.49-.46c-.58,0-1.23,0-1.95,0a4.57,4.57,0,0,1-2-.41,3.5,3.5,0,0,1-1.49-1.49,7,7,0,0,1-.61-3.34c0-2.6.78-4.51,2.36-5.74a14.29,14.29,0,0,1,5.54-2.62,25.75,25.75,0,0,1,6.06-.72m0-17h0a42.53,42.53,0,0,0-10.06,1.2,31.18,31.18,0,0,0-12,5.75c-5.73,4.48-8.88,11.27-8.88,19.13a23.18,23.18,0,0,0,2.85,11.78,20.93,20.93,0,0,0,5.33,6.17q.06,4.6.19,9c.08,3.11.15,6.1.19,8.93a21.43,21.43,0,0,0-5.84,8,26.76,26.76,0,0,0-1.9,10.72,23.92,23.92,0,0,0,6.39,16.91,27.33,27.33,0,0,0,11,7.11,35.08,35.08,0,0,0,10.23,1.9c2,.07,3.82.11,5.34.11s3.37,0,5.68-.11a42.92,42.92,0,0,0,10.35-1.61,30.6,30.6,0,0,0,11.73-6.24A23.65,23.65,0,0,0,240,81a24.23,24.23,0,0,0-2.55-11.51,21.22,21.22,0,0,0-5.67-6.9c0-.43,0-.86,0-1.3,0-5.16-.05-10.09-.16-14.65,0-1.09-.05-2.2-.07-3.33a21.72,21.72,0,0,0,8.95-17.63,22.79,22.79,0,0,0-7.8-17.5,29,29,0,0,0-11.06-6A41.33,41.33,0,0,0,212.34.69c-2.21-.12-4-.18-5.49-.18-1.27,0-2.93,0-5,0Z"/><path class="cls-1" d="M250,98.87c-3.66,0-7-.13-10-.39a23.36,23.36,0,0,1-11.07-3.7,20.75,20.75,0,0,1-7.7-9.89c-1.47-3.7-2.19-8.39-2.19-14.32V35.78a64,64,0,0,1,.41-7,31.06,31.06,0,0,1,2.07-8.27,20.31,20.31,0,0,1,5.62-7.86,16.92,16.92,0,0,1,11.28-3.89,15.57,15.57,0,0,1,9.85,3.08,16.76,16.76,0,0,1,5.07,6.59A22.59,22.59,0,0,1,255,25.56c.16,1.85.24,3.63.24,5.29q0,4.27-.06,7.82c0,2.38-.09,4.71-.15,7s-.12,4.48-.15,6.79c0,1.71,0,3.54,0,5.48A14.54,14.54,0,0,1,261,56.53a13.66,13.66,0,0,1,8.18,2.69,17.94,17.94,0,0,1,4.49,4.85,21.28,21.28,0,0,1,2.5,5.65A22.35,22.35,0,0,1,277,75.6a21.72,21.72,0,0,1-8,17.2C264.2,96.83,257.78,98.87,250,98.87Z"/><path class="cls-2" d="M238.35,17.31A7.4,7.4,0,0,1,243,18.59a8.36,8.36,0,0,1,2.51,3.28,14.12,14.12,0,0,1,1.08,4.42q.21,2.41.21,4.56,0,4.21-.06,7.7t-.15,6.88q-.1,3.38-.15,6.92c0,2.36-.06,4.95-.06,7.75,0,.75,0,1.69.11,2.82a22.05,22.05,0,0,0,.41,3.24,7.61,7.61,0,0,0,1,2.66,2.2,2.2,0,0,0,2,1.13,5.93,5.93,0,0,0,3.24-1.23,49.18,49.18,0,0,1,5.18-3A6.18,6.18,0,0,1,261,65a5.15,5.15,0,0,1,3.13,1,9.54,9.54,0,0,1,2.36,2.57A12.73,12.73,0,0,1,268,72a13.54,13.54,0,0,1,.51,3.6,13.24,13.24,0,0,1-4.92,10.67q-4.94,4.11-13.65,4.1c-3.43,0-6.52-.11-9.29-.35a14.86,14.86,0,0,1-7.08-2.31,12.39,12.39,0,0,1-4.52-6q-1.59-4-1.59-11.18V35.78a54.3,54.3,0,0,1,.36-6,22.53,22.53,0,0,1,1.49-6,12,12,0,0,1,3.28-4.62,8.56,8.56,0,0,1,5.75-1.84m0-17a25.29,25.29,0,0,0-16.81,5.94,28.68,28.68,0,0,0-8,11.11,39.64,39.64,0,0,0-2.63,10.54,70.94,70.94,0,0,0-.47,7.88V70.57c0,7,.92,12.74,2.8,17.47a29,29,0,0,0,10.88,13.81,31.56,31.56,0,0,0,15,5.1c3.22.28,6.84.42,10.75.42,9.87,0,18.13-2.7,24.53-8a30.76,30.76,0,0,0,9.91-31.87,29.31,29.31,0,0,0-3.51-7.93,26.26,26.26,0,0,0-6.59-7.13,22.19,22.19,0,0,0-10.8-4.24q0-1.12.06-2.22c.07-2.34.13-4.74.16-7.13s.06-5.11.06-8c0-1.9-.09-3.92-.27-6a31,31,0,0,0-2.43-9.76,25.31,25.31,0,0,0-7.62-9.89A24.07,24.07,0,0,0,238.35.31Z"/><path class="cls-1" d="M296.23,99.08a35.07,35.07,0,0,1-13-2.25,27.66,27.66,0,0,1-9.79-6.46,29.92,29.92,0,0,1-6-9.14,48.22,48.22,0,0,1-2.94-9.79,72.1,72.1,0,0,1-1.17-10.14c-.14-3.16-.21-6.33-.21-9.41a111.68,111.68,0,0,1,.83-13.68,49.76,49.76,0,0,1,3.38-13.14,28.81,28.81,0,0,1,7.62-10.71,20.78,20.78,0,0,1,14-4.94h13.34a53.73,53.73,0,0,1,5.64.31,22.46,22.46,0,0,1,7,1.91,16.14,16.14,0,0,1,6.74,5.78,17.25,17.25,0,0,1,2.66,9.74,16.49,16.49,0,0,1-2.17,8.55,16.24,16.24,0,0,1-3.34,4c.16.18.32.35.46.53a17,17,0,0,1,4,11.14,14.94,14.94,0,0,1-3.9,10.22,14.93,14.93,0,0,1,3.93,3.57c2.43,3.16,3.67,7.39,3.67,12.58a17.11,17.11,0,0,1-4.78,12.09,25.51,25.51,0,0,1-8.8,5.93,41.92,41.92,0,0,1-9.23,2.59A51.35,51.35,0,0,1,296.23,99.08Z"/><path class="cls-2" d="M302.28,17.92a43.77,43.77,0,0,1,4.72.26,13.7,13.7,0,0,1,4.36,1.18,7.71,7.71,0,0,1,3.24,2.77,9,9,0,0,1,1.23,5,8.17,8.17,0,0,1-1,4.21,7.17,7.17,0,0,1-2.51,2.56,10.33,10.33,0,0,1-3.49,1.29,21.43,21.43,0,0,1-3.9.35,21.81,21.81,0,0,1-2.72-.15c-.79-.1-1.57-.24-2.36-.41s-1.57-.31-2.36-.41a21.81,21.81,0,0,0-2.72-.15,1.68,1.68,0,0,0-1.23.51,3.79,3.79,0,0,0-.82,1.23,7.13,7.13,0,0,0-.46,1.49,6.24,6.24,0,0,0-.16,1.28v1.69a4.65,4.65,0,0,0,.26,1.59,2.27,2.27,0,0,0,.82,1.13,2.83,2.83,0,0,0,1.69.41c1.3,0,2.43,0,3.39-.1s1.88-.12,2.77-.15l2.77-.11c1,0,2.09-.05,3.39-.05a6.94,6.94,0,0,1,5.59,2.36,8.44,8.44,0,0,1,2,5.65,6.61,6.61,0,0,1-2.2,5,7.77,7.77,0,0,1-5.49,2.05H293.87c-1.1,0-1.76.39-2,1.18a8.23,8.23,0,0,0-.36,2.41c0,1.16.05,2.38.15,3.64a10.78,10.78,0,0,0,.82,3.44,6.46,6.46,0,0,0,2,2.57,5.79,5.79,0,0,0,3.6,1A14,14,0,0,0,303,72a13.08,13.08,0,0,0,3.85-2.2,10.66,10.66,0,0,1,2.31-1.44,6.28,6.28,0,0,1,2.41-.41,6.1,6.1,0,0,1,5.08,2.46c1.26,1.64,1.9,4.11,1.9,7.39A8.67,8.67,0,0,1,316.09,84a17,17,0,0,1-5.91,4,32.6,32.6,0,0,1-7.33,2,43,43,0,0,1-6.62.62,26.58,26.58,0,0,1-9.85-1.64,19.18,19.18,0,0,1-6.83-4.47,21.53,21.53,0,0,1-4.31-6.56,39.77,39.77,0,0,1-2.41-8.06,62.51,62.51,0,0,1-1-8.93q-.19-4.62-.2-9a102.2,102.2,0,0,1,.77-12.62,40.83,40.83,0,0,1,2.77-10.88,20.12,20.12,0,0,1,5.34-7.59,12.47,12.47,0,0,1,8.46-2.88h13.34m0-17H288.94a29.46,29.46,0,0,0-19.56,7,37.15,37.15,0,0,0-9.89,13.83,58.2,58.2,0,0,0-4,15.41,118.78,118.78,0,0,0-.9,14.73c0,3.21.07,6.5.22,9.79A79.1,79.1,0,0,0,256.13,73a56.61,56.61,0,0,0,3.47,11.52,38.22,38.22,0,0,0,7.72,11.71,36,36,0,0,0,12.75,8.45,43.26,43.26,0,0,0,16.16,2.86,58.62,58.62,0,0,0,9.3-.83,50.3,50.3,0,0,0,11.13-3.12,34.18,34.18,0,0,0,11.7-7.9,25.5,25.5,0,0,0,7.14-18c0-7-1.8-13-5.34-17.63a23.77,23.77,0,0,0,1.64-8.74,25.77,25.77,0,0,0-2.46-11.12l.13-.21a24.85,24.85,0,0,0,3.36-12.89,25.59,25.59,0,0,0-4.09-14.46,24.76,24.76,0,0,0-10.25-8.77,30.84,30.84,0,0,0-9.65-2.65,60.64,60.64,0,0,0-6.56-.36Z"/><path class="cls-1" d="M367.76,99.9a22.55,22.55,0,0,1-10.06-2.36,35.93,35.93,0,0,1-7.44-4.89c-.93-.78-1.83-1.6-2.69-2.45a18.14,18.14,0,0,1-3.67,4.69,16.05,16.05,0,0,1-11.24,4,17.73,17.73,0,0,1-10.85-3.23A17.52,17.52,0,0,1,316,88.18a26.07,26.07,0,0,1-1.84-7.79c-.18-2-.31-4-.38-6s-.22-4.13-.22-6.2V62.46c0-1.59,0-3.92.05-7l.1-9.29c0-3.21.11-6.28.21-9.1.15-3.84.3-5.4.42-6.29a21.43,21.43,0,0,1,3.11-8.75,24.08,24.08,0,0,1,6.69-7,31.4,31.4,0,0,1,9.35-4.34,42.17,42.17,0,0,1,11.76-1.52,66,66,0,0,1,10.44.93,37.31,37.31,0,0,1,12.36,4.32A30.79,30.79,0,0,1,378.5,24.2C381.5,28.66,383,34.32,383,41a31.93,31.93,0,0,1-2.43,13A27,27,0,0,1,374.33,63a30.45,30.45,0,0,1-2.69,2.2c1.06.69,2.09,1.41,3.06,2.14a33.13,33.13,0,0,1,6,5.76,16.09,16.09,0,0,1,3.64,10A16.69,16.69,0,0,1,379.68,95,16.24,16.24,0,0,1,367.76,99.9Z"/><path class="cls-2" d="M345.28,17.72a57.12,57.12,0,0,1,9.08.82,28.82,28.82,0,0,1,9.55,3.33A22.23,22.23,0,0,1,371.45,29q3.07,4.56,3.08,12a23.46,23.46,0,0,1-1.7,9.55,18.22,18.22,0,0,1-4.25,6.15,18.86,18.86,0,0,1-5.49,3.6,35.75,35.75,0,0,1-5.49,1.84c-1.71.41-3.13.71-4.26.88s-1.7.39-1.7.66.6.72,1.8,1.34,2.68,1.37,4.46,2.25,3.73,1.92,5.85,3.08a49.32,49.32,0,0,1,5.85,3.75,24,24,0,0,1,4.47,4.26,7.51,7.51,0,0,1,1.79,4.72,8.2,8.2,0,0,1-2.26,6,7.8,7.8,0,0,1-5.84,2.31,14.17,14.17,0,0,1-6.32-1.49,28.07,28.07,0,0,1-5.69-3.74,36.17,36.17,0,0,1-4.82-4.93q-2.16-2.67-3.8-4.93t-2.77-3.74c-.76-1-1.27-1.49-1.54-1.49a.6.6,0,0,0-.62.57,4.89,4.89,0,0,0-.1.87c0,1.91-.05,3.92-.15,6a21.84,21.84,0,0,1-1,5.75,10.21,10.21,0,0,1-2.77,4.36,7.86,7.86,0,0,1-5.49,1.74,9.4,9.4,0,0,1-5.75-1.54,9.12,9.12,0,0,1-3-3.89,17.92,17.92,0,0,1-1.23-5.29q-.25-2.93-.36-5.7c-.13-1.91-.2-3.83-.2-5.74V62.46c0-1.57,0-3.86.05-6.87s.07-6.11.1-9.29.11-6.14.21-8.88.22-4.58.36-5.54a12.51,12.51,0,0,1,1.9-5.34A15.52,15.52,0,0,1,329.07,22a22.91,22.91,0,0,1,6.82-3.13,33.55,33.55,0,0,1,9.39-1.18m.41,33.45a8.42,8.42,0,0,0,3.8-.87A11.09,11.09,0,0,0,352.57,48a10.24,10.24,0,0,0,2.1-3.23,9.85,9.85,0,0,0,.77-3.8,8.78,8.78,0,0,0-2.26-6.1,7.6,7.6,0,0,0-5.95-2.52,5.94,5.94,0,0,0-3.49,1.08,3.71,3.71,0,0,0-1.54,3.23V48.5a2.17,2.17,0,0,0,1.13,2.06,4.86,4.86,0,0,0,2.36.61M345.28.72a50.9,50.9,0,0,0-14.14,1.85,40,40,0,0,0-11.85,5.55,32.62,32.62,0,0,0-9,9.47,29.65,29.65,0,0,0-4.32,12.15c-.21,1.59-.36,3.73-.48,7-.11,2.9-.18,6-.22,9.34l0,4.19-.06,5.09c0,3-.05,5.35-.05,7.06v5.75c0,2.22.08,4.46.23,6.66.08,2,.21,4.14.4,6.27a34.91,34.91,0,0,0,2.46,10.3,25.47,25.47,0,0,0,24.48,15.93,24.73,24.73,0,0,0,15.94-5.31,44.83,44.83,0,0,0,5.35,3.11,31.11,31.11,0,0,0,13.81,3.23,24.8,24.8,0,0,0,25.1-25.31,24.44,24.44,0,0,0-5.48-15.3,39.48,39.48,0,0,0-3-3.36,37.71,37.71,0,0,0,4-7A40.29,40.29,0,0,0,391.53,41c0-8.41-2-15.67-6-21.56a39.22,39.22,0,0,0-13.3-12.39,45.78,45.78,0,0,0-15.17-5.3,73.8,73.8,0,0,0-11.8-1Z"/><path class="cls-3" d="M43.58,90.48a11.3,11.3,0,0,1-4.93-1.08,7.91,7.91,0,0,1-3.59-3.64A12.33,12.33,0,0,1,34,82.16a26.91,26.91,0,0,1-.25-3.69V68.36q0-4.77,0-9.49t-.06-9.49V39.27a2.1,2.1,0,0,0-2.15-2.16,31.67,31.67,0,0,1-4.67-.36,16.82,16.82,0,0,1-4.67-1.33,9.76,9.76,0,0,1-3.64-2.82A7.46,7.46,0,0,1,17,27.78a8.64,8.64,0,0,1,1.44-5.24,9.75,9.75,0,0,1,3.64-3,16,16,0,0,1,4.72-1.43,33.1,33.1,0,0,1,4.67-.36h20a52.34,52.34,0,0,1,5.23.31,25.51,25.51,0,0,1,5.9,1.28,13.21,13.21,0,0,1,4.83,2.87,6.69,6.69,0,0,1,2,5.08,7,7,0,0,1-1.59,4.67A12.59,12.59,0,0,1,64,35a16.75,16.75,0,0,1-4.82,1.64,25.7,25.7,0,0,1-4.52.46c-1.3,0-1.88.59-1.74,1.75.2,2.74.32,5.28.36,7.64s0,4.69,0,7-.09,4.62-.16,7S53,65.4,53,68.21c0,2,0,4.26.1,6.82a31.86,31.86,0,0,1-.61,7.29,13,13,0,0,1-2.72,5.8Q47.78,90.48,43.58,90.48Z"/><path class="cls-3" d="M92.43,72.52c0,1.91-.06,3.92-.16,6a21.45,21.45,0,0,1-1,5.75,10.31,10.31,0,0,1-2.77,4.36A7.87,7.87,0,0,1,83,90.37a9.44,9.44,0,0,1-5.74-1.53,9.2,9.2,0,0,1-3-3.9A17.92,17.92,0,0,1,73,79.65q-.26-2.93-.36-5.7c-.14-1.91-.21-3.83-.21-5.74V62.46q0-2.35.06-6.87t.1-9.29q0-4.77.2-8.88c.11-2.73.23-4.58.36-5.54A12.79,12.79,0,0,1,75,26.54,15.65,15.65,0,0,1,79.39,22a23,23,0,0,1,6.83-3.13,33.55,33.55,0,0,1,9.39-1.18,57.22,57.22,0,0,1,9.08.82,28.68,28.68,0,0,1,9.54,3.33A22.25,22.25,0,0,1,121.78,29q3.07,4.56,3.07,12a23.47,23.47,0,0,1-1.69,9.55,18.38,18.38,0,0,1-4.26,6.15,18.86,18.86,0,0,1-5.49,3.6,35.75,35.75,0,0,1-5.49,1.84c-1.71.41-3.13.71-4.26.88s-1.69.39-1.69.66.6.72,1.8,1.34,2.68,1.37,4.46,2.25,3.73,1.92,5.85,3.08a49.32,49.32,0,0,1,5.85,3.75,24,24,0,0,1,4.46,4.26,7.47,7.47,0,0,1,1.8,4.72,8.24,8.24,0,0,1-2.26,6,7.8,7.8,0,0,1-5.85,2.31,14.16,14.16,0,0,1-6.31-1.49,27.86,27.86,0,0,1-5.7-3.74,36.77,36.77,0,0,1-4.82-4.93c-1.44-1.78-2.7-3.42-3.8-4.93s-2-2.75-2.77-3.74-1.26-1.49-1.54-1.49-.54.19-.61.57A4.89,4.89,0,0,0,92.43,72.52Zm.1-24a2.15,2.15,0,0,0,1.13,2.06,4.86,4.86,0,0,0,2.36.61,8.35,8.35,0,0,0,3.79-.87A11,11,0,0,0,102.89,48,10.44,10.44,0,0,0,105,44.81a9.85,9.85,0,0,0,.77-3.8,8.82,8.82,0,0,0-2.26-6.1,7.61,7.61,0,0,0-6-2.52,5.92,5.92,0,0,0-3.49,1.08,3.68,3.68,0,0,0-1.54,3.23Z"/><path class="cls-3" d="M173.8,90.17a7.66,7.66,0,0,1-5.33-1.69,10.47,10.47,0,0,1-2.77-4.21,22.27,22.27,0,0,1-1.23-5.49q-.32-3-.67-5.49a17,17,0,0,0-1.08-4.21,2.5,2.5,0,0,0-2.46-1.69h-5.85c-2,0-3.34.39-4,1.18a10.08,10.08,0,0,0-1.9,3.85q-.72,2.46-1.34,5.59a34.54,34.54,0,0,1-1.69,5.9,13.5,13.5,0,0,1-3,4.72,7.5,7.5,0,0,1-5.54,2A6.16,6.16,0,0,1,132.45,89,9.64,9.64,0,0,1,130,85.29a17.66,17.66,0,0,1-1-4.77q-.21-2.56-.21-4.62c0-2.8.19-6.19.57-10.15s1-8.15,1.84-12.52a106.65,106.65,0,0,1,3.44-13,58,58,0,0,1,5.29-11.65,28.42,28.42,0,0,1,7.44-8.36A16.14,16.14,0,0,1,157.18,17,15.28,15.28,0,0,1,164,18.49a19,19,0,0,1,5.39,4A29.61,29.61,0,0,1,173.55,28c1.19,2.05,2.27,4.11,3.23,6.16a71.73,71.73,0,0,1,5.9,20.93A182.1,182.1,0,0,1,184,76.93a18.23,18.23,0,0,1-.61,4.62,15.26,15.26,0,0,1-1.85,4.31A9.75,9.75,0,0,1,178.37,89,8.47,8.47,0,0,1,173.8,90.17ZM151.74,52c0,.82.53,1.44,1.59,1.85a9.15,9.15,0,0,0,3.54.57,10,10,0,0,0,3.54-.72c1.06-.45,1.59-1.08,1.59-1.9a42.12,42.12,0,0,0-.31-4.62,44.56,44.56,0,0,0-.92-5.39,22.78,22.78,0,0,0-1.49-4.46c-.58-1.23-1.21-1.85-1.9-1.85s-1.36.57-2,1.7a18.65,18.65,0,0,0-1.79,4.2,46.79,46.79,0,0,0-1.29,5.39A30.2,30.2,0,0,0,151.74,52Z"/><path class="cls-3" d="M188.07,81.24a11.07,11.07,0,0,1,.56-4.1,4.06,4.06,0,0,1,1.44-1.9,4.63,4.63,0,0,1,1.9-.72,8.16,8.16,0,0,0,1.9-.51,3.26,3.26,0,0,0,1.43-1.18,5,5,0,0,0,.57-2.77q0-7.71-.26-17t-.26-19.14a1.84,1.84,0,0,0-.61-1.64,3,3,0,0,0-1.49-.46c-.58,0-1.23,0-1.95,0a4.57,4.57,0,0,1-2-.41,3.5,3.5,0,0,1-1.49-1.49,7,7,0,0,1-.61-3.34c0-2.6.78-4.51,2.36-5.74a14.29,14.29,0,0,1,5.54-2.62,26,26,0,0,1,6.46-.72c2.19,0,3.94.05,5.24.05s2.68,0,4.56.16a24.62,24.62,0,0,1,5.49.92,12,12,0,0,1,4.62,2.46,5.87,5.87,0,0,1,1.95,4.67A4.7,4.7,0,0,1,221,30a16.11,16.11,0,0,1-5.39,2l-.77.21c-.24.07-.36.27-.36.61q0,7.61.15,14.27t.16,14.26c0,2,0,3.78-.1,5.39s-.11,3.2-.11,4.77a3.78,3.78,0,0,0,.62,2.46,2.77,2.77,0,0,0,1.54.93,11.27,11.27,0,0,0,2.05.25,4.68,4.68,0,0,1,2.05.57,3.93,3.93,0,0,1,1.54,1.69A8.23,8.23,0,0,1,223,81a6.71,6.71,0,0,1-2.21,5.38,13.62,13.62,0,0,1-5.28,2.77,25.69,25.69,0,0,1-6.26,1c-2.12.07-3.84.1-5.13.1s-2.88,0-4.72-.1a17.89,17.89,0,0,1-5.29-1,10.34,10.34,0,0,1-4.26-2.72A7.32,7.32,0,0,1,188.07,81.24Z"/><path class="cls-3" d="M246.35,60.1c0,.75,0,1.69.11,2.82a22.05,22.05,0,0,0,.41,3.24,7.61,7.61,0,0,0,1,2.66,2.2,2.2,0,0,0,2,1.13,5.93,5.93,0,0,0,3.24-1.23,49.18,49.18,0,0,1,5.18-3A6.18,6.18,0,0,1,261,65a5.15,5.15,0,0,1,3.13,1,9.54,9.54,0,0,1,2.36,2.57A12.73,12.73,0,0,1,268,72a13.54,13.54,0,0,1,.51,3.6,13.24,13.24,0,0,1-4.92,10.67q-4.94,4.11-13.65,4.1c-3.43,0-6.52-.11-9.29-.35a14.86,14.86,0,0,1-7.08-2.31,12.39,12.39,0,0,1-4.52-6q-1.59-4-1.59-11.18V35.78a54.3,54.3,0,0,1,.36-6,22.53,22.53,0,0,1,1.49-6,12,12,0,0,1,3.28-4.62,8.54,8.54,0,0,1,5.75-1.84A7.4,7.4,0,0,1,243,18.59a8.36,8.36,0,0,1,2.51,3.28,14.12,14.12,0,0,1,1.08,4.42q.21,2.41.21,4.56,0,4.21-.06,7.7t-.15,6.88q-.1,3.38-.15,6.92C246.37,54.71,246.35,57.3,246.35,60.1Z"/><path class="cls-3" d="M292.12,39v1.69a4.65,4.65,0,0,0,.26,1.59,2.27,2.27,0,0,0,.82,1.13,2.83,2.83,0,0,0,1.69.41c1.3,0,2.43,0,3.39-.1s1.88-.12,2.77-.15l2.77-.11c1,0,2.09-.05,3.39-.05a6.94,6.94,0,0,1,5.59,2.36,8.44,8.44,0,0,1,2,5.65,6.61,6.61,0,0,1-2.2,5,7.77,7.77,0,0,1-5.49,2.05H293.87c-1.1,0-1.76.39-2,1.18a8.23,8.23,0,0,0-.36,2.41c0,1.16.05,2.38.15,3.64a10.78,10.78,0,0,0,.82,3.44,6.46,6.46,0,0,0,2,2.57,5.79,5.79,0,0,0,3.6,1A14,14,0,0,0,303,72a13.08,13.08,0,0,0,3.85-2.2,11.07,11.07,0,0,1,2.31-1.44,6.28,6.28,0,0,1,2.41-.41,6.1,6.1,0,0,1,5.08,2.46c1.26,1.64,1.9,4.11,1.9,7.39A8.67,8.67,0,0,1,316.09,84a17,17,0,0,1-5.91,4,32.6,32.6,0,0,1-7.33,2,43,43,0,0,1-6.62.62,26.58,26.58,0,0,1-9.85-1.64,19.18,19.18,0,0,1-6.83-4.47,21.53,21.53,0,0,1-4.31-6.56,39.77,39.77,0,0,1-2.41-8.06,62.51,62.51,0,0,1-1-8.93q-.19-4.62-.2-9a102.2,102.2,0,0,1,.77-12.62,40.83,40.83,0,0,1,2.77-10.88,20.12,20.12,0,0,1,5.34-7.59,12.47,12.47,0,0,1,8.46-2.88h13.34a43.77,43.77,0,0,1,4.72.26,13.83,13.83,0,0,1,4.37,1.18,7.74,7.74,0,0,1,3.23,2.77,9,9,0,0,1,1.23,5,8.17,8.17,0,0,1-1,4.21,7.17,7.17,0,0,1-2.51,2.56,10.33,10.33,0,0,1-3.49,1.29,21.43,21.43,0,0,1-3.9.35,21.81,21.81,0,0,1-2.72-.15c-.79-.1-1.57-.24-2.36-.41s-1.57-.31-2.36-.41a21.81,21.81,0,0,0-2.72-.15,1.68,1.68,0,0,0-1.23.51,3.79,3.79,0,0,0-.82,1.23,7.13,7.13,0,0,0-.46,1.49A6.24,6.24,0,0,0,292.12,39Z"/><path class="cls-3" d="M342.1,72.52c0,1.91-.05,3.92-.15,6a21.84,21.84,0,0,1-1,5.75,10.21,10.21,0,0,1-2.77,4.36,7.86,7.86,0,0,1-5.49,1.74,9.47,9.47,0,0,1-5.75-1.53,9.2,9.2,0,0,1-3-3.9,17.92,17.92,0,0,1-1.23-5.29q-.25-2.93-.36-5.7c-.13-1.91-.2-3.83-.2-5.74V62.46q0-2.35.05-6.87c0-3,.07-6.11.1-9.29s.11-6.14.21-8.88.22-4.58.36-5.54a12.51,12.51,0,0,1,1.9-5.34A15.52,15.52,0,0,1,329.07,22a22.91,22.91,0,0,1,6.82-3.13,33.55,33.55,0,0,1,9.39-1.18,57.12,57.12,0,0,1,9.08.82,28.82,28.82,0,0,1,9.55,3.33A22.23,22.23,0,0,1,371.45,29q3.07,4.56,3.08,12a23.64,23.64,0,0,1-1.69,9.55,18.38,18.38,0,0,1-4.26,6.15,18.86,18.86,0,0,1-5.49,3.6,35.75,35.75,0,0,1-5.49,1.84c-1.71.41-3.13.71-4.26.88s-1.7.39-1.7.66.6.72,1.8,1.34,2.68,1.37,4.46,2.25,3.73,1.92,5.85,3.08a49.32,49.32,0,0,1,5.85,3.75,24,24,0,0,1,4.47,4.26,7.51,7.51,0,0,1,1.79,4.72,8.2,8.2,0,0,1-2.26,6,7.8,7.8,0,0,1-5.84,2.31,14.21,14.21,0,0,1-6.32-1.49,28.07,28.07,0,0,1-5.69-3.74,36.17,36.17,0,0,1-4.82-4.93q-2.16-2.67-3.8-4.93t-2.77-3.74c-.76-1-1.27-1.49-1.54-1.49a.6.6,0,0,0-.62.57A4.89,4.89,0,0,0,342.1,72.52Zm.1-24a2.17,2.17,0,0,0,1.13,2.06,4.86,4.86,0,0,0,2.36.61,8.42,8.42,0,0,0,3.8-.87A11.09,11.09,0,0,0,352.57,48a10.24,10.24,0,0,0,2.1-3.23,9.85,9.85,0,0,0,.77-3.8,8.78,8.78,0,0,0-2.26-6.1,7.6,7.6,0,0,0-5.95-2.52,5.94,5.94,0,0,0-3.49,1.08,3.71,3.71,0,0,0-1.54,3.23Z"/></g></g></svg>