<?xml version="1.0" encoding="UTF-8"?>
<svg id="Layer_1" data-name="Layer 1" xmlns="http://www.w3.org/2000/svg" viewBox="0 0 261 486">
  <defs>
    <style>
      .cls-1 {
        fill: #7f563a;
      }

      .cls-2 {
        fill: #80c142;
      }

      .cls-3 {
        fill: #dd8b67;
      }

      .cls-4 {
        fill: #fdb627;
      }

      .cls-5 {
        fill: #ffd526;
      }

      .cls-6 {
        fill: #a8ca38;
      }

      .cls-7 {
        fill: #b7613e;
      }

      .cls-8 {
        fill: #cc7a56;
      }

      .cls-9 {
        fill: #583114;
      }
    </style>
  </defs>
  <g>
    <rect class="cls-6" x="126" y="255.13" width="4.8" height="203.87"/>
    <g>
      <path class="cls-2" d="M41.21,272.16c17.46-8.62,38.91-7.96,56.29,3.61,17.37,11.57,26.25,31.11,25.02,50.55-17.46,8.62-38.91,7.96-56.29-3.61-17.37-11.57-26.25-31.11-25.02-50.55Z"/>
      <path class="cls-6" d="M229.74,261.98c-20.45-10.1-45.57-9.32-65.91,4.23s-30.74,36.44-29.3,59.19c20.45,10.1,45.57,9.32,65.91-4.23,20.34-13.55,30.74-36.43,29.3-59.19Z"/>
      <g>
        <path class="cls-2" d="M130.47,452.89l-4.8-.17c.04-1.05,3.53-105.7-13.95-138.76l4.24-2.24c7.63,14.42,12.38,42.6,14.13,83.76,1.3,30.48,.38,57.15,.37,57.42Z"/>
        <path class="cls-6" d="M126.33,452.89c0-.27-.93-26.93,.37-57.42,1.75-41.15,6.51-69.33,14.13-83.76l4.24,2.24c-17.48,33.06-13.98,137.7-13.95,138.76l-4.8,.17Z"/>
      </g>
    </g>
  </g>
  <g>
    <path class="cls-9" d="M133.19,480.24s18.67-26.4,54.08-26.4,49.87,26.4,49.87,26.4h-103.95Z"/>
    <path class="cls-1" d="M42.82,480.24s30.05-42.49,87.05-42.49,80.28,42.49,80.28,42.49H42.82Z"/>
    <rect class="cls-1" x="35.46" y="475.74" width="21.24" height="4.51" rx="2.25" ry="2.25"/>
    <rect class="cls-1" x="27.31" y="475.74" width="4.51" height="4.51" rx="2.25" ry="2.25" transform="translate(59.12 955.98) rotate(180)"/>
    <rect class="cls-9" x="229.45" y="475.74" width="21.24" height="4.51" rx="2.25" ry="2.25"/>
    <rect class="cls-9" x="254.45" y="475.74" width="4.51" height="4.51" rx="2.25" ry="2.25"/>
  </g>
  <g>
    <g>
      <path class="cls-5" d="M141.6,125.64c2.54-4.22-1.49-9.36-6.19-7.9-21.7,6.74-42.57,17.46-61.52,32.3-18.95,14.84-34.36,32.53-46.1,51.99-2.54,4.22,1.49,9.36,6.19,7.9,21.7-6.74,42.57-17.46,61.52-32.3s34.36-32.53,46.1-51.99Z"/>
      <path class="cls-5" d="M139.51,136.44c4.88-.64,6.39-7,2.32-9.77-18.8-12.77-40.19-22.4-63.61-27.96-23.42-5.56-46.86-6.58-69.39-3.63-4.88,.64-6.39,7-2.32,9.77,18.8,12.77,40.19,22.4,63.61,27.96,23.42,5.56,46.86,6.58,69.39,3.63Z"/>
      <path class="cls-5" d="M129.76,141.54c3.54,3.42,9.46,.63,9.08-4.28-1.74-22.66-7.55-45.39-17.8-67.17-10.25-21.78-24.07-40.74-40.43-56.52-3.54-3.42-9.46-.63-9.08,4.28,1.74,22.66,7.55,45.39,17.8,67.17s24.07,40.74,40.43,56.52Z"/>
      <path class="cls-5" d="M119.69,137.1c-.46,4.9,5.4,7.79,9.01,4.43,16.63-15.49,30.78-34.2,41.41-55.8,10.64-21.6,16.84-44.22,18.98-66.84,.46-4.9-5.4-7.79-9.01-4.43-16.63,15.49-30.78,34.2-41.41,55.8s-16.84,44.22-18.98,66.84Z"/>
      <path class="cls-5" d="M116.89,126.45c-4.12,2.69-2.72,9.08,2.15,9.81,22.48,3.35,45.93,2.74,69.45-2.41,23.52-5.15,45.08-14.4,64.1-26.84,4.12-2.69,2.72-9.08-2.15-9.81-22.48-3.35-45.93-2.74-69.45,2.41-23.52,5.15-45.08,14.4-64.1,26.84Z"/>
      <path class="cls-5" d="M123.46,117.63c-4.68-1.54-8.8,3.53-6.33,7.79,11.4,19.66,26.49,37.62,45.18,52.79,18.69,15.17,39.36,26.26,60.95,33.38,4.68,1.54,8.8-3.53,6.33-7.79-11.4-19.66-26.49-37.62-45.18-52.79-18.69-15.17-39.36-26.26-60.95-33.38Z"/>
      <path class="cls-5" d="M134.46,117.27c-1.71-4.62-8.25-4.68-10.04-.09-8.26,21.17-12.89,44.17-13.1,68.24-.21,24.07,4.01,47.15,11.9,68.46,1.71,4.62,8.25,4.68,10.04,.09,8.26-21.17,12.89-44.17,13.1-68.24s-4.01-47.15-11.9-68.46Z"/>
    </g>
    <g>
      <g id="_Radial_Repeat_" data-name="&amp;lt;Radial Repeat&amp;gt;">
        <path class="cls-4" d="M139.45,119.75c.47-4.9-5.39-7.8-9-4.45-16.66,15.45-30.85,34.14-41.53,55.71-10.68,21.58-16.93,44.19-19.11,66.81-.47,4.9,5.39,7.8,9,4.45,16.66-15.45,30.85-34.14,41.53-55.71s16.93-44.19,19.11-66.81Z"/>
      </g>
      <g id="_Radial_Repeat_-2" data-name="&amp;lt;Radial Repeat&amp;gt;">
        <path class="cls-4" d="M142.77,131.09c4.13-2.69,2.74-9.07-2.13-9.81-22.47-3.39-45.92-2.83-69.45,2.27-23.53,5.1-45.1,14.31-64.15,26.71-4.13,2.69-2.74,9.07,2.13,9.81,22.47,3.39,45.92,2.83,69.45-2.27s45.1-14.31,64.15-26.71Z"/>
      </g>
      <g id="_Radial_Repeat_-3" data-name="&amp;lt;Radial Repeat&amp;gt;">
        <path class="cls-4" d="M135.97,140.75c4.67,1.55,8.8-3.51,6.34-7.78-11.36-19.68-26.42-37.67-45.08-52.88-18.66-15.21-39.31-26.34-60.88-33.5-4.67-1.55-8.8,3.51-6.34,7.78,11.36,19.68,26.42,37.67,45.08,52.88s39.31,26.34,60.88,33.5Z"/>
      </g>
      <g id="_Radial_Repeat_-4" data-name="&amp;lt;Radial Repeat&amp;gt;">
        <path class="cls-4" d="M124.18,141.46c1.7,4.62,8.24,4.69,10.04,.11,8.31-21.15,12.98-44.14,13.24-68.21,.26-24.07-3.92-47.16-11.77-68.48-1.7-4.62-8.24-4.69-10.04-.11-8.31,21.15-12.98,44.14-13.24,68.21-.26,24.07,3.92,47.16,11.77,68.48Z"/>
      </g>
      <g id="_Radial_Repeat_-5" data-name="&amp;lt;Radial Repeat&amp;gt;">
        <path class="cls-4" d="M116.27,132.69c-2.55,4.21,1.47,9.37,6.17,7.92,21.72-6.69,42.6-17.37,61.59-32.18,18.98-14.81,34.43-32.47,46.21-51.9,2.55-4.21-1.47-9.37-6.17-7.92-21.72,6.69-42.6,17.37-61.59,32.18-18.98,14.81-34.43,32.47-46.21,51.9Z"/>
      </g>
      <g id="_Radial_Repeat_-6" data-name="&amp;lt;Radial Repeat&amp;gt;">
        <path class="cls-4" d="M118.2,121.04c-4.88,.63-6.41,6.99-2.34,9.76,18.77,12.8,40.15,22.48,63.56,28.09,23.41,5.61,46.85,6.67,69.38,3.77,4.88-.63,6.41-6.99,2.34-9.76-18.77-12.8-40.15-22.48-63.56-28.09s-46.85-6.67-69.38-3.77Z"/>
      </g>
      <g id="_Radial_Repeat_-7" data-name="&amp;lt;Radial Repeat&amp;gt;">
        <path class="cls-4" d="M128.52,115.28c-3.54-3.43-9.46-.65-9.09,4.26,1.69,22.66,7.46,45.4,17.67,67.2,10.21,21.8,23.99,40.79,40.31,56.6,3.54,3.43,9.46,.65,9.09-4.26-1.69-22.66-7.46-45.4-17.67-67.2-10.21-21.8-23.99-40.79-40.31-56.6Z"/>
      </g>
    </g>
    <g>
      <path class="cls-3" d="M178.19,130.03c0,7.85-1.85,15.28-5.15,21.85-8.02,16.01-24.58,27-43.7,27-26.98,0-48.85-21.87-48.85-48.85,0-15.05,6.81-28.52,17.52-37.48,8.48-7.1,19.41-11.37,31.33-11.37,26.98,0,48.85,21.87,48.85,48.85Z"/>
      <circle class="cls-8" cx="129.34" cy="130.03" r="36.22"/>
      <g>
        <circle class="cls-7" cx="129.56" cy="103.09" r="3.9"/>
        <circle class="cls-7" cx="129.56" cy="115.98" r="3.9"/>
        <circle class="cls-7" cx="129.56" cy="128.87" r="3.9"/>
        <circle class="cls-7" cx="129.56" cy="141.75" r="3.9"/>
        <circle class="cls-7" cx="129.56" cy="154.64" r="3.9"/>
        <circle class="cls-7" cx="140.43" cy="109.54" r="3.9"/>
        <circle class="cls-7" cx="140.43" cy="122.42" r="3.9"/>
        <circle class="cls-7" cx="140.43" cy="135.31" r="3.9"/>
        <circle class="cls-7" cx="140.43" cy="148.19" r="3.9"/>
        <circle class="cls-7" cx="150.87" cy="115.98" r="3.9"/>
        <circle class="cls-7" cx="150.87" cy="128.87" r="3.9"/>
        <circle class="cls-7" cx="150.87" cy="141.75" r="3.9"/>
        <circle class="cls-7" cx="107.81" cy="115.98" r="3.9"/>
        <circle class="cls-7" cx="107.81" cy="128.87" r="3.9"/>
        <circle class="cls-7" cx="107.81" cy="141.75" r="3.9"/>
        <circle class="cls-7" cx="118.68" cy="109.54" r="3.9"/>
        <circle class="cls-7" cx="118.68" cy="122.42" r="3.9"/>
        <circle class="cls-7" cx="118.68" cy="135.31" r="3.9"/>
        <circle class="cls-7" cx="118.68" cy="148.19" r="3.9"/>
      </g>
      <path class="cls-8" d="M173.04,151.88c-8.02,16.01-24.58,27-43.7,27-26.98,0-48.85-21.87-48.85-48.85,0-15.05,6.81-28.52,17.52-37.48-7.62,13.07-21.79,44.51,4.42,67.39,28.74,25.09,56.84,3.48,70.62-8.06Z"/>
    </g>
  </g>
</svg>