<?xml version="1.0" encoding="UTF-8"?>
<svg id="Layer_1" data-name="Layer 1" xmlns="http://www.w3.org/2000/svg" viewBox="0 0 216 126">
  <defs>
    <style>
      .cls-1 {
        fill: #52af50;
      }

      .cls-2 {
        fill: #2c7339;
      }
    </style>
  </defs>
  <path class="cls-2" d="M193.26,28.3c-15.53-11.48-37.92-7.54-50.01,8.81-12.09,16.35-9.3,38.91,6.22,50.39,15.53,11.48,37.92,7.54,50.01-8.81,12.09-16.35,9.3-38.91-6.22-50.39Zm-2.43,44c-8.37,11.32-23.87,14.05-34.62,6.1-10.75-7.95-12.68-23.57-4.31-34.89,8.37-11.32,23.87-14.05,34.62-6.1,10.75,7.95,12.68,23.57,4.31,34.89Z"/>
  <path class="cls-1" d="M160.28,116.99l-81.79-2.8c-7.59-.26-13.38-6.86-12.66-14.41l.47-4.93,7.06-74.23c.66-6.94,6.6-12.16,13.57-11.92l72.16,2.47c6.96,.24,12.53,5.85,12.72,12.82l1.96,74.54,.13,4.95c.2,7.59-6.04,13.77-13.62,13.51Z"/>
  <path class="cls-2" d="M160.28,116.99l-81.79-2.8c-7.59-.26-13.38-6.86-12.66-14.41l.47-4.93,107.48,3.68,.13,4.95c.2,7.59-6.04,13.77-13.62,13.51Z"/>
  <polygon class="cls-1" points="108.75 54.91 97.57 80.47 16.64 40.59 24.99 21.52 108.75 54.91"/>
  <path class="cls-2" d="M27.79,33.65c3.06-6.22,1.88-13.43-2.44-18.32-2.15-2.44-6.08-1.92-7.52,.99L7.98,36.31c-1.42,2.89,.52,6.33,3.73,6.56,6.54,.47,13.01-2.98,16.08-9.22Z"/>
</svg>